G04 #@! TF.FileFunction,Legend,Bot*
%FSLAX46Y46*%
G04 Gerber Fmt 4.6, Leading zero omitted, Abs format (unit mm)*
G04 Created by KiCad (PCBNEW 4.0.6) date Mon Aug 28 16:48:00 2017*
%MOMM*%
%LPD*%
G01*
G04 APERTURE LIST*
%ADD10C,0.100000*%
%ADD11C,0.200000*%
%ADD12C,0.250000*%
%ADD13C,0.120000*%
G04 APERTURE END LIST*
D10*
D11*
X137612381Y-103449524D02*
X137612381Y-102973333D01*
X136612381Y-102973333D01*
X137612381Y-103782857D02*
X136612381Y-103782857D01*
X136612381Y-104163810D01*
X136660000Y-104259048D01*
X136707619Y-104306667D01*
X136802857Y-104354286D01*
X136945714Y-104354286D01*
X137040952Y-104306667D01*
X137088571Y-104259048D01*
X137136190Y-104163810D01*
X137136190Y-103782857D01*
X137517143Y-105354286D02*
X137564762Y-105306667D01*
X137612381Y-105163810D01*
X137612381Y-105068572D01*
X137564762Y-104925714D01*
X137469524Y-104830476D01*
X137374286Y-104782857D01*
X137183810Y-104735238D01*
X137040952Y-104735238D01*
X136850476Y-104782857D01*
X136755238Y-104830476D01*
X136660000Y-104925714D01*
X136612381Y-105068572D01*
X136612381Y-105163810D01*
X136660000Y-105306667D01*
X136707619Y-105354286D01*
X174712381Y-113300238D02*
X174712381Y-113871667D01*
X175712381Y-113585952D02*
X174712381Y-113585952D01*
X174712381Y-114062143D02*
X174712381Y-114633572D01*
X175712381Y-114347857D02*
X174712381Y-114347857D01*
X175712381Y-115443096D02*
X175712381Y-114966905D01*
X174712381Y-114966905D01*
X175664762Y-116490715D02*
X175712381Y-116633572D01*
X175712381Y-116871668D01*
X175664762Y-116966906D01*
X175617143Y-117014525D01*
X175521905Y-117062144D01*
X175426667Y-117062144D01*
X175331429Y-117014525D01*
X175283810Y-116966906D01*
X175236190Y-116871668D01*
X175188571Y-116681191D01*
X175140952Y-116585953D01*
X175093333Y-116538334D01*
X174998095Y-116490715D01*
X174902857Y-116490715D01*
X174807619Y-116538334D01*
X174760000Y-116585953D01*
X174712381Y-116681191D01*
X174712381Y-116919287D01*
X174760000Y-117062144D01*
X175712381Y-117490715D02*
X174712381Y-117490715D01*
X174712381Y-117871668D01*
X174760000Y-117966906D01*
X174807619Y-118014525D01*
X174902857Y-118062144D01*
X175045714Y-118062144D01*
X175140952Y-118014525D01*
X175188571Y-117966906D01*
X175236190Y-117871668D01*
X175236190Y-117490715D01*
X174807619Y-118443096D02*
X174760000Y-118490715D01*
X174712381Y-118585953D01*
X174712381Y-118824049D01*
X174760000Y-118919287D01*
X174807619Y-118966906D01*
X174902857Y-119014525D01*
X174998095Y-119014525D01*
X175140952Y-118966906D01*
X175712381Y-118395477D01*
X175712381Y-119014525D01*
X175164524Y-102052381D02*
X175164524Y-101052381D01*
X174831190Y-101766667D01*
X174497857Y-101052381D01*
X174497857Y-102052381D01*
X174021667Y-102052381D02*
X174021667Y-101052381D01*
X173783572Y-101052381D01*
X173640714Y-101100000D01*
X173545476Y-101195238D01*
X173497857Y-101290476D01*
X173450238Y-101480952D01*
X173450238Y-101623810D01*
X173497857Y-101814286D01*
X173545476Y-101909524D01*
X173640714Y-102004762D01*
X173783572Y-102052381D01*
X174021667Y-102052381D01*
X172450238Y-102052381D02*
X172783572Y-101576190D01*
X173021667Y-102052381D02*
X173021667Y-101052381D01*
X172640714Y-101052381D01*
X172545476Y-101100000D01*
X172497857Y-101147619D01*
X172450238Y-101242857D01*
X172450238Y-101385714D01*
X172497857Y-101480952D01*
X172545476Y-101528571D01*
X172640714Y-101576190D01*
X173021667Y-101576190D01*
X172116905Y-101052381D02*
X171450238Y-102052381D01*
X171450238Y-101052381D02*
X172116905Y-102052381D01*
X175768000Y-126238000D02*
X175768000Y-127698500D01*
D12*
X175767952Y-104211429D02*
X175006047Y-104211429D01*
X175386999Y-104592381D02*
X175386999Y-103830476D01*
D13*
X143090000Y-114455000D02*
X143090000Y-115455000D01*
X141390000Y-115455000D02*
X141390000Y-114455000D01*
X147985000Y-119415000D02*
X147285000Y-119415000D01*
X147285000Y-120615000D02*
X147985000Y-120615000D01*
X130750000Y-101600000D02*
X130750000Y-124520000D01*
X130750000Y-124520000D02*
X135950000Y-124520000D01*
X135950000Y-124520000D02*
X135950000Y-99000000D01*
X135950000Y-99000000D02*
X133350000Y-99000000D01*
X133350000Y-99000000D02*
X133350000Y-101600000D01*
X133350000Y-101600000D02*
X130750000Y-101600000D01*
X130750000Y-100330000D02*
X130750000Y-99000000D01*
X130750000Y-99000000D02*
X132020000Y-99000000D01*
X166595000Y-123325000D02*
X166595000Y-124325000D01*
X169955000Y-123325000D02*
X169955000Y-124325000D01*
X167298000Y-107497500D02*
X167298000Y-106497500D01*
X168998000Y-106497500D02*
X168998000Y-107497500D01*
M02*
