G04 #@! TF.FileFunction,Legend,Top*
%FSLAX46Y46*%
G04 Gerber Fmt 4.6, Leading zero omitted, Abs format (unit mm)*
G04 Created by KiCad (PCBNEW 4.0.6) date Mon Aug 28 16:48:00 2017*
%MOMM*%
%LPD*%
G01*
G04 APERTURE LIST*
%ADD10C,0.100000*%
%ADD11C,0.200000*%
%ADD12C,0.250000*%
%ADD13C,0.150000*%
%ADD14C,0.120000*%
G04 APERTURE END LIST*
D10*
D11*
X174760000Y-120840000D02*
X174712381Y-120935238D01*
X174712381Y-121078095D01*
X174760000Y-121220953D01*
X174855238Y-121316191D01*
X174950476Y-121363810D01*
X175140952Y-121411429D01*
X175283810Y-121411429D01*
X175474286Y-121363810D01*
X175569524Y-121316191D01*
X175664762Y-121220953D01*
X175712381Y-121078095D01*
X175712381Y-120982857D01*
X175664762Y-120840000D01*
X175617143Y-120792381D01*
X175283810Y-120792381D01*
X175283810Y-120982857D01*
X175426667Y-120411429D02*
X175426667Y-119935238D01*
X175712381Y-120506667D02*
X174712381Y-120173334D01*
X175712381Y-119840000D01*
X175712381Y-119506667D02*
X174712381Y-119506667D01*
X175426667Y-119173333D01*
X174712381Y-118840000D01*
X175712381Y-118840000D01*
X175188571Y-118363810D02*
X175188571Y-118030476D01*
X175712381Y-117887619D02*
X175712381Y-118363810D01*
X174712381Y-118363810D01*
X174712381Y-117887619D01*
X175712381Y-116697143D02*
X174712381Y-116697143D01*
X174712381Y-116316190D01*
X174760000Y-116220952D01*
X174807619Y-116173333D01*
X174902857Y-116125714D01*
X175045714Y-116125714D01*
X175140952Y-116173333D01*
X175188571Y-116220952D01*
X175236190Y-116316190D01*
X175236190Y-116697143D01*
X175712381Y-115125714D02*
X175236190Y-115459048D01*
X175712381Y-115697143D02*
X174712381Y-115697143D01*
X174712381Y-115316190D01*
X174760000Y-115220952D01*
X174807619Y-115173333D01*
X174902857Y-115125714D01*
X175045714Y-115125714D01*
X175140952Y-115173333D01*
X175188571Y-115220952D01*
X175236190Y-115316190D01*
X175236190Y-115697143D01*
X174712381Y-114840000D02*
X174712381Y-114268571D01*
X175712381Y-114554286D02*
X174712381Y-114554286D01*
X175712381Y-113173333D02*
X174712381Y-113173333D01*
X175188571Y-112363809D02*
X175188571Y-112697143D01*
X175712381Y-112697143D02*
X174712381Y-112697143D01*
X174712381Y-112220952D01*
X171664524Y-102052381D02*
X171664524Y-101052381D01*
X171997858Y-101766667D01*
X172331191Y-101052381D01*
X172331191Y-102052381D01*
X172807381Y-102052381D02*
X172807381Y-101052381D01*
X173045476Y-101052381D01*
X173188334Y-101100000D01*
X173283572Y-101195238D01*
X173331191Y-101290476D01*
X173378810Y-101480952D01*
X173378810Y-101623810D01*
X173331191Y-101814286D01*
X173283572Y-101909524D01*
X173188334Y-102004762D01*
X173045476Y-102052381D01*
X172807381Y-102052381D01*
X173664524Y-101052381D02*
X174235953Y-101052381D01*
X173950238Y-102052381D02*
X173950238Y-101052381D01*
X174474048Y-101052381D02*
X175140715Y-102052381D01*
X175140715Y-101052381D02*
X174474048Y-102052381D01*
D12*
X175069548Y-126499929D02*
X175831453Y-126499929D01*
X175450501Y-126880881D02*
X175450501Y-126118976D01*
D11*
X175641000Y-103568500D02*
X175641000Y-104838500D01*
X169489500Y-109346904D02*
X169441881Y-109442142D01*
X169441881Y-109584999D01*
X169489500Y-109727857D01*
X169584738Y-109823095D01*
X169679976Y-109870714D01*
X169870452Y-109918333D01*
X170013310Y-109918333D01*
X170203786Y-109870714D01*
X170299024Y-109823095D01*
X170394262Y-109727857D01*
X170441881Y-109584999D01*
X170441881Y-109489761D01*
X170394262Y-109346904D01*
X170346643Y-109299285D01*
X170013310Y-109299285D01*
X170013310Y-109489761D01*
X170441881Y-108870714D02*
X169441881Y-108870714D01*
X170441881Y-108299285D01*
X169441881Y-108299285D01*
X170441881Y-107823095D02*
X169441881Y-107823095D01*
X169441881Y-107585000D01*
X169489500Y-107442142D01*
X169584738Y-107346904D01*
X169679976Y-107299285D01*
X169870452Y-107251666D01*
X170013310Y-107251666D01*
X170203786Y-107299285D01*
X170299024Y-107346904D01*
X170394262Y-107442142D01*
X170441881Y-107585000D01*
X170441881Y-107823095D01*
X169997429Y-106378214D02*
X169997429Y-105616309D01*
X170378381Y-105997261D02*
X169616476Y-105997261D01*
X169378381Y-104663928D02*
X169378381Y-105140119D01*
X169854571Y-105187738D01*
X169806952Y-105140119D01*
X169759333Y-105044881D01*
X169759333Y-104806785D01*
X169806952Y-104711547D01*
X169854571Y-104663928D01*
X169949810Y-104616309D01*
X170187905Y-104616309D01*
X170283143Y-104663928D01*
X170330762Y-104711547D01*
X170378381Y-104806785D01*
X170378381Y-105044881D01*
X170330762Y-105140119D01*
X170283143Y-105187738D01*
X169378381Y-104330595D02*
X170378381Y-103997262D01*
X169378381Y-103663928D01*
X155265715Y-100893571D02*
X154932381Y-100893571D01*
X154932381Y-101417381D02*
X154932381Y-100417381D01*
X155408572Y-100417381D01*
X156265715Y-101417381D02*
X155789524Y-101417381D01*
X155789524Y-100417381D01*
X156789524Y-100417381D02*
X156980001Y-100417381D01*
X157075239Y-100465000D01*
X157170477Y-100560238D01*
X157218096Y-100750714D01*
X157218096Y-101084048D01*
X157170477Y-101274524D01*
X157075239Y-101369762D01*
X156980001Y-101417381D01*
X156789524Y-101417381D01*
X156694286Y-101369762D01*
X156599048Y-101274524D01*
X156551429Y-101084048D01*
X156551429Y-100750714D01*
X156599048Y-100560238D01*
X156694286Y-100465000D01*
X156789524Y-100417381D01*
X157646667Y-101417381D02*
X157646667Y-100417381D01*
X158027620Y-100417381D01*
X158122858Y-100465000D01*
X158170477Y-100512619D01*
X158218096Y-100607857D01*
X158218096Y-100750714D01*
X158170477Y-100845952D01*
X158122858Y-100893571D01*
X158027620Y-100941190D01*
X157646667Y-100941190D01*
X158646667Y-101417381D02*
X158646667Y-100417381D01*
X159027620Y-100417381D01*
X159122858Y-100465000D01*
X159170477Y-100512619D01*
X159218096Y-100607857D01*
X159218096Y-100750714D01*
X159170477Y-100845952D01*
X159122858Y-100893571D01*
X159027620Y-100941190D01*
X158646667Y-100941190D01*
X159837143Y-100941190D02*
X159837143Y-101417381D01*
X159503810Y-100417381D02*
X159837143Y-100941190D01*
X160170477Y-100417381D01*
X142938572Y-126880881D02*
X142462381Y-126880881D01*
X142462381Y-125880881D01*
X143271905Y-126880881D02*
X143271905Y-125880881D01*
X143652858Y-125880881D01*
X143748096Y-125928500D01*
X143795715Y-125976119D01*
X143843334Y-126071357D01*
X143843334Y-126214214D01*
X143795715Y-126309452D01*
X143748096Y-126357071D01*
X143652858Y-126404690D01*
X143271905Y-126404690D01*
X144129048Y-125880881D02*
X144700477Y-125880881D01*
X144414762Y-126880881D02*
X144414762Y-125880881D01*
X164855858Y-118548357D02*
X165084429Y-118548357D01*
X165198715Y-118605500D01*
X165313001Y-118719786D01*
X165370143Y-118948357D01*
X165370143Y-119348357D01*
X165313001Y-119576929D01*
X165198715Y-119691214D01*
X165084429Y-119748357D01*
X164855858Y-119748357D01*
X164741572Y-119691214D01*
X164627286Y-119576929D01*
X164570143Y-119348357D01*
X164570143Y-118948357D01*
X164627286Y-118719786D01*
X164741572Y-118605500D01*
X164855858Y-118548357D01*
X165884429Y-119748357D02*
X165884429Y-118548357D01*
X166341572Y-118548357D01*
X166455858Y-118605500D01*
X166513001Y-118662643D01*
X166570144Y-118776929D01*
X166570144Y-118948357D01*
X166513001Y-119062643D01*
X166455858Y-119119786D01*
X166341572Y-119176929D01*
X165884429Y-119176929D01*
X167084429Y-119634071D02*
X167141572Y-119691214D01*
X167084429Y-119748357D01*
X167027286Y-119691214D01*
X167084429Y-119634071D01*
X167084429Y-119748357D01*
X167084429Y-119005500D02*
X167141572Y-119062643D01*
X167084429Y-119119786D01*
X167027286Y-119062643D01*
X167084429Y-119005500D01*
X167084429Y-119119786D01*
X167598715Y-118662643D02*
X167655858Y-118605500D01*
X167770144Y-118548357D01*
X168055858Y-118548357D01*
X168170144Y-118605500D01*
X168227287Y-118662643D01*
X168284430Y-118776929D01*
X168284430Y-118891214D01*
X168227287Y-119062643D01*
X167541573Y-119748357D01*
X168284430Y-119748357D01*
X168798715Y-119119786D02*
X169198715Y-119119786D01*
X169370144Y-119748357D02*
X168798715Y-119748357D01*
X168798715Y-118548357D01*
X169370144Y-118548357D01*
X169884429Y-119748357D02*
X169884429Y-118548357D01*
X170398715Y-119748357D02*
X170398715Y-119119786D01*
X170341572Y-119005500D01*
X170227286Y-118948357D01*
X170055858Y-118948357D01*
X169941572Y-119005500D01*
X169884429Y-119062643D01*
X165455858Y-121634071D02*
X165398715Y-121691214D01*
X165227286Y-121748357D01*
X165113000Y-121748357D01*
X164941572Y-121691214D01*
X164827286Y-121576929D01*
X164770143Y-121462643D01*
X164713000Y-121234071D01*
X164713000Y-121062643D01*
X164770143Y-120834071D01*
X164827286Y-120719786D01*
X164941572Y-120605500D01*
X165113000Y-120548357D01*
X165227286Y-120548357D01*
X165398715Y-120605500D01*
X165455858Y-120662643D01*
X166541572Y-121748357D02*
X165970143Y-121748357D01*
X165970143Y-120548357D01*
X166941572Y-121634071D02*
X166998715Y-121691214D01*
X166941572Y-121748357D01*
X166884429Y-121691214D01*
X166941572Y-121634071D01*
X166941572Y-121748357D01*
X166941572Y-121005500D02*
X166998715Y-121062643D01*
X166941572Y-121119786D01*
X166884429Y-121062643D01*
X166941572Y-121005500D01*
X166941572Y-121119786D01*
X168027287Y-120948357D02*
X168027287Y-121748357D01*
X167741573Y-120491214D02*
X167455858Y-121348357D01*
X168198716Y-121348357D01*
X168655858Y-121119786D02*
X169055858Y-121119786D01*
X169227287Y-121748357D02*
X168655858Y-121748357D01*
X168655858Y-120548357D01*
X169227287Y-120548357D01*
X169741572Y-121748357D02*
X169741572Y-120548357D01*
X170255858Y-121748357D02*
X170255858Y-121119786D01*
X170198715Y-121005500D01*
X170084429Y-120948357D01*
X169913001Y-120948357D01*
X169798715Y-121005500D01*
X169741572Y-121062643D01*
D13*
X169085000Y-103335000D02*
X169085000Y-110335000D01*
X175185000Y-103335000D02*
X169085000Y-103335000D01*
X169085000Y-110335000D02*
X175185000Y-110335000D01*
X175185000Y-110335000D02*
X175185000Y-103335000D01*
D14*
X179705000Y-100330000D02*
X179705000Y-128270000D01*
X157265000Y-114435000D02*
X157265000Y-115435000D01*
X158965000Y-115435000D02*
X158965000Y-114435000D01*
X147670000Y-105375000D02*
X146970000Y-105375000D01*
X146970000Y-104175000D02*
X147670000Y-104175000D01*
X167285000Y-106525000D02*
G75*
G03X167285000Y-106525000I-4090000J0D01*
G01*
X167245000Y-106525000D02*
X159145000Y-106525000D01*
X167245000Y-106565000D02*
X159145000Y-106565000D01*
X167245000Y-106605000D02*
X159145000Y-106605000D01*
X167244000Y-106645000D02*
X159146000Y-106645000D01*
X167242000Y-106685000D02*
X159148000Y-106685000D01*
X167241000Y-106725000D02*
X159149000Y-106725000D01*
X167238000Y-106765000D02*
X159152000Y-106765000D01*
X167236000Y-106805000D02*
X159154000Y-106805000D01*
X167233000Y-106845000D02*
X159157000Y-106845000D01*
X167230000Y-106885000D02*
X159160000Y-106885000D01*
X167226000Y-106925000D02*
X159164000Y-106925000D01*
X167222000Y-106965000D02*
X159168000Y-106965000D01*
X167217000Y-107005000D02*
X159173000Y-107005000D01*
X167212000Y-107045000D02*
X159178000Y-107045000D01*
X167207000Y-107085000D02*
X159183000Y-107085000D01*
X167201000Y-107125000D02*
X159189000Y-107125000D01*
X167195000Y-107165000D02*
X159195000Y-107165000D01*
X167189000Y-107205000D02*
X159201000Y-107205000D01*
X167182000Y-107246000D02*
X159208000Y-107246000D01*
X167174000Y-107286000D02*
X159216000Y-107286000D01*
X167166000Y-107326000D02*
X164175000Y-107326000D01*
X162215000Y-107326000D02*
X159224000Y-107326000D01*
X167158000Y-107366000D02*
X164175000Y-107366000D01*
X162215000Y-107366000D02*
X159232000Y-107366000D01*
X167150000Y-107406000D02*
X164175000Y-107406000D01*
X162215000Y-107406000D02*
X159240000Y-107406000D01*
X167141000Y-107446000D02*
X164175000Y-107446000D01*
X162215000Y-107446000D02*
X159249000Y-107446000D01*
X167131000Y-107486000D02*
X164175000Y-107486000D01*
X162215000Y-107486000D02*
X159259000Y-107486000D01*
X167121000Y-107526000D02*
X164175000Y-107526000D01*
X162215000Y-107526000D02*
X159269000Y-107526000D01*
X167111000Y-107566000D02*
X164175000Y-107566000D01*
X162215000Y-107566000D02*
X159279000Y-107566000D01*
X167100000Y-107606000D02*
X164175000Y-107606000D01*
X162215000Y-107606000D02*
X159290000Y-107606000D01*
X167089000Y-107646000D02*
X164175000Y-107646000D01*
X162215000Y-107646000D02*
X159301000Y-107646000D01*
X167078000Y-107686000D02*
X164175000Y-107686000D01*
X162215000Y-107686000D02*
X159312000Y-107686000D01*
X167065000Y-107726000D02*
X164175000Y-107726000D01*
X162215000Y-107726000D02*
X159325000Y-107726000D01*
X167053000Y-107766000D02*
X164175000Y-107766000D01*
X162215000Y-107766000D02*
X159337000Y-107766000D01*
X167040000Y-107806000D02*
X164175000Y-107806000D01*
X162215000Y-107806000D02*
X159350000Y-107806000D01*
X167027000Y-107846000D02*
X164175000Y-107846000D01*
X162215000Y-107846000D02*
X159363000Y-107846000D01*
X167013000Y-107886000D02*
X164175000Y-107886000D01*
X162215000Y-107886000D02*
X159377000Y-107886000D01*
X166998000Y-107926000D02*
X164175000Y-107926000D01*
X162215000Y-107926000D02*
X159392000Y-107926000D01*
X166984000Y-107966000D02*
X164175000Y-107966000D01*
X162215000Y-107966000D02*
X159406000Y-107966000D01*
X166968000Y-108006000D02*
X164175000Y-108006000D01*
X162215000Y-108006000D02*
X159422000Y-108006000D01*
X166953000Y-108046000D02*
X164175000Y-108046000D01*
X162215000Y-108046000D02*
X159437000Y-108046000D01*
X166936000Y-108086000D02*
X164175000Y-108086000D01*
X162215000Y-108086000D02*
X159454000Y-108086000D01*
X166920000Y-108126000D02*
X164175000Y-108126000D01*
X162215000Y-108126000D02*
X159470000Y-108126000D01*
X166902000Y-108166000D02*
X164175000Y-108166000D01*
X162215000Y-108166000D02*
X159488000Y-108166000D01*
X166885000Y-108206000D02*
X164175000Y-108206000D01*
X162215000Y-108206000D02*
X159505000Y-108206000D01*
X166866000Y-108246000D02*
X164175000Y-108246000D01*
X162215000Y-108246000D02*
X159524000Y-108246000D01*
X166847000Y-108286000D02*
X164175000Y-108286000D01*
X162215000Y-108286000D02*
X159543000Y-108286000D01*
X166828000Y-108326000D02*
X164175000Y-108326000D01*
X162215000Y-108326000D02*
X159562000Y-108326000D01*
X166808000Y-108366000D02*
X164175000Y-108366000D01*
X162215000Y-108366000D02*
X159582000Y-108366000D01*
X166788000Y-108406000D02*
X164175000Y-108406000D01*
X162215000Y-108406000D02*
X159602000Y-108406000D01*
X166767000Y-108446000D02*
X164175000Y-108446000D01*
X162215000Y-108446000D02*
X159623000Y-108446000D01*
X166745000Y-108486000D02*
X164175000Y-108486000D01*
X162215000Y-108486000D02*
X159645000Y-108486000D01*
X166723000Y-108526000D02*
X164175000Y-108526000D01*
X162215000Y-108526000D02*
X159667000Y-108526000D01*
X166700000Y-108566000D02*
X164175000Y-108566000D01*
X162215000Y-108566000D02*
X159690000Y-108566000D01*
X166677000Y-108606000D02*
X164175000Y-108606000D01*
X162215000Y-108606000D02*
X159713000Y-108606000D01*
X166653000Y-108646000D02*
X164175000Y-108646000D01*
X162215000Y-108646000D02*
X159737000Y-108646000D01*
X166629000Y-108686000D02*
X164175000Y-108686000D01*
X162215000Y-108686000D02*
X159761000Y-108686000D01*
X166603000Y-108726000D02*
X164175000Y-108726000D01*
X162215000Y-108726000D02*
X159787000Y-108726000D01*
X166578000Y-108766000D02*
X164175000Y-108766000D01*
X162215000Y-108766000D02*
X159812000Y-108766000D01*
X166551000Y-108806000D02*
X164175000Y-108806000D01*
X162215000Y-108806000D02*
X159839000Y-108806000D01*
X166524000Y-108846000D02*
X164175000Y-108846000D01*
X162215000Y-108846000D02*
X159866000Y-108846000D01*
X166496000Y-108886000D02*
X164175000Y-108886000D01*
X162215000Y-108886000D02*
X159894000Y-108886000D01*
X166467000Y-108926000D02*
X164175000Y-108926000D01*
X162215000Y-108926000D02*
X159923000Y-108926000D01*
X166438000Y-108966000D02*
X164175000Y-108966000D01*
X162215000Y-108966000D02*
X159952000Y-108966000D01*
X166408000Y-109006000D02*
X164175000Y-109006000D01*
X162215000Y-109006000D02*
X159982000Y-109006000D01*
X166377000Y-109046000D02*
X164175000Y-109046000D01*
X162215000Y-109046000D02*
X160013000Y-109046000D01*
X166345000Y-109086000D02*
X164175000Y-109086000D01*
X162215000Y-109086000D02*
X160045000Y-109086000D01*
X166313000Y-109126000D02*
X164175000Y-109126000D01*
X162215000Y-109126000D02*
X160077000Y-109126000D01*
X166279000Y-109166000D02*
X164175000Y-109166000D01*
X162215000Y-109166000D02*
X160111000Y-109166000D01*
X166245000Y-109206000D02*
X164175000Y-109206000D01*
X162215000Y-109206000D02*
X160145000Y-109206000D01*
X166210000Y-109246000D02*
X164175000Y-109246000D01*
X162215000Y-109246000D02*
X160180000Y-109246000D01*
X166174000Y-109286000D02*
X160216000Y-109286000D01*
X166137000Y-109326000D02*
X160253000Y-109326000D01*
X166099000Y-109366000D02*
X160291000Y-109366000D01*
X166060000Y-109406000D02*
X160330000Y-109406000D01*
X166019000Y-109446000D02*
X160371000Y-109446000D01*
X165978000Y-109486000D02*
X160412000Y-109486000D01*
X165935000Y-109526000D02*
X160455000Y-109526000D01*
X165892000Y-109566000D02*
X160498000Y-109566000D01*
X165847000Y-109606000D02*
X160543000Y-109606000D01*
X165800000Y-109646000D02*
X160590000Y-109646000D01*
X165752000Y-109686000D02*
X160638000Y-109686000D01*
X165703000Y-109726000D02*
X160687000Y-109726000D01*
X165652000Y-109766000D02*
X160738000Y-109766000D01*
X165599000Y-109806000D02*
X160791000Y-109806000D01*
X165544000Y-109846000D02*
X160846000Y-109846000D01*
X165488000Y-109886000D02*
X160902000Y-109886000D01*
X165429000Y-109926000D02*
X160961000Y-109926000D01*
X165368000Y-109966000D02*
X161022000Y-109966000D01*
X165304000Y-110006000D02*
X161086000Y-110006000D01*
X165238000Y-110046000D02*
X161152000Y-110046000D01*
X165169000Y-110086000D02*
X161221000Y-110086000D01*
X165097000Y-110126000D02*
X161293000Y-110126000D01*
X165021000Y-110166000D02*
X161369000Y-110166000D01*
X164940000Y-110206000D02*
X161450000Y-110206000D01*
X164855000Y-110246000D02*
X161535000Y-110246000D01*
X164765000Y-110286000D02*
X161625000Y-110286000D01*
X164668000Y-110326000D02*
X161722000Y-110326000D01*
X164564000Y-110366000D02*
X161826000Y-110366000D01*
X164449000Y-110406000D02*
X161941000Y-110406000D01*
X164322000Y-110446000D02*
X162068000Y-110446000D01*
X164178000Y-110486000D02*
X162212000Y-110486000D01*
X164009000Y-110526000D02*
X162381000Y-110526000D01*
X163793000Y-110566000D02*
X162597000Y-110566000D01*
X163441000Y-110606000D02*
X162949000Y-110606000D01*
X163195000Y-102575000D02*
X163195000Y-103775000D01*
X163845000Y-103175000D02*
X162545000Y-103175000D01*
X135830000Y-94555000D02*
X135830000Y-99755000D01*
X176530000Y-94555000D02*
X135830000Y-94555000D01*
X179130000Y-99755000D02*
X135830000Y-99755000D01*
X176530000Y-94555000D02*
X176530000Y-97155000D01*
X176530000Y-97155000D02*
X179130000Y-97155000D01*
X179130000Y-97155000D02*
X179130000Y-99755000D01*
X177800000Y-94555000D02*
X179130000Y-94555000D01*
X179130000Y-94555000D02*
X179130000Y-95885000D01*
X158690000Y-118685000D02*
X158690000Y-121345000D01*
X161290000Y-118685000D02*
X158690000Y-118685000D01*
X161290000Y-121345000D02*
X158690000Y-121345000D01*
X161290000Y-118685000D02*
X161290000Y-121345000D01*
X162560000Y-118685000D02*
X163890000Y-118685000D01*
X163890000Y-118685000D02*
X163890000Y-120015000D01*
D13*
X140145000Y-107840000D02*
X140145000Y-108565000D01*
X154495000Y-107840000D02*
X154495000Y-108640000D01*
X154495000Y-122190000D02*
X154495000Y-121390000D01*
X140145000Y-122190000D02*
X140145000Y-121390000D01*
X140145000Y-107840000D02*
X140945000Y-107840000D01*
X140145000Y-122190000D02*
X140945000Y-122190000D01*
X154495000Y-122190000D02*
X153695000Y-122190000D01*
X154495000Y-107840000D02*
X153695000Y-107840000D01*
X140145000Y-108565000D02*
X138870000Y-108565000D01*
D14*
X142180000Y-127575000D02*
X142180000Y-132775000D01*
X172720000Y-127575000D02*
X142180000Y-127575000D01*
X175320000Y-132775000D02*
X142180000Y-132775000D01*
X172720000Y-127575000D02*
X172720000Y-130175000D01*
X172720000Y-130175000D02*
X175320000Y-130175000D01*
X175320000Y-130175000D02*
X175320000Y-132775000D01*
X173990000Y-127575000D02*
X175320000Y-127575000D01*
X175320000Y-127575000D02*
X175320000Y-128905000D01*
X142650000Y-101735000D02*
X142650000Y-102735000D01*
X139290000Y-101735000D02*
X139290000Y-102735000D01*
D13*
X158718571Y-122721667D02*
X159194762Y-122721667D01*
X158623333Y-123007381D02*
X158956666Y-122007381D01*
X159290000Y-123007381D01*
X159623333Y-123007381D02*
X159623333Y-122007381D01*
X159861428Y-122007381D01*
X160004286Y-122055000D01*
X160099524Y-122150238D01*
X160147143Y-122245476D01*
X160194762Y-122435952D01*
X160194762Y-122578810D01*
X160147143Y-122769286D01*
X160099524Y-122864524D01*
X160004286Y-122959762D01*
X159861428Y-123007381D01*
X159623333Y-123007381D01*
X161194762Y-123007381D02*
X160861428Y-122531190D01*
X160623333Y-123007381D02*
X160623333Y-122007381D01*
X161004286Y-122007381D01*
X161099524Y-122055000D01*
X161147143Y-122102619D01*
X161194762Y-122197857D01*
X161194762Y-122340714D01*
X161147143Y-122435952D01*
X161099524Y-122483571D01*
X161004286Y-122531190D01*
X160623333Y-122531190D01*
X161575714Y-122959762D02*
X161718571Y-123007381D01*
X161956667Y-123007381D01*
X162051905Y-122959762D01*
X162099524Y-122912143D01*
X162147143Y-122816905D01*
X162147143Y-122721667D01*
X162099524Y-122626429D01*
X162051905Y-122578810D01*
X161956667Y-122531190D01*
X161766190Y-122483571D01*
X161670952Y-122435952D01*
X161623333Y-122388333D01*
X161575714Y-122293095D01*
X161575714Y-122197857D01*
X161623333Y-122102619D01*
X161670952Y-122055000D01*
X161766190Y-122007381D01*
X162004286Y-122007381D01*
X162147143Y-122055000D01*
X162575714Y-122483571D02*
X162909048Y-122483571D01*
X163051905Y-123007381D02*
X162575714Y-123007381D01*
X162575714Y-122007381D01*
X163051905Y-122007381D01*
X163956667Y-123007381D02*
X163480476Y-123007381D01*
X163480476Y-122007381D01*
X144177143Y-115514381D02*
X144177143Y-114514381D01*
X144558096Y-114514381D01*
X144653334Y-114562000D01*
X144700953Y-114609619D01*
X144748572Y-114704857D01*
X144748572Y-114847714D01*
X144700953Y-114942952D01*
X144653334Y-114990571D01*
X144558096Y-115038190D01*
X144177143Y-115038190D01*
X145748572Y-115419143D02*
X145700953Y-115466762D01*
X145558096Y-115514381D01*
X145462858Y-115514381D01*
X145320000Y-115466762D01*
X145224762Y-115371524D01*
X145177143Y-115276286D01*
X145129524Y-115085810D01*
X145129524Y-114942952D01*
X145177143Y-114752476D01*
X145224762Y-114657238D01*
X145320000Y-114562000D01*
X145462858Y-114514381D01*
X145558096Y-114514381D01*
X145700953Y-114562000D01*
X145748572Y-114609619D01*
X146320000Y-114942952D02*
X146224762Y-114895333D01*
X146177143Y-114847714D01*
X146129524Y-114752476D01*
X146129524Y-114704857D01*
X146177143Y-114609619D01*
X146224762Y-114562000D01*
X146320000Y-114514381D01*
X146510477Y-114514381D01*
X146605715Y-114562000D01*
X146653334Y-114609619D01*
X146700953Y-114704857D01*
X146700953Y-114752476D01*
X146653334Y-114847714D01*
X146605715Y-114895333D01*
X146510477Y-114942952D01*
X146320000Y-114942952D01*
X146224762Y-114990571D01*
X146177143Y-115038190D01*
X146129524Y-115133429D01*
X146129524Y-115323905D01*
X146177143Y-115419143D01*
X146224762Y-115466762D01*
X146320000Y-115514381D01*
X146510477Y-115514381D01*
X146605715Y-115466762D01*
X146653334Y-115419143D01*
X146700953Y-115323905D01*
X146700953Y-115133429D01*
X146653334Y-115038190D01*
X146605715Y-114990571D01*
X146510477Y-114942952D01*
X147034286Y-114514381D02*
X147700953Y-114514381D01*
X147272381Y-115514381D01*
X147986667Y-114514381D02*
X148605715Y-114514381D01*
X148272381Y-114895333D01*
X148415239Y-114895333D01*
X148510477Y-114942952D01*
X148558096Y-114990571D01*
X148605715Y-115085810D01*
X148605715Y-115323905D01*
X148558096Y-115419143D01*
X148510477Y-115466762D01*
X148415239Y-115514381D01*
X148129524Y-115514381D01*
X148034286Y-115466762D01*
X147986667Y-115419143D01*
X149081905Y-115514381D02*
X149272381Y-115514381D01*
X149367620Y-115466762D01*
X149415239Y-115419143D01*
X149510477Y-115276286D01*
X149558096Y-115085810D01*
X149558096Y-114704857D01*
X149510477Y-114609619D01*
X149462858Y-114562000D01*
X149367620Y-114514381D01*
X149177143Y-114514381D01*
X149081905Y-114562000D01*
X149034286Y-114609619D01*
X148986667Y-114704857D01*
X148986667Y-114942952D01*
X149034286Y-115038190D01*
X149081905Y-115085810D01*
X149177143Y-115133429D01*
X149367620Y-115133429D01*
X149462858Y-115085810D01*
X149510477Y-115038190D01*
X149558096Y-114942952D01*
X149891429Y-114514381D02*
X150510477Y-114514381D01*
X150177143Y-114895333D01*
X150320001Y-114895333D01*
X150415239Y-114942952D01*
X150462858Y-114990571D01*
X150510477Y-115085810D01*
X150510477Y-115323905D01*
X150462858Y-115419143D01*
X150415239Y-115466762D01*
X150320001Y-115514381D01*
X150034286Y-115514381D01*
X149939048Y-115466762D01*
X149891429Y-115419143D01*
M02*
