G04 #@! TF.FileFunction,Copper,L2,Bot,Signal*
%FSLAX46Y46*%
G04 Gerber Fmt 4.6, Leading zero omitted, Abs format (unit mm)*
G04 Created by KiCad (PCBNEW 4.0.6) date Mon Aug 28 16:48:00 2017*
%MOMM*%
%LPD*%
G01*
G04 APERTURE LIST*
%ADD10C,0.100000*%
%ADD11C,2.400000*%
%ADD12R,2.400000X2.400000*%
%ADD13R,3.000000X1.700000*%
%ADD14R,1.250000X1.500000*%
%ADD15R,1.200000X0.750000*%
%ADD16R,1.600000X1.600000*%
%ADD17C,1.600000*%
%ADD18R,1.700000X1.700000*%
%ADD19O,1.700000X1.700000*%
%ADD20R,0.500000X0.800000*%
%ADD21R,0.400000X0.800000*%
%ADD22C,0.600000*%
%ADD23C,0.250000*%
%ADD24C,0.325000*%
%ADD25C,0.500000*%
%ADD26C,0.254000*%
G04 APERTURE END LIST*
D10*
D11*
X172085000Y-108585000D03*
D12*
X172085000Y-105085000D03*
D13*
X177800000Y-101600000D03*
X177800000Y-104140000D03*
X177800000Y-106680000D03*
X177800000Y-109220000D03*
X177800000Y-111760000D03*
X177800000Y-114300000D03*
X177800000Y-116840000D03*
X177800000Y-119380000D03*
X177800000Y-121920000D03*
X177800000Y-124460000D03*
X177800000Y-127000000D03*
D14*
X142240000Y-116205000D03*
X142240000Y-113705000D03*
D15*
X148585000Y-120015000D03*
X146685000Y-120015000D03*
D16*
X163195000Y-104775000D03*
D17*
X163195000Y-108275000D03*
D18*
X132080000Y-100330000D03*
D19*
X134620000Y-100330000D03*
X132080000Y-102870000D03*
X134620000Y-102870000D03*
X132080000Y-105410000D03*
X134620000Y-105410000D03*
X132080000Y-107950000D03*
X134620000Y-107950000D03*
X132080000Y-110490000D03*
X134620000Y-110490000D03*
X132080000Y-113030000D03*
X134620000Y-113030000D03*
X132080000Y-115570000D03*
X134620000Y-115570000D03*
X132080000Y-118110000D03*
X134620000Y-118110000D03*
X132080000Y-120650000D03*
X134620000Y-120650000D03*
X132080000Y-123190000D03*
X134620000Y-123190000D03*
D18*
X177800000Y-95885000D03*
D19*
X177800000Y-98425000D03*
X175260000Y-95885000D03*
X175260000Y-98425000D03*
X172720000Y-95885000D03*
X172720000Y-98425000D03*
X170180000Y-95885000D03*
X170180000Y-98425000D03*
X167640000Y-95885000D03*
X167640000Y-98425000D03*
X165100000Y-95885000D03*
X165100000Y-98425000D03*
X162560000Y-95885000D03*
X162560000Y-98425000D03*
X160020000Y-95885000D03*
X160020000Y-98425000D03*
X157480000Y-95885000D03*
X157480000Y-98425000D03*
X154940000Y-95885000D03*
X154940000Y-98425000D03*
X152400000Y-95885000D03*
X152400000Y-98425000D03*
X149860000Y-95885000D03*
X149860000Y-98425000D03*
X147320000Y-95885000D03*
X147320000Y-98425000D03*
X144780000Y-95885000D03*
X144780000Y-98425000D03*
X142240000Y-95885000D03*
X142240000Y-98425000D03*
X139700000Y-95885000D03*
X139700000Y-98425000D03*
X137160000Y-95885000D03*
X137160000Y-98425000D03*
D18*
X162560000Y-120015000D03*
D19*
X160020000Y-120015000D03*
D18*
X173990000Y-128905000D03*
D19*
X173990000Y-131445000D03*
X171450000Y-128905000D03*
X171450000Y-131445000D03*
X168910000Y-128905000D03*
X168910000Y-131445000D03*
X166370000Y-128905000D03*
X166370000Y-131445000D03*
X163830000Y-128905000D03*
X163830000Y-131445000D03*
X161290000Y-128905000D03*
X161290000Y-131445000D03*
X158750000Y-128905000D03*
X158750000Y-131445000D03*
X156210000Y-128905000D03*
X156210000Y-131445000D03*
X153670000Y-128905000D03*
X153670000Y-131445000D03*
X151130000Y-128905000D03*
X151130000Y-131445000D03*
X148590000Y-128905000D03*
X148590000Y-131445000D03*
X146050000Y-128905000D03*
X146050000Y-131445000D03*
X143510000Y-128905000D03*
X143510000Y-131445000D03*
D20*
X169475000Y-124725000D03*
D21*
X167875000Y-124725000D03*
X168675000Y-124725000D03*
D20*
X167075000Y-124725000D03*
D21*
X168675000Y-122925000D03*
D20*
X169475000Y-122925000D03*
D21*
X167875000Y-122925000D03*
D20*
X167075000Y-122925000D03*
D14*
X168148000Y-105747500D03*
X168148000Y-108247500D03*
D22*
X140017500Y-100076000D03*
X147701000Y-100647500D03*
X147256500Y-113982500D03*
X140335000Y-127127000D03*
X143446500Y-115760500D03*
X142367000Y-100076000D03*
X147701000Y-102743000D03*
X147256500Y-109156500D03*
X147955000Y-121221500D03*
X140970000Y-115760500D03*
X174434500Y-100901500D03*
X174434500Y-102743000D03*
X165862000Y-109220000D03*
X175062000Y-105735000D03*
X147637500Y-127190500D03*
X164528500Y-120459500D03*
X166624000Y-120459500D03*
X133921500Y-124904500D03*
X147637500Y-125095000D03*
X145224500Y-104330500D03*
X147129500Y-121094500D03*
X140843000Y-114871500D03*
X141351000Y-126301500D03*
X173164500Y-125666500D03*
X138366500Y-115189000D03*
X137731500Y-116078000D03*
X137287000Y-116840000D03*
X137350500Y-117792500D03*
X135890000Y-114744500D03*
X142113000Y-117475000D03*
X141224000Y-118110000D03*
X172402500Y-111887000D03*
X172847000Y-113030000D03*
X173926500Y-114236500D03*
X169545000Y-114998500D03*
X168592500Y-114998500D03*
X167576500Y-114998500D03*
X166687500Y-114998500D03*
X165671500Y-114998500D03*
X158940500Y-101854000D03*
X159258000Y-103886000D03*
X159004000Y-104838500D03*
X158242000Y-101282500D03*
X160528000Y-112839500D03*
X153670000Y-109918500D03*
X159956500Y-113538000D03*
X153225500Y-110617000D03*
X160401000Y-114871500D03*
X153352500Y-111569500D03*
X159512000Y-114871500D03*
X153543000Y-112395000D03*
X159512000Y-115824000D03*
X153416000Y-113220500D03*
X159512000Y-116840000D03*
X153289000Y-114046000D03*
X175514000Y-101346000D03*
X148463000Y-118427500D03*
X148653500Y-117348000D03*
X149288500Y-116586000D03*
X160909000Y-100965000D03*
X156527500Y-110871000D03*
X150114000Y-115951000D03*
X159829500Y-101854000D03*
X156972000Y-110172500D03*
X142811500Y-123888500D03*
X150050500Y-113982500D03*
X141859000Y-123888500D03*
X148780500Y-114173000D03*
X140779500Y-121412000D03*
X145923000Y-116078000D03*
X141160500Y-120015000D03*
X141033500Y-111823500D03*
X142113000Y-118364000D03*
X152844500Y-109220000D03*
X140716000Y-104267000D03*
X143954500Y-108902500D03*
X153162000Y-117094000D03*
X153162000Y-119126000D03*
X139954000Y-104711500D03*
X146240500Y-121285000D03*
D23*
X147955000Y-121221500D02*
X147955000Y-121031000D01*
X147955000Y-121031000D02*
X148585000Y-120401000D01*
X148585000Y-120401000D02*
X148585000Y-120015000D01*
X142367000Y-100076000D02*
X140017500Y-100076000D01*
X147701000Y-100647500D02*
X147701000Y-102743000D01*
X147256500Y-113982500D02*
X147256500Y-109156500D01*
D24*
X140335000Y-127127000D02*
X140335000Y-126111000D01*
X140335000Y-126111000D02*
X140843000Y-125603000D01*
X140843000Y-125603000D02*
X145796000Y-125603000D01*
X145796000Y-125603000D02*
X147955000Y-123444000D01*
X147955000Y-123444000D02*
X147955000Y-121221500D01*
D23*
X143446500Y-115760500D02*
X143002000Y-116205000D01*
X143002000Y-116205000D02*
X142240000Y-116205000D01*
D24*
X136398000Y-120650000D02*
X140970000Y-116078000D01*
X140970000Y-116078000D02*
X140970000Y-115760500D01*
X134620000Y-120650000D02*
X136398000Y-120650000D01*
D23*
X140970000Y-115760500D02*
X141414500Y-116205000D01*
X141414500Y-116205000D02*
X142240000Y-116205000D01*
D25*
X174434500Y-102743000D02*
X174434500Y-100901500D01*
D23*
X147129500Y-121094500D02*
X147129500Y-120713500D01*
X147129500Y-120713500D02*
X146685000Y-120269000D01*
X146685000Y-120269000D02*
X146685000Y-120015000D01*
D25*
X165925500Y-109283500D02*
X168148000Y-109283500D01*
X168148000Y-109283500D02*
X171386500Y-109283500D01*
X168148000Y-108247500D02*
X168148000Y-109283500D01*
D24*
X177800000Y-127000000D02*
X176212500Y-127000000D01*
X176212500Y-127000000D02*
X169672000Y-120459500D01*
X169672000Y-120459500D02*
X166624000Y-120459500D01*
D25*
X165862000Y-109220000D02*
X165925500Y-109283500D01*
X171386500Y-109283500D02*
X172085000Y-108585000D01*
X172085000Y-108585000D02*
X172212000Y-108585000D01*
X172212000Y-108585000D02*
X175062000Y-105735000D01*
X163195000Y-117475000D02*
X163195000Y-108275000D01*
D24*
X137731500Y-125158500D02*
X137731500Y-124968000D01*
X137731500Y-124968000D02*
X137795000Y-125031500D01*
X137795000Y-125031500D02*
X144780000Y-125031500D01*
X144780000Y-125031500D02*
X147129500Y-122682000D01*
X147129500Y-122682000D02*
X147129500Y-121094500D01*
D25*
X147637500Y-127190500D02*
X147574000Y-127254000D01*
X147574000Y-127254000D02*
X141732000Y-127254000D01*
X141732000Y-127254000D02*
X140589000Y-128397000D01*
X164528500Y-118681500D02*
X164528500Y-120459500D01*
X164528500Y-120459500D02*
X164528500Y-122047000D01*
X135826500Y-124904500D02*
X133921500Y-124904500D01*
X136080500Y-125158500D02*
X135826500Y-124904500D01*
D24*
X137731500Y-125539500D02*
X137731500Y-125158500D01*
D25*
X137731500Y-125158500D02*
X136080500Y-125158500D01*
D24*
X143510000Y-131318000D02*
X140589000Y-128397000D01*
X140589000Y-128397000D02*
X137731500Y-125539500D01*
D25*
X164528500Y-122047000D02*
X161480500Y-125095000D01*
X161480500Y-125095000D02*
X147637500Y-125095000D01*
X163322000Y-117475000D02*
X164528500Y-118681500D01*
X163195000Y-117475000D02*
X163322000Y-117475000D01*
D23*
X145224500Y-104330500D02*
X146050000Y-103505000D01*
X146050000Y-103505000D02*
X146050000Y-97155000D01*
X146050000Y-97155000D02*
X144780000Y-95885000D01*
D24*
X143510000Y-131445000D02*
X143510000Y-131318000D01*
X175260000Y-95885000D02*
X177800000Y-95885000D01*
X172720000Y-95885000D02*
X175260000Y-95885000D01*
X170180000Y-95885000D02*
X172720000Y-95885000D01*
X167640000Y-95885000D02*
X170180000Y-95885000D01*
X165100000Y-95885000D02*
X167640000Y-95885000D01*
X162560000Y-95885000D02*
X165100000Y-95885000D01*
X160020000Y-95885000D02*
X162560000Y-95885000D01*
X157480000Y-95885000D02*
X160020000Y-95885000D01*
X154940000Y-95885000D02*
X157480000Y-95885000D01*
X152400000Y-95885000D02*
X154940000Y-95885000D01*
X149860000Y-95885000D02*
X152400000Y-95885000D01*
X147320000Y-95885000D02*
X149860000Y-95885000D01*
X144780000Y-95885000D02*
X147320000Y-95885000D01*
X142240000Y-95885000D02*
X144780000Y-95885000D01*
X139700000Y-95885000D02*
X142240000Y-95885000D01*
X137160000Y-95885000D02*
X139700000Y-95885000D01*
X134620000Y-98933000D02*
X137160000Y-96393000D01*
X137160000Y-96393000D02*
X137160000Y-95885000D01*
X134620000Y-100330000D02*
X134620000Y-98933000D01*
X138366500Y-106045000D02*
X135191500Y-102870000D01*
X135191500Y-102870000D02*
X134620000Y-102870000D01*
X138366500Y-113030000D02*
X138366500Y-106045000D01*
X140208000Y-114871500D02*
X138366500Y-113030000D01*
X140843000Y-114871500D02*
X140208000Y-114871500D01*
D25*
X134620000Y-102870000D02*
X134620000Y-100330000D01*
D24*
X136779000Y-119380000D02*
X133350000Y-119380000D01*
X133350000Y-119380000D02*
X132080000Y-120650000D01*
X138303000Y-117856000D02*
X136779000Y-119380000D01*
X138303000Y-117284500D02*
X138303000Y-117856000D01*
X140716000Y-114871500D02*
X138303000Y-117284500D01*
X140843000Y-114871500D02*
X140716000Y-114871500D01*
D23*
X140906500Y-114808000D02*
X141137000Y-114808000D01*
X141137000Y-114808000D02*
X142240000Y-113705000D01*
X140843000Y-114871500D02*
X140906500Y-114808000D01*
D25*
X176085500Y-103759000D02*
X173411000Y-103759000D01*
X173411000Y-103759000D02*
X172085000Y-105085000D01*
X176466500Y-104140000D02*
X176085500Y-103759000D01*
X177800000Y-104140000D02*
X176466500Y-104140000D01*
X164655500Y-104775000D02*
X168084500Y-104775000D01*
X168084500Y-104775000D02*
X171775000Y-104775000D01*
X168148000Y-105747500D02*
X168148000Y-104838500D01*
X168148000Y-104838500D02*
X168084500Y-104775000D01*
X165735000Y-122872500D02*
X165735000Y-118046500D01*
X165735000Y-118046500D02*
X164655500Y-116967000D01*
X164655500Y-116967000D02*
X164655500Y-104775000D01*
X171775000Y-104775000D02*
X172085000Y-105085000D01*
X164655500Y-104775000D02*
X163195000Y-104775000D01*
X141351000Y-126301500D02*
X141414500Y-126365000D01*
X141414500Y-126365000D02*
X162242500Y-126365000D01*
X162242500Y-126365000D02*
X165735000Y-122872500D01*
D24*
X168592500Y-122428000D02*
X169418000Y-122428000D01*
X169418000Y-122428000D02*
X169926000Y-122428000D01*
D23*
X169475000Y-122925000D02*
X169475000Y-122485000D01*
X169475000Y-122485000D02*
X169418000Y-122428000D01*
D24*
X167894000Y-122428000D02*
X168592500Y-122428000D01*
D23*
X168675000Y-122925000D02*
X168675000Y-122510500D01*
X168675000Y-122510500D02*
X168592500Y-122428000D01*
D24*
X167068500Y-122428000D02*
X167894000Y-122428000D01*
D23*
X167875000Y-122925000D02*
X167875000Y-122447000D01*
X167875000Y-122447000D02*
X167894000Y-122428000D01*
D24*
X166560500Y-122428000D02*
X167068500Y-122428000D01*
D23*
X167075000Y-122925000D02*
X167075000Y-122434500D01*
X167075000Y-122434500D02*
X167068500Y-122428000D01*
D24*
X169926000Y-122428000D02*
X173164500Y-125666500D01*
X166116000Y-122872500D02*
X166560500Y-122428000D01*
X165735000Y-122872500D02*
X166116000Y-122872500D01*
D23*
X132080000Y-102870000D02*
X132461000Y-102870000D01*
X132461000Y-102870000D02*
X133731000Y-104140000D01*
X133731000Y-104140000D02*
X135318500Y-104140000D01*
X135318500Y-104140000D02*
X137668000Y-106489500D01*
X137668000Y-106489500D02*
X137668000Y-113220500D01*
X137668000Y-113220500D02*
X138366500Y-113919000D01*
X138366500Y-113919000D02*
X138366500Y-115189000D01*
X132080000Y-105410000D02*
X132461000Y-105410000D01*
X132461000Y-105410000D02*
X133731000Y-106680000D01*
X133731000Y-106680000D02*
X135255000Y-106680000D01*
X135255000Y-106680000D02*
X137160000Y-108585000D01*
X137160000Y-108585000D02*
X137160000Y-113538000D01*
X137160000Y-113538000D02*
X137731500Y-114109500D01*
X137731500Y-114109500D02*
X137731500Y-116078000D01*
X137287000Y-116840000D02*
X137096500Y-116649500D01*
X137096500Y-116649500D02*
X137096500Y-114363500D01*
X137096500Y-114363500D02*
X136588500Y-113855500D01*
X136588500Y-113855500D02*
X136588500Y-110553500D01*
X136588500Y-110553500D02*
X135255000Y-109220000D01*
X135255000Y-109220000D02*
X133667500Y-109220000D01*
X133667500Y-109220000D02*
X132397500Y-107950000D01*
X132397500Y-107950000D02*
X132080000Y-107950000D01*
X137350500Y-117792500D02*
X136588500Y-117030500D01*
X136588500Y-117030500D02*
X136588500Y-114554000D01*
X136588500Y-114554000D02*
X136017000Y-113982500D01*
X136017000Y-113982500D02*
X136017000Y-112522000D01*
X136017000Y-112522000D02*
X135255000Y-111760000D01*
X135255000Y-111760000D02*
X133794500Y-111760000D01*
X133794500Y-111760000D02*
X132524500Y-110490000D01*
X132524500Y-110490000D02*
X132080000Y-110490000D01*
X135890000Y-114744500D02*
X135826500Y-114744500D01*
X135826500Y-114744500D02*
X135382000Y-114300000D01*
X135382000Y-114300000D02*
X133794500Y-114300000D01*
X133794500Y-114300000D02*
X132524500Y-113030000D01*
X132524500Y-113030000D02*
X132080000Y-113030000D01*
X142113000Y-117475000D02*
X140779500Y-117475000D01*
X140779500Y-117475000D02*
X136334500Y-121920000D01*
X136334500Y-121920000D02*
X133350000Y-121920000D01*
X133350000Y-121920000D02*
X132080000Y-123190000D01*
X140970000Y-118110000D02*
X135890000Y-123190000D01*
X135890000Y-123190000D02*
X134620000Y-123190000D01*
X141224000Y-118110000D02*
X140970000Y-118110000D01*
D24*
X175514000Y-107124500D02*
X175958500Y-106680000D01*
X175958500Y-106680000D02*
X176085500Y-106680000D01*
X176085500Y-106680000D02*
X177800000Y-106680000D01*
D23*
X172402500Y-111887000D02*
X175514000Y-108775500D01*
X175514000Y-108775500D02*
X175514000Y-107124500D01*
D24*
X172847000Y-113030000D02*
X176657000Y-109220000D01*
D23*
X176657000Y-109220000D02*
X177800000Y-109220000D01*
X173926500Y-114236500D02*
X174053500Y-114236500D01*
D24*
X174053500Y-114236500D02*
X176530000Y-111760000D01*
D23*
X176530000Y-111760000D02*
X177800000Y-111760000D01*
X169545000Y-114998500D02*
X175577500Y-114998500D01*
X175577500Y-114998500D02*
X175704500Y-114871500D01*
D24*
X175704500Y-114871500D02*
X176276000Y-114300000D01*
X176276000Y-114300000D02*
X177800000Y-114300000D01*
X175323500Y-115633500D02*
X176530000Y-116840000D01*
D23*
X168592500Y-114998500D02*
X168656000Y-114998500D01*
X168656000Y-114998500D02*
X169291000Y-115633500D01*
X169291000Y-115633500D02*
X175323500Y-115633500D01*
X176530000Y-116840000D02*
X177800000Y-116840000D01*
X167576500Y-114998500D02*
X168846500Y-116268500D01*
X168846500Y-116268500D02*
X173609000Y-116268500D01*
D24*
X173609000Y-116268500D02*
X176720500Y-119380000D01*
D23*
X176720500Y-119380000D02*
X177800000Y-119380000D01*
X166687500Y-114998500D02*
X168656000Y-116967000D01*
X168656000Y-116967000D02*
X171894500Y-116967000D01*
D24*
X171894500Y-116967000D02*
X176847500Y-121920000D01*
D23*
X176847500Y-121920000D02*
X177800000Y-121920000D01*
X165671500Y-114998500D02*
X165798500Y-114998500D01*
X165798500Y-114998500D02*
X168338500Y-117538500D01*
X168338500Y-117538500D02*
X170243500Y-117538500D01*
D24*
X170243500Y-117538500D02*
X177165000Y-124460000D01*
D23*
X177165000Y-124460000D02*
X177800000Y-124460000D01*
X158940500Y-101854000D02*
X159131000Y-102044500D01*
X159131000Y-103759000D02*
X159258000Y-103886000D01*
X159131000Y-102044500D02*
X159131000Y-103759000D01*
X159004000Y-104838500D02*
X158242000Y-104076500D01*
X158242000Y-104076500D02*
X158242000Y-101282500D01*
X160528000Y-112839500D02*
X156654500Y-112839500D01*
X156654500Y-112839500D02*
X153733500Y-109918500D01*
X153733500Y-109918500D02*
X153670000Y-109918500D01*
X159956500Y-113538000D02*
X156591000Y-113538000D01*
X156591000Y-113538000D02*
X153670000Y-110617000D01*
X153670000Y-110617000D02*
X153543000Y-110617000D01*
X153543000Y-110617000D02*
X153225500Y-110617000D01*
X160401000Y-114871500D02*
X159639000Y-114109500D01*
X156337000Y-114109500D02*
X153797000Y-111569500D01*
X159639000Y-114109500D02*
X156337000Y-114109500D01*
X153797000Y-111569500D02*
X153352500Y-111569500D01*
X159512000Y-114871500D02*
X156019500Y-114871500D01*
X156019500Y-114871500D02*
X154876500Y-113728500D01*
X154876500Y-113728500D02*
X153543000Y-112395000D01*
X159512000Y-115824000D02*
X156019500Y-115824000D01*
X156019500Y-115824000D02*
X154749500Y-114554000D01*
X154749500Y-114554000D02*
X153416000Y-113220500D01*
X159512000Y-116840000D02*
X156083000Y-116840000D01*
X156083000Y-116840000D02*
X154622500Y-115379500D01*
X154622500Y-115379500D02*
X153289000Y-114046000D01*
D24*
X175514000Y-101346000D02*
X175768000Y-101600000D01*
X175768000Y-101600000D02*
X177800000Y-101600000D01*
D23*
X177800000Y-101600000D02*
X176657000Y-101600000D01*
X177800000Y-98425000D02*
X177292000Y-98425000D01*
X177292000Y-98425000D02*
X175514000Y-100203000D01*
X175514000Y-100203000D02*
X170497500Y-100203000D01*
X170497500Y-100203000D02*
X169291000Y-101409500D01*
X169291000Y-101409500D02*
X162242500Y-101409500D01*
X161671000Y-117729000D02*
X160972500Y-118427500D01*
X162242500Y-101409500D02*
X161671000Y-101981000D01*
X161671000Y-101981000D02*
X161671000Y-117729000D01*
X160972500Y-118427500D02*
X148463000Y-118427500D01*
X170180000Y-98425000D02*
X170180000Y-98996500D01*
X170180000Y-98996500D02*
X168465500Y-100711000D01*
X168465500Y-100711000D02*
X162115500Y-100711000D01*
X162115500Y-100711000D02*
X161163000Y-101663500D01*
X161163000Y-101663500D02*
X161163000Y-117475000D01*
X161163000Y-117475000D02*
X160782000Y-117856000D01*
X160782000Y-117856000D02*
X149479000Y-117856000D01*
X149479000Y-117856000D02*
X148971000Y-117348000D01*
X148971000Y-117348000D02*
X148653500Y-117348000D01*
X149288500Y-116586000D02*
X149415500Y-116713000D01*
X149415500Y-116713000D02*
X150431500Y-116713000D01*
X150431500Y-116713000D02*
X152082500Y-115062000D01*
X152082500Y-115062000D02*
X152082500Y-105410000D01*
X152082500Y-105410000D02*
X157226000Y-100266500D01*
X157226000Y-100266500D02*
X161480500Y-100266500D01*
X161480500Y-100266500D02*
X161734500Y-100012500D01*
X161734500Y-100012500D02*
X166179500Y-100012500D01*
X166179500Y-100012500D02*
X167640000Y-98552000D01*
X167640000Y-98552000D02*
X167640000Y-98425000D01*
X160909000Y-100965000D02*
X160591500Y-101282500D01*
X160591500Y-101282500D02*
X160591500Y-107569000D01*
X160591500Y-107569000D02*
X157289500Y-110871000D01*
X157289500Y-110871000D02*
X156527500Y-110871000D01*
X150114000Y-115951000D02*
X151384000Y-114681000D01*
X151384000Y-114681000D02*
X151384000Y-105156000D01*
X151384000Y-105156000D02*
X156781500Y-99758500D01*
X156781500Y-99758500D02*
X160909000Y-99758500D01*
X160909000Y-99758500D02*
X162242500Y-98425000D01*
X162242500Y-98425000D02*
X162560000Y-98425000D01*
X159829500Y-101854000D02*
X160020000Y-102044500D01*
X160020000Y-102044500D02*
X160020000Y-107124500D01*
X160020000Y-107124500D02*
X158242000Y-108902500D01*
X158242000Y-108902500D02*
X156972000Y-110172500D01*
X142811500Y-123888500D02*
X142811500Y-121983500D01*
X142811500Y-121983500D02*
X146939000Y-117856000D01*
X146939000Y-117856000D02*
X147129500Y-117856000D01*
X147129500Y-117856000D02*
X150749000Y-114236500D01*
X150749000Y-114236500D02*
X150749000Y-104838500D01*
X150749000Y-104838500D02*
X157162500Y-98425000D01*
X157162500Y-98425000D02*
X157480000Y-98425000D01*
X150050500Y-113982500D02*
X150050500Y-103187500D01*
X150050500Y-103187500D02*
X154813000Y-98425000D01*
X154813000Y-98425000D02*
X154940000Y-98425000D01*
X152400000Y-98425000D02*
X149415500Y-101409500D01*
X149415500Y-101409500D02*
X149415500Y-114490500D01*
X149415500Y-114490500D02*
X141859000Y-122047000D01*
X141859000Y-122047000D02*
X141859000Y-123888500D01*
X149860000Y-98425000D02*
X149860000Y-98742500D01*
X149860000Y-98742500D02*
X148780500Y-99822000D01*
X148780500Y-99822000D02*
X148780500Y-114173000D01*
X140779500Y-121412000D02*
X141478000Y-121412000D01*
X141478000Y-121412000D02*
X146621500Y-116268500D01*
X146621500Y-116268500D02*
X146621500Y-99123500D01*
X146621500Y-99123500D02*
X147320000Y-98425000D01*
X145923000Y-116078000D02*
X146050000Y-115951000D01*
X146050000Y-115951000D02*
X146050000Y-106299000D01*
X146050000Y-106299000D02*
X143891000Y-104140000D01*
X143891000Y-104140000D02*
X143891000Y-99949000D01*
X143891000Y-99949000D02*
X144780000Y-99060000D01*
X144780000Y-99060000D02*
X144780000Y-98425000D01*
X141160500Y-120015000D02*
X142113000Y-120015000D01*
X142113000Y-120015000D02*
X145288000Y-116840000D01*
X145288000Y-116840000D02*
X145288000Y-106362500D01*
X145288000Y-106362500D02*
X143256000Y-104330500D01*
X143256000Y-104330500D02*
X143256000Y-99441000D01*
X143256000Y-99441000D02*
X142240000Y-98425000D01*
X141033500Y-111823500D02*
X141033500Y-109537500D01*
X141033500Y-109537500D02*
X139954000Y-108458000D01*
X139954000Y-108458000D02*
X139954000Y-106045000D01*
X139954000Y-106045000D02*
X137858500Y-103949500D01*
X137858500Y-103949500D02*
X137858500Y-100520500D01*
X137858500Y-100520500D02*
X139700000Y-98679000D01*
X139700000Y-98679000D02*
X139700000Y-98425000D01*
X142113000Y-118364000D02*
X144145000Y-116332000D01*
X144145000Y-116332000D02*
X144145000Y-113474500D01*
X144145000Y-113474500D02*
X143129000Y-112458500D01*
X143129000Y-112458500D02*
X140716000Y-112458500D01*
X140716000Y-112458500D02*
X139128500Y-110871000D01*
X139128500Y-110871000D02*
X139128500Y-105981500D01*
X139128500Y-105981500D02*
X137160000Y-104013000D01*
X137160000Y-104013000D02*
X137160000Y-103505000D01*
X137160000Y-103505000D02*
X137160000Y-98425000D01*
X173990000Y-128905000D02*
X173990000Y-128397000D01*
X173990000Y-128397000D02*
X171831000Y-126238000D01*
X171831000Y-126238000D02*
X170561000Y-126238000D01*
X170561000Y-126238000D02*
X169475000Y-125152000D01*
X169475000Y-125152000D02*
X169475000Y-124725000D01*
X172656500Y-128079500D02*
X172656500Y-130111500D01*
X172656500Y-130111500D02*
X173990000Y-131445000D01*
X171958000Y-127381000D02*
X172656500Y-128079500D01*
X170561000Y-127381000D02*
X171958000Y-127381000D01*
X168675000Y-125495000D02*
X170561000Y-127381000D01*
X168675000Y-124725000D02*
X168675000Y-125495000D01*
X167640000Y-128079500D02*
X167640000Y-130175000D01*
X167640000Y-130175000D02*
X168910000Y-131445000D01*
X167875000Y-127844500D02*
X167640000Y-128079500D01*
X167875000Y-124725000D02*
X167875000Y-127844500D01*
X166370000Y-131445000D02*
X165100000Y-130175000D01*
X165100000Y-130175000D02*
X165100000Y-127635000D01*
X165100000Y-127635000D02*
X167075000Y-125660000D01*
X167075000Y-125660000D02*
X167075000Y-124725000D01*
X166370000Y-131445000D02*
X166370000Y-131254500D01*
X140716000Y-104267000D02*
X140716000Y-104457500D01*
X140716000Y-104457500D02*
X143954500Y-107696000D01*
X143954500Y-107696000D02*
X143954500Y-108902500D01*
X152844500Y-109220000D02*
X152590500Y-109474000D01*
X152590500Y-109474000D02*
X152590500Y-114363500D01*
X152590500Y-114363500D02*
X153162000Y-114935000D01*
X153162000Y-114935000D02*
X153162000Y-117094000D01*
X155765500Y-121666000D02*
X153225500Y-119126000D01*
X153225500Y-119126000D02*
X153162000Y-119126000D01*
X161480500Y-121666000D02*
X155765500Y-121666000D01*
X162560000Y-120586500D02*
X161480500Y-121666000D01*
X162560000Y-120015000D02*
X162560000Y-120586500D01*
X139954000Y-104711500D02*
X143192500Y-107950000D01*
X143192500Y-107950000D02*
X143192500Y-110680500D01*
X143192500Y-110680500D02*
X144716500Y-112204500D01*
X144716500Y-112204500D02*
X144716500Y-116522500D01*
X144716500Y-116522500D02*
X142811500Y-118427500D01*
X140652500Y-124523500D02*
X143383000Y-124523500D01*
X142811500Y-118427500D02*
X142811500Y-118618000D01*
X142811500Y-118618000D02*
X142176500Y-119253000D01*
X146240500Y-121666000D02*
X146240500Y-121285000D01*
X142176500Y-119253000D02*
X140716000Y-119253000D01*
X140716000Y-119253000D02*
X139636500Y-120332500D01*
X139636500Y-120332500D02*
X139636500Y-123507500D01*
X139636500Y-123507500D02*
X140652500Y-124523500D01*
X143383000Y-124523500D02*
X146240500Y-121666000D01*
D26*
G36*
X138876500Y-123507500D02*
X138934352Y-123798339D01*
X139099099Y-124044901D01*
X140115099Y-125060901D01*
X140200321Y-125117844D01*
X139771082Y-125547082D01*
X139598206Y-125805810D01*
X139537500Y-126111000D01*
X139537500Y-126609456D01*
X139400162Y-126940201D01*
X139399838Y-127312167D01*
X139541883Y-127655943D01*
X139804673Y-127919192D01*
X140148201Y-128061838D01*
X140520167Y-128062162D01*
X140863943Y-127920117D01*
X141127192Y-127657327D01*
X141269838Y-127313799D01*
X141269905Y-127236430D01*
X141346611Y-127236497D01*
X141414500Y-127250001D01*
X141414505Y-127250000D01*
X162242495Y-127250000D01*
X162242500Y-127250001D01*
X162524984Y-127193810D01*
X162581175Y-127182633D01*
X162868290Y-126990790D01*
X166207225Y-123651854D01*
X166272399Y-123638890D01*
X166360910Y-123776441D01*
X166430711Y-123824134D01*
X166373559Y-123860910D01*
X166228569Y-124073110D01*
X166177560Y-124325000D01*
X166177560Y-125125000D01*
X166221838Y-125360317D01*
X166252395Y-125407803D01*
X164562599Y-127097599D01*
X164397852Y-127344161D01*
X164367295Y-127497782D01*
X163830000Y-127390907D01*
X163261715Y-127503946D01*
X162779946Y-127825853D01*
X162560000Y-128155026D01*
X162340054Y-127825853D01*
X161858285Y-127503946D01*
X161290000Y-127390907D01*
X160721715Y-127503946D01*
X160239946Y-127825853D01*
X160020000Y-128155026D01*
X159800054Y-127825853D01*
X159318285Y-127503946D01*
X158750000Y-127390907D01*
X158181715Y-127503946D01*
X157699946Y-127825853D01*
X157480000Y-128155026D01*
X157260054Y-127825853D01*
X156778285Y-127503946D01*
X156210000Y-127390907D01*
X155641715Y-127503946D01*
X155159946Y-127825853D01*
X154940000Y-128155026D01*
X154720054Y-127825853D01*
X154238285Y-127503946D01*
X153670000Y-127390907D01*
X153101715Y-127503946D01*
X152619946Y-127825853D01*
X152400000Y-128155026D01*
X152180054Y-127825853D01*
X151698285Y-127503946D01*
X151130000Y-127390907D01*
X150561715Y-127503946D01*
X150079946Y-127825853D01*
X149860000Y-128155026D01*
X149640054Y-127825853D01*
X149158285Y-127503946D01*
X148590000Y-127390907D01*
X148021715Y-127503946D01*
X147539946Y-127825853D01*
X147320000Y-128155026D01*
X147100054Y-127825853D01*
X146618285Y-127503946D01*
X146050000Y-127390907D01*
X145481715Y-127503946D01*
X144999946Y-127825853D01*
X144780000Y-128155026D01*
X144560054Y-127825853D01*
X144078285Y-127503946D01*
X143510000Y-127390907D01*
X142941715Y-127503946D01*
X142459946Y-127825853D01*
X142138039Y-128307622D01*
X142025000Y-128875907D01*
X142025000Y-128934093D01*
X142138039Y-129502378D01*
X142459946Y-129984147D01*
X142743101Y-130173345D01*
X142743076Y-130173355D01*
X142314817Y-130563642D01*
X142068514Y-131088108D01*
X142189181Y-131318000D01*
X143383000Y-131318000D01*
X143383000Y-131298000D01*
X143637000Y-131298000D01*
X143637000Y-131318000D01*
X143657000Y-131318000D01*
X143657000Y-131572000D01*
X143637000Y-131572000D01*
X143637000Y-131592000D01*
X143383000Y-131592000D01*
X143383000Y-131572000D01*
X142189181Y-131572000D01*
X142068514Y-131801892D01*
X142314817Y-132326358D01*
X142658974Y-132640000D01*
X142534092Y-132640000D01*
X141680000Y-131785908D01*
X141680000Y-130175000D01*
X141625954Y-129903295D01*
X141472046Y-129672954D01*
X137027046Y-125227954D01*
X136796705Y-125074046D01*
X136525000Y-125020000D01*
X131739092Y-125020000D01*
X130885000Y-124165908D01*
X130885000Y-124066667D01*
X131000853Y-124240054D01*
X131482622Y-124561961D01*
X132050907Y-124675000D01*
X132109093Y-124675000D01*
X132677378Y-124561961D01*
X133159147Y-124240054D01*
X133350000Y-123954422D01*
X133540853Y-124240054D01*
X134022622Y-124561961D01*
X134590907Y-124675000D01*
X134649093Y-124675000D01*
X135217378Y-124561961D01*
X135699147Y-124240054D01*
X135893407Y-123949322D01*
X136180839Y-123892148D01*
X136427401Y-123727401D01*
X138876500Y-121278302D01*
X138876500Y-123507500D01*
X138876500Y-123507500D01*
G37*
X138876500Y-123507500D02*
X138934352Y-123798339D01*
X139099099Y-124044901D01*
X140115099Y-125060901D01*
X140200321Y-125117844D01*
X139771082Y-125547082D01*
X139598206Y-125805810D01*
X139537500Y-126111000D01*
X139537500Y-126609456D01*
X139400162Y-126940201D01*
X139399838Y-127312167D01*
X139541883Y-127655943D01*
X139804673Y-127919192D01*
X140148201Y-128061838D01*
X140520167Y-128062162D01*
X140863943Y-127920117D01*
X141127192Y-127657327D01*
X141269838Y-127313799D01*
X141269905Y-127236430D01*
X141346611Y-127236497D01*
X141414500Y-127250001D01*
X141414505Y-127250000D01*
X162242495Y-127250000D01*
X162242500Y-127250001D01*
X162524984Y-127193810D01*
X162581175Y-127182633D01*
X162868290Y-126990790D01*
X166207225Y-123651854D01*
X166272399Y-123638890D01*
X166360910Y-123776441D01*
X166430711Y-123824134D01*
X166373559Y-123860910D01*
X166228569Y-124073110D01*
X166177560Y-124325000D01*
X166177560Y-125125000D01*
X166221838Y-125360317D01*
X166252395Y-125407803D01*
X164562599Y-127097599D01*
X164397852Y-127344161D01*
X164367295Y-127497782D01*
X163830000Y-127390907D01*
X163261715Y-127503946D01*
X162779946Y-127825853D01*
X162560000Y-128155026D01*
X162340054Y-127825853D01*
X161858285Y-127503946D01*
X161290000Y-127390907D01*
X160721715Y-127503946D01*
X160239946Y-127825853D01*
X160020000Y-128155026D01*
X159800054Y-127825853D01*
X159318285Y-127503946D01*
X158750000Y-127390907D01*
X158181715Y-127503946D01*
X157699946Y-127825853D01*
X157480000Y-128155026D01*
X157260054Y-127825853D01*
X156778285Y-127503946D01*
X156210000Y-127390907D01*
X155641715Y-127503946D01*
X155159946Y-127825853D01*
X154940000Y-128155026D01*
X154720054Y-127825853D01*
X154238285Y-127503946D01*
X153670000Y-127390907D01*
X153101715Y-127503946D01*
X152619946Y-127825853D01*
X152400000Y-128155026D01*
X152180054Y-127825853D01*
X151698285Y-127503946D01*
X151130000Y-127390907D01*
X150561715Y-127503946D01*
X150079946Y-127825853D01*
X149860000Y-128155026D01*
X149640054Y-127825853D01*
X149158285Y-127503946D01*
X148590000Y-127390907D01*
X148021715Y-127503946D01*
X147539946Y-127825853D01*
X147320000Y-128155026D01*
X147100054Y-127825853D01*
X146618285Y-127503946D01*
X146050000Y-127390907D01*
X145481715Y-127503946D01*
X144999946Y-127825853D01*
X144780000Y-128155026D01*
X144560054Y-127825853D01*
X144078285Y-127503946D01*
X143510000Y-127390907D01*
X142941715Y-127503946D01*
X142459946Y-127825853D01*
X142138039Y-128307622D01*
X142025000Y-128875907D01*
X142025000Y-128934093D01*
X142138039Y-129502378D01*
X142459946Y-129984147D01*
X142743101Y-130173345D01*
X142743076Y-130173355D01*
X142314817Y-130563642D01*
X142068514Y-131088108D01*
X142189181Y-131318000D01*
X143383000Y-131318000D01*
X143383000Y-131298000D01*
X143637000Y-131298000D01*
X143637000Y-131318000D01*
X143657000Y-131318000D01*
X143657000Y-131572000D01*
X143637000Y-131572000D01*
X143637000Y-131592000D01*
X143383000Y-131592000D01*
X143383000Y-131572000D01*
X142189181Y-131572000D01*
X142068514Y-131801892D01*
X142314817Y-132326358D01*
X142658974Y-132640000D01*
X142534092Y-132640000D01*
X141680000Y-131785908D01*
X141680000Y-130175000D01*
X141625954Y-129903295D01*
X141472046Y-129672954D01*
X137027046Y-125227954D01*
X136796705Y-125074046D01*
X136525000Y-125020000D01*
X131739092Y-125020000D01*
X130885000Y-124165908D01*
X130885000Y-124066667D01*
X131000853Y-124240054D01*
X131482622Y-124561961D01*
X132050907Y-124675000D01*
X132109093Y-124675000D01*
X132677378Y-124561961D01*
X133159147Y-124240054D01*
X133350000Y-123954422D01*
X133540853Y-124240054D01*
X134022622Y-124561961D01*
X134590907Y-124675000D01*
X134649093Y-124675000D01*
X135217378Y-124561961D01*
X135699147Y-124240054D01*
X135893407Y-123949322D01*
X136180839Y-123892148D01*
X136427401Y-123727401D01*
X138876500Y-121278302D01*
X138876500Y-123507500D01*
G36*
X167801099Y-118075901D02*
X168047661Y-118240648D01*
X168338500Y-118298500D01*
X169875664Y-118298500D01*
X175652560Y-124075396D01*
X175652560Y-125310000D01*
X175696838Y-125545317D01*
X175818143Y-125733831D01*
X175761673Y-125790301D01*
X175665000Y-126023690D01*
X175665000Y-126714250D01*
X175823750Y-126873000D01*
X177673000Y-126873000D01*
X177673000Y-126853000D01*
X177927000Y-126853000D01*
X177927000Y-126873000D01*
X177947000Y-126873000D01*
X177947000Y-127127000D01*
X177927000Y-127127000D01*
X177927000Y-128326250D01*
X178085750Y-128485000D01*
X178995000Y-128485000D01*
X178995000Y-129245908D01*
X175600908Y-132640000D01*
X174866667Y-132640000D01*
X175040054Y-132524147D01*
X175361961Y-132042378D01*
X175475000Y-131474093D01*
X175475000Y-131415907D01*
X175361961Y-130847622D01*
X175040054Y-130365853D01*
X175038821Y-130365029D01*
X175075317Y-130358162D01*
X175291441Y-130219090D01*
X175436431Y-130006890D01*
X175487440Y-129755000D01*
X175487440Y-128055000D01*
X175443162Y-127819683D01*
X175304090Y-127603559D01*
X175091890Y-127458569D01*
X174840000Y-127407560D01*
X174075362Y-127407560D01*
X173953552Y-127285750D01*
X175665000Y-127285750D01*
X175665000Y-127976310D01*
X175761673Y-128209699D01*
X175940302Y-128388327D01*
X176173691Y-128485000D01*
X177514250Y-128485000D01*
X177673000Y-128326250D01*
X177673000Y-127127000D01*
X175823750Y-127127000D01*
X175665000Y-127285750D01*
X173953552Y-127285750D01*
X173269394Y-126601592D01*
X173349667Y-126601662D01*
X173693443Y-126459617D01*
X173956692Y-126196827D01*
X174099338Y-125853299D01*
X174099662Y-125481333D01*
X173957617Y-125137557D01*
X173694827Y-124874308D01*
X173361898Y-124736063D01*
X170489918Y-121864082D01*
X170231190Y-121691206D01*
X169926000Y-121630500D01*
X166620000Y-121630500D01*
X166620000Y-118046505D01*
X166620001Y-118046500D01*
X166552634Y-117707826D01*
X166480587Y-117600000D01*
X166360790Y-117420710D01*
X166360787Y-117420708D01*
X165540500Y-116600420D01*
X165540500Y-115815302D01*
X167801099Y-118075901D01*
X167801099Y-118075901D01*
G37*
X167801099Y-118075901D02*
X168047661Y-118240648D01*
X168338500Y-118298500D01*
X169875664Y-118298500D01*
X175652560Y-124075396D01*
X175652560Y-125310000D01*
X175696838Y-125545317D01*
X175818143Y-125733831D01*
X175761673Y-125790301D01*
X175665000Y-126023690D01*
X175665000Y-126714250D01*
X175823750Y-126873000D01*
X177673000Y-126873000D01*
X177673000Y-126853000D01*
X177927000Y-126853000D01*
X177927000Y-126873000D01*
X177947000Y-126873000D01*
X177947000Y-127127000D01*
X177927000Y-127127000D01*
X177927000Y-128326250D01*
X178085750Y-128485000D01*
X178995000Y-128485000D01*
X178995000Y-129245908D01*
X175600908Y-132640000D01*
X174866667Y-132640000D01*
X175040054Y-132524147D01*
X175361961Y-132042378D01*
X175475000Y-131474093D01*
X175475000Y-131415907D01*
X175361961Y-130847622D01*
X175040054Y-130365853D01*
X175038821Y-130365029D01*
X175075317Y-130358162D01*
X175291441Y-130219090D01*
X175436431Y-130006890D01*
X175487440Y-129755000D01*
X175487440Y-128055000D01*
X175443162Y-127819683D01*
X175304090Y-127603559D01*
X175091890Y-127458569D01*
X174840000Y-127407560D01*
X174075362Y-127407560D01*
X173953552Y-127285750D01*
X175665000Y-127285750D01*
X175665000Y-127976310D01*
X175761673Y-128209699D01*
X175940302Y-128388327D01*
X176173691Y-128485000D01*
X177514250Y-128485000D01*
X177673000Y-128326250D01*
X177673000Y-127127000D01*
X175823750Y-127127000D01*
X175665000Y-127285750D01*
X173953552Y-127285750D01*
X173269394Y-126601592D01*
X173349667Y-126601662D01*
X173693443Y-126459617D01*
X173956692Y-126196827D01*
X174099338Y-125853299D01*
X174099662Y-125481333D01*
X173957617Y-125137557D01*
X173694827Y-124874308D01*
X173361898Y-124736063D01*
X170489918Y-121864082D01*
X170231190Y-121691206D01*
X169926000Y-121630500D01*
X166620000Y-121630500D01*
X166620000Y-118046505D01*
X166620001Y-118046500D01*
X166552634Y-117707826D01*
X166480587Y-117600000D01*
X166360790Y-117420710D01*
X166360787Y-117420708D01*
X165540500Y-116600420D01*
X165540500Y-115815302D01*
X167801099Y-118075901D01*
G36*
X148717000Y-131318000D02*
X151003000Y-131318000D01*
X151003000Y-131298000D01*
X151257000Y-131298000D01*
X151257000Y-131318000D01*
X153543000Y-131318000D01*
X153543000Y-131298000D01*
X153797000Y-131298000D01*
X153797000Y-131318000D01*
X156083000Y-131318000D01*
X156083000Y-131298000D01*
X156337000Y-131298000D01*
X156337000Y-131318000D01*
X158623000Y-131318000D01*
X158623000Y-131298000D01*
X158877000Y-131298000D01*
X158877000Y-131318000D01*
X161163000Y-131318000D01*
X161163000Y-131298000D01*
X161417000Y-131298000D01*
X161417000Y-131318000D01*
X163703000Y-131318000D01*
X163703000Y-131298000D01*
X163957000Y-131298000D01*
X163957000Y-131318000D01*
X163977000Y-131318000D01*
X163977000Y-131572000D01*
X163957000Y-131572000D01*
X163957000Y-131592000D01*
X163703000Y-131592000D01*
X163703000Y-131572000D01*
X161417000Y-131572000D01*
X161417000Y-131592000D01*
X161163000Y-131592000D01*
X161163000Y-131572000D01*
X158877000Y-131572000D01*
X158877000Y-131592000D01*
X158623000Y-131592000D01*
X158623000Y-131572000D01*
X156337000Y-131572000D01*
X156337000Y-131592000D01*
X156083000Y-131592000D01*
X156083000Y-131572000D01*
X153797000Y-131572000D01*
X153797000Y-131592000D01*
X153543000Y-131592000D01*
X153543000Y-131572000D01*
X151257000Y-131572000D01*
X151257000Y-131592000D01*
X151003000Y-131592000D01*
X151003000Y-131572000D01*
X148717000Y-131572000D01*
X148717000Y-131592000D01*
X148463000Y-131592000D01*
X148463000Y-131572000D01*
X148443000Y-131572000D01*
X148443000Y-131318000D01*
X148463000Y-131318000D01*
X148463000Y-131298000D01*
X148717000Y-131298000D01*
X148717000Y-131318000D01*
X148717000Y-131318000D01*
G37*
X148717000Y-131318000D02*
X151003000Y-131318000D01*
X151003000Y-131298000D01*
X151257000Y-131298000D01*
X151257000Y-131318000D01*
X153543000Y-131318000D01*
X153543000Y-131298000D01*
X153797000Y-131298000D01*
X153797000Y-131318000D01*
X156083000Y-131318000D01*
X156083000Y-131298000D01*
X156337000Y-131298000D01*
X156337000Y-131318000D01*
X158623000Y-131318000D01*
X158623000Y-131298000D01*
X158877000Y-131298000D01*
X158877000Y-131318000D01*
X161163000Y-131318000D01*
X161163000Y-131298000D01*
X161417000Y-131298000D01*
X161417000Y-131318000D01*
X163703000Y-131318000D01*
X163703000Y-131298000D01*
X163957000Y-131298000D01*
X163957000Y-131318000D01*
X163977000Y-131318000D01*
X163977000Y-131572000D01*
X163957000Y-131572000D01*
X163957000Y-131592000D01*
X163703000Y-131592000D01*
X163703000Y-131572000D01*
X161417000Y-131572000D01*
X161417000Y-131592000D01*
X161163000Y-131592000D01*
X161163000Y-131572000D01*
X158877000Y-131572000D01*
X158877000Y-131592000D01*
X158623000Y-131592000D01*
X158623000Y-131572000D01*
X156337000Y-131572000D01*
X156337000Y-131592000D01*
X156083000Y-131592000D01*
X156083000Y-131572000D01*
X153797000Y-131572000D01*
X153797000Y-131592000D01*
X153543000Y-131592000D01*
X153543000Y-131572000D01*
X151257000Y-131572000D01*
X151257000Y-131592000D01*
X151003000Y-131592000D01*
X151003000Y-131572000D01*
X148717000Y-131572000D01*
X148717000Y-131592000D01*
X148463000Y-131592000D01*
X148463000Y-131572000D01*
X148443000Y-131572000D01*
X148443000Y-131318000D01*
X148463000Y-131318000D01*
X148463000Y-131298000D01*
X148717000Y-131298000D01*
X148717000Y-131318000D01*
G36*
X162440995Y-109528864D02*
X162978223Y-109721965D01*
X163548454Y-109694778D01*
X163770500Y-109602803D01*
X163770500Y-116966995D01*
X163770499Y-116967000D01*
X163809454Y-117162833D01*
X163837867Y-117305675D01*
X164011248Y-117565160D01*
X164029710Y-117592790D01*
X164850000Y-118413079D01*
X164850000Y-122505921D01*
X161875920Y-125480000D01*
X147046836Y-125480000D01*
X148518918Y-124007918D01*
X148691794Y-123749190D01*
X148752500Y-123444000D01*
X148752500Y-121739044D01*
X148889838Y-121408299D01*
X148890045Y-121170757D01*
X149023362Y-121037440D01*
X149185000Y-121037440D01*
X149420317Y-120993162D01*
X149636441Y-120854090D01*
X149781431Y-120641890D01*
X149832440Y-120390000D01*
X149832440Y-119640000D01*
X149788162Y-119404683D01*
X149649090Y-119188559D01*
X149647540Y-119187500D01*
X152226946Y-119187500D01*
X152226838Y-119311167D01*
X152368883Y-119654943D01*
X152631673Y-119918192D01*
X152975201Y-120060838D01*
X153085632Y-120060934D01*
X155228099Y-122203401D01*
X155474660Y-122368148D01*
X155522914Y-122377746D01*
X155765500Y-122426000D01*
X161480500Y-122426000D01*
X161771339Y-122368148D01*
X162017901Y-122203401D01*
X162708862Y-121512440D01*
X163410000Y-121512440D01*
X163645317Y-121468162D01*
X163861441Y-121329090D01*
X164006431Y-121116890D01*
X164057440Y-120865000D01*
X164057440Y-119165000D01*
X164013162Y-118929683D01*
X163874090Y-118713559D01*
X163661890Y-118568569D01*
X163410000Y-118517560D01*
X161957242Y-118517560D01*
X162208401Y-118266401D01*
X162373148Y-118019840D01*
X162431000Y-117729000D01*
X162431000Y-109495681D01*
X162440995Y-109528864D01*
X162440995Y-109528864D01*
G37*
X162440995Y-109528864D02*
X162978223Y-109721965D01*
X163548454Y-109694778D01*
X163770500Y-109602803D01*
X163770500Y-116966995D01*
X163770499Y-116967000D01*
X163809454Y-117162833D01*
X163837867Y-117305675D01*
X164011248Y-117565160D01*
X164029710Y-117592790D01*
X164850000Y-118413079D01*
X164850000Y-122505921D01*
X161875920Y-125480000D01*
X147046836Y-125480000D01*
X148518918Y-124007918D01*
X148691794Y-123749190D01*
X148752500Y-123444000D01*
X148752500Y-121739044D01*
X148889838Y-121408299D01*
X148890045Y-121170757D01*
X149023362Y-121037440D01*
X149185000Y-121037440D01*
X149420317Y-120993162D01*
X149636441Y-120854090D01*
X149781431Y-120641890D01*
X149832440Y-120390000D01*
X149832440Y-119640000D01*
X149788162Y-119404683D01*
X149649090Y-119188559D01*
X149647540Y-119187500D01*
X152226946Y-119187500D01*
X152226838Y-119311167D01*
X152368883Y-119654943D01*
X152631673Y-119918192D01*
X152975201Y-120060838D01*
X153085632Y-120060934D01*
X155228099Y-122203401D01*
X155474660Y-122368148D01*
X155522914Y-122377746D01*
X155765500Y-122426000D01*
X161480500Y-122426000D01*
X161771339Y-122368148D01*
X162017901Y-122203401D01*
X162708862Y-121512440D01*
X163410000Y-121512440D01*
X163645317Y-121468162D01*
X163861441Y-121329090D01*
X164006431Y-121116890D01*
X164057440Y-120865000D01*
X164057440Y-119165000D01*
X164013162Y-118929683D01*
X163874090Y-118713559D01*
X163661890Y-118568569D01*
X163410000Y-118517560D01*
X161957242Y-118517560D01*
X162208401Y-118266401D01*
X162373148Y-118019840D01*
X162431000Y-117729000D01*
X162431000Y-109495681D01*
X162440995Y-109528864D01*
G36*
X147157500Y-121739835D02*
X147157500Y-123113664D01*
X145465664Y-124805500D01*
X144175802Y-124805500D01*
X146777901Y-122203401D01*
X146942648Y-121956840D01*
X146955461Y-121892423D01*
X147032692Y-121815327D01*
X147110885Y-121627018D01*
X147157500Y-121739835D01*
X147157500Y-121739835D01*
G37*
X147157500Y-121739835D02*
X147157500Y-123113664D01*
X145465664Y-124805500D01*
X144175802Y-124805500D01*
X146777901Y-122203401D01*
X146942648Y-121956840D01*
X146955461Y-121892423D01*
X147032692Y-121815327D01*
X147110885Y-121627018D01*
X147157500Y-121739835D01*
G36*
X132207000Y-120523000D02*
X132227000Y-120523000D01*
X132227000Y-120777000D01*
X132207000Y-120777000D01*
X132207000Y-120797000D01*
X131953000Y-120797000D01*
X131953000Y-120777000D01*
X131933000Y-120777000D01*
X131933000Y-120523000D01*
X131953000Y-120523000D01*
X131953000Y-120503000D01*
X132207000Y-120503000D01*
X132207000Y-120523000D01*
X132207000Y-120523000D01*
G37*
X132207000Y-120523000D02*
X132227000Y-120523000D01*
X132227000Y-120777000D01*
X132207000Y-120777000D01*
X132207000Y-120797000D01*
X131953000Y-120797000D01*
X131953000Y-120777000D01*
X131933000Y-120777000D01*
X131933000Y-120523000D01*
X131953000Y-120523000D01*
X131953000Y-120503000D01*
X132207000Y-120503000D01*
X132207000Y-120523000D01*
G36*
X146812000Y-119888000D02*
X146832000Y-119888000D01*
X146832000Y-120142000D01*
X146812000Y-120142000D01*
X146812000Y-120162000D01*
X146558000Y-120162000D01*
X146558000Y-120142000D01*
X146538000Y-120142000D01*
X146538000Y-119888000D01*
X146558000Y-119888000D01*
X146558000Y-119868000D01*
X146812000Y-119868000D01*
X146812000Y-119888000D01*
X146812000Y-119888000D01*
G37*
X146812000Y-119888000D02*
X146832000Y-119888000D01*
X146832000Y-120142000D01*
X146812000Y-120142000D01*
X146812000Y-120162000D01*
X146558000Y-120162000D01*
X146558000Y-120142000D01*
X146538000Y-120142000D01*
X146538000Y-119888000D01*
X146558000Y-119888000D01*
X146558000Y-119868000D01*
X146812000Y-119868000D01*
X146812000Y-119888000D01*
G36*
X133540853Y-119160054D02*
X133870026Y-119380000D01*
X133540853Y-119599946D01*
X133351655Y-119883101D01*
X133351645Y-119883076D01*
X132961358Y-119454817D01*
X132818447Y-119387702D01*
X133159147Y-119160054D01*
X133350000Y-118874422D01*
X133540853Y-119160054D01*
X133540853Y-119160054D01*
G37*
X133540853Y-119160054D02*
X133870026Y-119380000D01*
X133540853Y-119599946D01*
X133351655Y-119883101D01*
X133351645Y-119883076D01*
X132961358Y-119454817D01*
X132818447Y-119387702D01*
X133159147Y-119160054D01*
X133350000Y-118874422D01*
X133540853Y-119160054D01*
G36*
X138591099Y-111408401D02*
X140178599Y-112995901D01*
X140425161Y-113160648D01*
X140716000Y-113218500D01*
X140980000Y-113218500D01*
X140980000Y-113419250D01*
X141138750Y-113578000D01*
X142113000Y-113578000D01*
X142113000Y-113558000D01*
X142367000Y-113558000D01*
X142367000Y-113578000D01*
X142387000Y-113578000D01*
X142387000Y-113832000D01*
X142367000Y-113832000D01*
X142367000Y-113852000D01*
X142113000Y-113852000D01*
X142113000Y-113832000D01*
X141138750Y-113832000D01*
X140980000Y-113990750D01*
X140980000Y-114581309D01*
X141076673Y-114814698D01*
X141087577Y-114825602D01*
X140784833Y-114825338D01*
X140441057Y-114967383D01*
X140177808Y-115230173D01*
X140035162Y-115573701D01*
X140034891Y-115885274D01*
X138285638Y-117634526D01*
X138285662Y-117607333D01*
X138143617Y-117263557D01*
X138129429Y-117249344D01*
X138221838Y-117026799D01*
X138221960Y-116887018D01*
X138260443Y-116871117D01*
X138523692Y-116608327D01*
X138666338Y-116264799D01*
X138666502Y-116076713D01*
X138895443Y-115982117D01*
X139158692Y-115719327D01*
X139301338Y-115375799D01*
X139301662Y-115003833D01*
X139159617Y-114660057D01*
X139126500Y-114626882D01*
X139126500Y-113919000D01*
X139113143Y-113851852D01*
X139068648Y-113628160D01*
X138903901Y-113381599D01*
X138428000Y-112905698D01*
X138428000Y-111164305D01*
X138591099Y-111408401D01*
X138591099Y-111408401D01*
G37*
X138591099Y-111408401D02*
X140178599Y-112995901D01*
X140425161Y-113160648D01*
X140716000Y-113218500D01*
X140980000Y-113218500D01*
X140980000Y-113419250D01*
X141138750Y-113578000D01*
X142113000Y-113578000D01*
X142113000Y-113558000D01*
X142367000Y-113558000D01*
X142367000Y-113578000D01*
X142387000Y-113578000D01*
X142387000Y-113832000D01*
X142367000Y-113832000D01*
X142367000Y-113852000D01*
X142113000Y-113852000D01*
X142113000Y-113832000D01*
X141138750Y-113832000D01*
X140980000Y-113990750D01*
X140980000Y-114581309D01*
X141076673Y-114814698D01*
X141087577Y-114825602D01*
X140784833Y-114825338D01*
X140441057Y-114967383D01*
X140177808Y-115230173D01*
X140035162Y-115573701D01*
X140034891Y-115885274D01*
X138285638Y-117634526D01*
X138285662Y-117607333D01*
X138143617Y-117263557D01*
X138129429Y-117249344D01*
X138221838Y-117026799D01*
X138221960Y-116887018D01*
X138260443Y-116871117D01*
X138523692Y-116608327D01*
X138666338Y-116264799D01*
X138666502Y-116076713D01*
X138895443Y-115982117D01*
X139158692Y-115719327D01*
X139301338Y-115375799D01*
X139301662Y-115003833D01*
X139159617Y-114660057D01*
X139126500Y-114626882D01*
X139126500Y-113919000D01*
X139113143Y-113851852D01*
X139068648Y-113628160D01*
X138903901Y-113381599D01*
X138428000Y-112905698D01*
X138428000Y-111164305D01*
X138591099Y-111408401D01*
G36*
X175652560Y-104990000D02*
X175696838Y-105225317D01*
X175817015Y-105412077D01*
X175703569Y-105578110D01*
X175652560Y-105830000D01*
X175652560Y-105943707D01*
X175394582Y-106116082D01*
X174950082Y-106560582D01*
X174777206Y-106819310D01*
X174716500Y-107124500D01*
X174754000Y-107313025D01*
X174754000Y-108460697D01*
X173691040Y-109523657D01*
X173929707Y-108897266D01*
X173908786Y-108167557D01*
X173669788Y-107590565D01*
X173382175Y-107467430D01*
X172264605Y-108585000D01*
X172278748Y-108599143D01*
X172099143Y-108778748D01*
X172085000Y-108764605D01*
X170967430Y-109882175D01*
X171090565Y-110169788D01*
X171772734Y-110429707D01*
X172502443Y-110408786D01*
X173020496Y-110194201D01*
X172262820Y-110951878D01*
X172217333Y-110951838D01*
X171873557Y-111093883D01*
X171610308Y-111356673D01*
X171467662Y-111700201D01*
X171467338Y-112072167D01*
X171609383Y-112415943D01*
X171872173Y-112679192D01*
X171964368Y-112717475D01*
X171912162Y-112843201D01*
X171911838Y-113215167D01*
X172053883Y-113558943D01*
X172316673Y-113822192D01*
X172660201Y-113964838D01*
X173026768Y-113965157D01*
X172991662Y-114049701D01*
X172991608Y-114111500D01*
X170043963Y-114111500D01*
X170011827Y-114079308D01*
X169668299Y-113936662D01*
X169296333Y-113936338D01*
X168952557Y-114078383D01*
X168938344Y-114092571D01*
X168715799Y-114000162D01*
X168343833Y-113999838D01*
X168052457Y-114120232D01*
X167763299Y-114000162D01*
X167391333Y-113999838D01*
X167055135Y-114138752D01*
X166874299Y-114063662D01*
X166502333Y-114063338D01*
X166278294Y-114155909D01*
X166201827Y-114079308D01*
X165858299Y-113936662D01*
X165540500Y-113936385D01*
X165540500Y-108533250D01*
X166888000Y-108533250D01*
X166888000Y-109123809D01*
X166984673Y-109357198D01*
X167163301Y-109535827D01*
X167396690Y-109632500D01*
X167862250Y-109632500D01*
X168021000Y-109473750D01*
X168021000Y-108374500D01*
X168275000Y-108374500D01*
X168275000Y-109473750D01*
X168433750Y-109632500D01*
X168899310Y-109632500D01*
X169132699Y-109535827D01*
X169311327Y-109357198D01*
X169408000Y-109123809D01*
X169408000Y-108533250D01*
X169249250Y-108374500D01*
X168275000Y-108374500D01*
X168021000Y-108374500D01*
X167046750Y-108374500D01*
X166888000Y-108533250D01*
X165540500Y-108533250D01*
X165540500Y-108272734D01*
X170240293Y-108272734D01*
X170261214Y-109002443D01*
X170500212Y-109579435D01*
X170787825Y-109702570D01*
X171905395Y-108585000D01*
X170787825Y-107467430D01*
X170500212Y-107590565D01*
X170240293Y-108272734D01*
X165540500Y-108272734D01*
X165540500Y-105660000D01*
X166875560Y-105660000D01*
X166875560Y-106497500D01*
X166919838Y-106732817D01*
X167058910Y-106948941D01*
X167127006Y-106995469D01*
X166984673Y-107137802D01*
X166888000Y-107371191D01*
X166888000Y-107961750D01*
X167046750Y-108120500D01*
X168021000Y-108120500D01*
X168021000Y-108100500D01*
X168275000Y-108100500D01*
X168275000Y-108120500D01*
X169249250Y-108120500D01*
X169408000Y-107961750D01*
X169408000Y-107371191D01*
X169311327Y-107137802D01*
X169170090Y-106996564D01*
X169224441Y-106961590D01*
X169369431Y-106749390D01*
X169420440Y-106497500D01*
X169420440Y-105660000D01*
X170237560Y-105660000D01*
X170237560Y-106285000D01*
X170281838Y-106520317D01*
X170420910Y-106736441D01*
X170633110Y-106881431D01*
X170885000Y-106932440D01*
X171254181Y-106932440D01*
X171090565Y-107000212D01*
X170967430Y-107287825D01*
X172085000Y-108405395D01*
X173202570Y-107287825D01*
X173079435Y-107000212D01*
X172901564Y-106932440D01*
X173285000Y-106932440D01*
X173520317Y-106888162D01*
X173736441Y-106749090D01*
X173881431Y-106536890D01*
X173932440Y-106285000D01*
X173932440Y-104644000D01*
X175652560Y-104644000D01*
X175652560Y-104990000D01*
X175652560Y-104990000D01*
G37*
X175652560Y-104990000D02*
X175696838Y-105225317D01*
X175817015Y-105412077D01*
X175703569Y-105578110D01*
X175652560Y-105830000D01*
X175652560Y-105943707D01*
X175394582Y-106116082D01*
X174950082Y-106560582D01*
X174777206Y-106819310D01*
X174716500Y-107124500D01*
X174754000Y-107313025D01*
X174754000Y-108460697D01*
X173691040Y-109523657D01*
X173929707Y-108897266D01*
X173908786Y-108167557D01*
X173669788Y-107590565D01*
X173382175Y-107467430D01*
X172264605Y-108585000D01*
X172278748Y-108599143D01*
X172099143Y-108778748D01*
X172085000Y-108764605D01*
X170967430Y-109882175D01*
X171090565Y-110169788D01*
X171772734Y-110429707D01*
X172502443Y-110408786D01*
X173020496Y-110194201D01*
X172262820Y-110951878D01*
X172217333Y-110951838D01*
X171873557Y-111093883D01*
X171610308Y-111356673D01*
X171467662Y-111700201D01*
X171467338Y-112072167D01*
X171609383Y-112415943D01*
X171872173Y-112679192D01*
X171964368Y-112717475D01*
X171912162Y-112843201D01*
X171911838Y-113215167D01*
X172053883Y-113558943D01*
X172316673Y-113822192D01*
X172660201Y-113964838D01*
X173026768Y-113965157D01*
X172991662Y-114049701D01*
X172991608Y-114111500D01*
X170043963Y-114111500D01*
X170011827Y-114079308D01*
X169668299Y-113936662D01*
X169296333Y-113936338D01*
X168952557Y-114078383D01*
X168938344Y-114092571D01*
X168715799Y-114000162D01*
X168343833Y-113999838D01*
X168052457Y-114120232D01*
X167763299Y-114000162D01*
X167391333Y-113999838D01*
X167055135Y-114138752D01*
X166874299Y-114063662D01*
X166502333Y-114063338D01*
X166278294Y-114155909D01*
X166201827Y-114079308D01*
X165858299Y-113936662D01*
X165540500Y-113936385D01*
X165540500Y-108533250D01*
X166888000Y-108533250D01*
X166888000Y-109123809D01*
X166984673Y-109357198D01*
X167163301Y-109535827D01*
X167396690Y-109632500D01*
X167862250Y-109632500D01*
X168021000Y-109473750D01*
X168021000Y-108374500D01*
X168275000Y-108374500D01*
X168275000Y-109473750D01*
X168433750Y-109632500D01*
X168899310Y-109632500D01*
X169132699Y-109535827D01*
X169311327Y-109357198D01*
X169408000Y-109123809D01*
X169408000Y-108533250D01*
X169249250Y-108374500D01*
X168275000Y-108374500D01*
X168021000Y-108374500D01*
X167046750Y-108374500D01*
X166888000Y-108533250D01*
X165540500Y-108533250D01*
X165540500Y-108272734D01*
X170240293Y-108272734D01*
X170261214Y-109002443D01*
X170500212Y-109579435D01*
X170787825Y-109702570D01*
X171905395Y-108585000D01*
X170787825Y-107467430D01*
X170500212Y-107590565D01*
X170240293Y-108272734D01*
X165540500Y-108272734D01*
X165540500Y-105660000D01*
X166875560Y-105660000D01*
X166875560Y-106497500D01*
X166919838Y-106732817D01*
X167058910Y-106948941D01*
X167127006Y-106995469D01*
X166984673Y-107137802D01*
X166888000Y-107371191D01*
X166888000Y-107961750D01*
X167046750Y-108120500D01*
X168021000Y-108120500D01*
X168021000Y-108100500D01*
X168275000Y-108100500D01*
X168275000Y-108120500D01*
X169249250Y-108120500D01*
X169408000Y-107961750D01*
X169408000Y-107371191D01*
X169311327Y-107137802D01*
X169170090Y-106996564D01*
X169224441Y-106961590D01*
X169369431Y-106749390D01*
X169420440Y-106497500D01*
X169420440Y-105660000D01*
X170237560Y-105660000D01*
X170237560Y-106285000D01*
X170281838Y-106520317D01*
X170420910Y-106736441D01*
X170633110Y-106881431D01*
X170885000Y-106932440D01*
X171254181Y-106932440D01*
X171090565Y-107000212D01*
X170967430Y-107287825D01*
X172085000Y-108405395D01*
X173202570Y-107287825D01*
X173079435Y-107000212D01*
X172901564Y-106932440D01*
X173285000Y-106932440D01*
X173520317Y-106888162D01*
X173736441Y-106749090D01*
X173881431Y-106536890D01*
X173932440Y-106285000D01*
X173932440Y-104644000D01*
X175652560Y-104644000D01*
X175652560Y-104990000D01*
G36*
X134747000Y-112903000D02*
X134767000Y-112903000D01*
X134767000Y-113157000D01*
X134747000Y-113157000D01*
X134747000Y-113177000D01*
X134493000Y-113177000D01*
X134493000Y-113157000D01*
X134473000Y-113157000D01*
X134473000Y-112903000D01*
X134493000Y-112903000D01*
X134493000Y-112883000D01*
X134747000Y-112883000D01*
X134747000Y-112903000D01*
X134747000Y-112903000D01*
G37*
X134747000Y-112903000D02*
X134767000Y-112903000D01*
X134767000Y-113157000D01*
X134747000Y-113157000D01*
X134747000Y-113177000D01*
X134493000Y-113177000D01*
X134493000Y-113157000D01*
X134473000Y-113157000D01*
X134473000Y-112903000D01*
X134493000Y-112903000D01*
X134493000Y-112883000D01*
X134747000Y-112883000D01*
X134747000Y-112903000D01*
G36*
X134747000Y-110363000D02*
X134767000Y-110363000D01*
X134767000Y-110617000D01*
X134747000Y-110617000D01*
X134747000Y-110637000D01*
X134493000Y-110637000D01*
X134493000Y-110617000D01*
X134473000Y-110617000D01*
X134473000Y-110363000D01*
X134493000Y-110363000D01*
X134493000Y-110343000D01*
X134747000Y-110343000D01*
X134747000Y-110363000D01*
X134747000Y-110363000D01*
G37*
X134747000Y-110363000D02*
X134767000Y-110363000D01*
X134767000Y-110617000D01*
X134747000Y-110617000D01*
X134747000Y-110637000D01*
X134493000Y-110637000D01*
X134493000Y-110617000D01*
X134473000Y-110617000D01*
X134473000Y-110363000D01*
X134493000Y-110363000D01*
X134493000Y-110343000D01*
X134747000Y-110343000D01*
X134747000Y-110363000D01*
G36*
X163388748Y-108260858D02*
X163374605Y-108275000D01*
X163388748Y-108289143D01*
X163209142Y-108468748D01*
X163195000Y-108454605D01*
X163180858Y-108468748D01*
X163001252Y-108289142D01*
X163015395Y-108275000D01*
X163001252Y-108260858D01*
X163180858Y-108081252D01*
X163195000Y-108095395D01*
X163209142Y-108081252D01*
X163388748Y-108260858D01*
X163388748Y-108260858D01*
G37*
X163388748Y-108260858D02*
X163374605Y-108275000D01*
X163388748Y-108289143D01*
X163209142Y-108468748D01*
X163195000Y-108454605D01*
X163180858Y-108468748D01*
X163001252Y-108289142D01*
X163015395Y-108275000D01*
X163001252Y-108260858D01*
X163180858Y-108081252D01*
X163195000Y-108095395D01*
X163209142Y-108081252D01*
X163388748Y-108260858D01*
G36*
X134747000Y-107823000D02*
X134767000Y-107823000D01*
X134767000Y-108077000D01*
X134747000Y-108077000D01*
X134747000Y-108097000D01*
X134493000Y-108097000D01*
X134493000Y-108077000D01*
X134473000Y-108077000D01*
X134473000Y-107823000D01*
X134493000Y-107823000D01*
X134493000Y-107803000D01*
X134747000Y-107803000D01*
X134747000Y-107823000D01*
X134747000Y-107823000D01*
G37*
X134747000Y-107823000D02*
X134767000Y-107823000D01*
X134767000Y-108077000D01*
X134747000Y-108077000D01*
X134747000Y-108097000D01*
X134493000Y-108097000D01*
X134493000Y-108077000D01*
X134473000Y-108077000D01*
X134473000Y-107823000D01*
X134493000Y-107823000D01*
X134493000Y-107803000D01*
X134747000Y-107803000D01*
X134747000Y-107823000D01*
G36*
X134747000Y-105283000D02*
X134767000Y-105283000D01*
X134767000Y-105537000D01*
X134747000Y-105537000D01*
X134747000Y-105557000D01*
X134493000Y-105557000D01*
X134493000Y-105537000D01*
X134473000Y-105537000D01*
X134473000Y-105283000D01*
X134493000Y-105283000D01*
X134493000Y-105263000D01*
X134747000Y-105263000D01*
X134747000Y-105283000D01*
X134747000Y-105283000D01*
G37*
X134747000Y-105283000D02*
X134767000Y-105283000D01*
X134767000Y-105537000D01*
X134747000Y-105537000D01*
X134747000Y-105557000D01*
X134493000Y-105557000D01*
X134493000Y-105537000D01*
X134473000Y-105537000D01*
X134473000Y-105283000D01*
X134493000Y-105283000D01*
X134493000Y-105263000D01*
X134747000Y-105263000D01*
X134747000Y-105283000D01*
G36*
X145861500Y-105035698D02*
X144651000Y-103825198D01*
X144651000Y-100263802D01*
X145024304Y-99890498D01*
X145348285Y-99826054D01*
X145830054Y-99504147D01*
X145861500Y-99457085D01*
X145861500Y-105035698D01*
X145861500Y-105035698D01*
G37*
X145861500Y-105035698D02*
X144651000Y-103825198D01*
X144651000Y-100263802D01*
X145024304Y-99890498D01*
X145348285Y-99826054D01*
X145830054Y-99504147D01*
X145861500Y-99457085D01*
X145861500Y-105035698D01*
G36*
X136393076Y-97156645D02*
X136393101Y-97156655D01*
X136109946Y-97345853D01*
X135788039Y-97827622D01*
X135675000Y-98395907D01*
X135675000Y-98454093D01*
X135788039Y-99022378D01*
X136109946Y-99504147D01*
X136400000Y-99697954D01*
X136400000Y-104013000D01*
X136433198Y-104179896D01*
X135890968Y-103637666D01*
X135891645Y-103636924D01*
X136061476Y-103226890D01*
X135940155Y-102997000D01*
X134747000Y-102997000D01*
X134747000Y-103017000D01*
X134493000Y-103017000D01*
X134493000Y-102997000D01*
X134473000Y-102997000D01*
X134473000Y-102743000D01*
X134493000Y-102743000D01*
X134493000Y-100457000D01*
X134747000Y-100457000D01*
X134747000Y-102743000D01*
X135940155Y-102743000D01*
X136061476Y-102513110D01*
X135891645Y-102103076D01*
X135501358Y-101674817D01*
X135342046Y-101600000D01*
X135501358Y-101525183D01*
X135891645Y-101096924D01*
X136061476Y-100686890D01*
X135940155Y-100457000D01*
X134747000Y-100457000D01*
X134493000Y-100457000D01*
X134473000Y-100457000D01*
X134473000Y-100203000D01*
X134493000Y-100203000D01*
X134493000Y-99009181D01*
X134747000Y-99009181D01*
X134747000Y-100203000D01*
X135940155Y-100203000D01*
X136061476Y-99973110D01*
X135891645Y-99563076D01*
X135501358Y-99134817D01*
X134976892Y-98888514D01*
X134747000Y-99009181D01*
X134493000Y-99009181D01*
X134263108Y-98888514D01*
X133738642Y-99134817D01*
X133551192Y-99340504D01*
X133533162Y-99244683D01*
X133394090Y-99028559D01*
X133181890Y-98883569D01*
X132930000Y-98832560D01*
X131406532Y-98832560D01*
X131739092Y-98500000D01*
X134620000Y-98500000D01*
X134891705Y-98445954D01*
X135122046Y-98292046D01*
X135757046Y-97657046D01*
X135910954Y-97426705D01*
X135965001Y-97155000D01*
X135965000Y-97154995D01*
X135965000Y-96766525D01*
X136393076Y-97156645D01*
X136393076Y-97156645D01*
G37*
X136393076Y-97156645D02*
X136393101Y-97156655D01*
X136109946Y-97345853D01*
X135788039Y-97827622D01*
X135675000Y-98395907D01*
X135675000Y-98454093D01*
X135788039Y-99022378D01*
X136109946Y-99504147D01*
X136400000Y-99697954D01*
X136400000Y-104013000D01*
X136433198Y-104179896D01*
X135890968Y-103637666D01*
X135891645Y-103636924D01*
X136061476Y-103226890D01*
X135940155Y-102997000D01*
X134747000Y-102997000D01*
X134747000Y-103017000D01*
X134493000Y-103017000D01*
X134493000Y-102997000D01*
X134473000Y-102997000D01*
X134473000Y-102743000D01*
X134493000Y-102743000D01*
X134493000Y-100457000D01*
X134747000Y-100457000D01*
X134747000Y-102743000D01*
X135940155Y-102743000D01*
X136061476Y-102513110D01*
X135891645Y-102103076D01*
X135501358Y-101674817D01*
X135342046Y-101600000D01*
X135501358Y-101525183D01*
X135891645Y-101096924D01*
X136061476Y-100686890D01*
X135940155Y-100457000D01*
X134747000Y-100457000D01*
X134493000Y-100457000D01*
X134473000Y-100457000D01*
X134473000Y-100203000D01*
X134493000Y-100203000D01*
X134493000Y-99009181D01*
X134747000Y-99009181D01*
X134747000Y-100203000D01*
X135940155Y-100203000D01*
X136061476Y-99973110D01*
X135891645Y-99563076D01*
X135501358Y-99134817D01*
X134976892Y-98888514D01*
X134747000Y-99009181D01*
X134493000Y-99009181D01*
X134263108Y-98888514D01*
X133738642Y-99134817D01*
X133551192Y-99340504D01*
X133533162Y-99244683D01*
X133394090Y-99028559D01*
X133181890Y-98883569D01*
X132930000Y-98832560D01*
X131406532Y-98832560D01*
X131739092Y-98500000D01*
X134620000Y-98500000D01*
X134891705Y-98445954D01*
X135122046Y-98292046D01*
X135757046Y-97657046D01*
X135910954Y-97426705D01*
X135965001Y-97155000D01*
X135965000Y-97154995D01*
X135965000Y-96766525D01*
X136393076Y-97156645D01*
G36*
X174579162Y-101159201D02*
X174578838Y-101531167D01*
X174720883Y-101874943D01*
X174983673Y-102138192D01*
X175327201Y-102280838D01*
X175379133Y-102280883D01*
X175456532Y-102332599D01*
X175462810Y-102336794D01*
X175652560Y-102374538D01*
X175652560Y-102450000D01*
X175696838Y-102685317D01*
X175817015Y-102872077D01*
X175815701Y-102874000D01*
X173411005Y-102874000D01*
X173411000Y-102873999D01*
X173072325Y-102941367D01*
X172785210Y-103133210D01*
X172785208Y-103133213D01*
X172680861Y-103237560D01*
X170885000Y-103237560D01*
X170649683Y-103281838D01*
X170433559Y-103420910D01*
X170288569Y-103633110D01*
X170237560Y-103885000D01*
X170237560Y-103890000D01*
X168084505Y-103890000D01*
X168084500Y-103889999D01*
X168084495Y-103890000D01*
X164626446Y-103890000D01*
X164598162Y-103739683D01*
X164459090Y-103523559D01*
X164246890Y-103378569D01*
X163995000Y-103327560D01*
X162431000Y-103327560D01*
X162431000Y-102295802D01*
X162557302Y-102169500D01*
X169291000Y-102169500D01*
X169581839Y-102111648D01*
X169828401Y-101946901D01*
X170812302Y-100963000D01*
X174660632Y-100963000D01*
X174579162Y-101159201D01*
X174579162Y-101159201D01*
G37*
X174579162Y-101159201D02*
X174578838Y-101531167D01*
X174720883Y-101874943D01*
X174983673Y-102138192D01*
X175327201Y-102280838D01*
X175379133Y-102280883D01*
X175456532Y-102332599D01*
X175462810Y-102336794D01*
X175652560Y-102374538D01*
X175652560Y-102450000D01*
X175696838Y-102685317D01*
X175817015Y-102872077D01*
X175815701Y-102874000D01*
X173411005Y-102874000D01*
X173411000Y-102873999D01*
X173072325Y-102941367D01*
X172785210Y-103133210D01*
X172785208Y-103133213D01*
X172680861Y-103237560D01*
X170885000Y-103237560D01*
X170649683Y-103281838D01*
X170433559Y-103420910D01*
X170288569Y-103633110D01*
X170237560Y-103885000D01*
X170237560Y-103890000D01*
X168084505Y-103890000D01*
X168084500Y-103889999D01*
X168084495Y-103890000D01*
X164626446Y-103890000D01*
X164598162Y-103739683D01*
X164459090Y-103523559D01*
X164246890Y-103378569D01*
X163995000Y-103327560D01*
X162431000Y-103327560D01*
X162431000Y-102295802D01*
X162557302Y-102169500D01*
X169291000Y-102169500D01*
X169581839Y-102111648D01*
X169828401Y-101946901D01*
X170812302Y-100963000D01*
X174660632Y-100963000D01*
X174579162Y-101159201D01*
G36*
X146124817Y-96766358D02*
X146553076Y-97156645D01*
X146553101Y-97156655D01*
X146269946Y-97345853D01*
X146050000Y-97675026D01*
X145830054Y-97345853D01*
X145546899Y-97156655D01*
X145546924Y-97156645D01*
X145975183Y-96766358D01*
X146050000Y-96607046D01*
X146124817Y-96766358D01*
X146124817Y-96766358D01*
G37*
X146124817Y-96766358D02*
X146553076Y-97156645D01*
X146553101Y-97156655D01*
X146269946Y-97345853D01*
X146050000Y-97675026D01*
X145830054Y-97345853D01*
X145546899Y-97156655D01*
X145546924Y-97156645D01*
X145975183Y-96766358D01*
X146050000Y-96607046D01*
X146124817Y-96766358D01*
G36*
X137287000Y-95758000D02*
X139573000Y-95758000D01*
X139573000Y-95738000D01*
X139827000Y-95738000D01*
X139827000Y-95758000D01*
X142113000Y-95758000D01*
X142113000Y-95738000D01*
X142367000Y-95738000D01*
X142367000Y-95758000D01*
X144653000Y-95758000D01*
X144653000Y-95738000D01*
X144907000Y-95738000D01*
X144907000Y-95758000D01*
X147193000Y-95758000D01*
X147193000Y-95738000D01*
X147447000Y-95738000D01*
X147447000Y-95758000D01*
X149733000Y-95758000D01*
X149733000Y-95738000D01*
X149987000Y-95738000D01*
X149987000Y-95758000D01*
X152273000Y-95758000D01*
X152273000Y-95738000D01*
X152527000Y-95738000D01*
X152527000Y-95758000D01*
X154813000Y-95758000D01*
X154813000Y-95738000D01*
X155067000Y-95738000D01*
X155067000Y-95758000D01*
X157353000Y-95758000D01*
X157353000Y-95738000D01*
X157607000Y-95738000D01*
X157607000Y-95758000D01*
X159893000Y-95758000D01*
X159893000Y-95738000D01*
X160147000Y-95738000D01*
X160147000Y-95758000D01*
X162433000Y-95758000D01*
X162433000Y-95738000D01*
X162687000Y-95738000D01*
X162687000Y-95758000D01*
X164973000Y-95758000D01*
X164973000Y-95738000D01*
X165227000Y-95738000D01*
X165227000Y-95758000D01*
X167513000Y-95758000D01*
X167513000Y-95738000D01*
X167767000Y-95738000D01*
X167767000Y-95758000D01*
X170053000Y-95758000D01*
X170053000Y-95738000D01*
X170307000Y-95738000D01*
X170307000Y-95758000D01*
X172593000Y-95758000D01*
X172593000Y-95738000D01*
X172847000Y-95738000D01*
X172847000Y-95758000D01*
X175133000Y-95758000D01*
X175133000Y-95738000D01*
X175387000Y-95738000D01*
X175387000Y-95758000D01*
X177673000Y-95758000D01*
X177673000Y-95738000D01*
X177927000Y-95738000D01*
X177927000Y-95758000D01*
X177947000Y-95758000D01*
X177947000Y-96012000D01*
X177927000Y-96012000D01*
X177927000Y-96032000D01*
X177673000Y-96032000D01*
X177673000Y-96012000D01*
X175387000Y-96012000D01*
X175387000Y-96032000D01*
X175133000Y-96032000D01*
X175133000Y-96012000D01*
X172847000Y-96012000D01*
X172847000Y-96032000D01*
X172593000Y-96032000D01*
X172593000Y-96012000D01*
X170307000Y-96012000D01*
X170307000Y-96032000D01*
X170053000Y-96032000D01*
X170053000Y-96012000D01*
X167767000Y-96012000D01*
X167767000Y-96032000D01*
X167513000Y-96032000D01*
X167513000Y-96012000D01*
X165227000Y-96012000D01*
X165227000Y-96032000D01*
X164973000Y-96032000D01*
X164973000Y-96012000D01*
X162687000Y-96012000D01*
X162687000Y-96032000D01*
X162433000Y-96032000D01*
X162433000Y-96012000D01*
X160147000Y-96012000D01*
X160147000Y-96032000D01*
X159893000Y-96032000D01*
X159893000Y-96012000D01*
X157607000Y-96012000D01*
X157607000Y-96032000D01*
X157353000Y-96032000D01*
X157353000Y-96012000D01*
X155067000Y-96012000D01*
X155067000Y-96032000D01*
X154813000Y-96032000D01*
X154813000Y-96012000D01*
X152527000Y-96012000D01*
X152527000Y-96032000D01*
X152273000Y-96032000D01*
X152273000Y-96012000D01*
X149987000Y-96012000D01*
X149987000Y-96032000D01*
X149733000Y-96032000D01*
X149733000Y-96012000D01*
X147447000Y-96012000D01*
X147447000Y-96032000D01*
X147193000Y-96032000D01*
X147193000Y-96012000D01*
X144907000Y-96012000D01*
X144907000Y-96032000D01*
X144653000Y-96032000D01*
X144653000Y-96012000D01*
X142367000Y-96012000D01*
X142367000Y-96032000D01*
X142113000Y-96032000D01*
X142113000Y-96012000D01*
X139827000Y-96012000D01*
X139827000Y-96032000D01*
X139573000Y-96032000D01*
X139573000Y-96012000D01*
X137287000Y-96012000D01*
X137287000Y-96032000D01*
X137033000Y-96032000D01*
X137033000Y-96012000D01*
X137013000Y-96012000D01*
X137013000Y-95758000D01*
X137033000Y-95758000D01*
X137033000Y-95738000D01*
X137287000Y-95738000D01*
X137287000Y-95758000D01*
X137287000Y-95758000D01*
G37*
X137287000Y-95758000D02*
X139573000Y-95758000D01*
X139573000Y-95738000D01*
X139827000Y-95738000D01*
X139827000Y-95758000D01*
X142113000Y-95758000D01*
X142113000Y-95738000D01*
X142367000Y-95738000D01*
X142367000Y-95758000D01*
X144653000Y-95758000D01*
X144653000Y-95738000D01*
X144907000Y-95738000D01*
X144907000Y-95758000D01*
X147193000Y-95758000D01*
X147193000Y-95738000D01*
X147447000Y-95738000D01*
X147447000Y-95758000D01*
X149733000Y-95758000D01*
X149733000Y-95738000D01*
X149987000Y-95738000D01*
X149987000Y-95758000D01*
X152273000Y-95758000D01*
X152273000Y-95738000D01*
X152527000Y-95738000D01*
X152527000Y-95758000D01*
X154813000Y-95758000D01*
X154813000Y-95738000D01*
X155067000Y-95738000D01*
X155067000Y-95758000D01*
X157353000Y-95758000D01*
X157353000Y-95738000D01*
X157607000Y-95738000D01*
X157607000Y-95758000D01*
X159893000Y-95758000D01*
X159893000Y-95738000D01*
X160147000Y-95738000D01*
X160147000Y-95758000D01*
X162433000Y-95758000D01*
X162433000Y-95738000D01*
X162687000Y-95738000D01*
X162687000Y-95758000D01*
X164973000Y-95758000D01*
X164973000Y-95738000D01*
X165227000Y-95738000D01*
X165227000Y-95758000D01*
X167513000Y-95758000D01*
X167513000Y-95738000D01*
X167767000Y-95738000D01*
X167767000Y-95758000D01*
X170053000Y-95758000D01*
X170053000Y-95738000D01*
X170307000Y-95738000D01*
X170307000Y-95758000D01*
X172593000Y-95758000D01*
X172593000Y-95738000D01*
X172847000Y-95738000D01*
X172847000Y-95758000D01*
X175133000Y-95758000D01*
X175133000Y-95738000D01*
X175387000Y-95738000D01*
X175387000Y-95758000D01*
X177673000Y-95758000D01*
X177673000Y-95738000D01*
X177927000Y-95738000D01*
X177927000Y-95758000D01*
X177947000Y-95758000D01*
X177947000Y-96012000D01*
X177927000Y-96012000D01*
X177927000Y-96032000D01*
X177673000Y-96032000D01*
X177673000Y-96012000D01*
X175387000Y-96012000D01*
X175387000Y-96032000D01*
X175133000Y-96032000D01*
X175133000Y-96012000D01*
X172847000Y-96012000D01*
X172847000Y-96032000D01*
X172593000Y-96032000D01*
X172593000Y-96012000D01*
X170307000Y-96012000D01*
X170307000Y-96032000D01*
X170053000Y-96032000D01*
X170053000Y-96012000D01*
X167767000Y-96012000D01*
X167767000Y-96032000D01*
X167513000Y-96032000D01*
X167513000Y-96012000D01*
X165227000Y-96012000D01*
X165227000Y-96032000D01*
X164973000Y-96032000D01*
X164973000Y-96012000D01*
X162687000Y-96012000D01*
X162687000Y-96032000D01*
X162433000Y-96032000D01*
X162433000Y-96012000D01*
X160147000Y-96012000D01*
X160147000Y-96032000D01*
X159893000Y-96032000D01*
X159893000Y-96012000D01*
X157607000Y-96012000D01*
X157607000Y-96032000D01*
X157353000Y-96032000D01*
X157353000Y-96012000D01*
X155067000Y-96012000D01*
X155067000Y-96032000D01*
X154813000Y-96032000D01*
X154813000Y-96012000D01*
X152527000Y-96012000D01*
X152527000Y-96032000D01*
X152273000Y-96032000D01*
X152273000Y-96012000D01*
X149987000Y-96012000D01*
X149987000Y-96032000D01*
X149733000Y-96032000D01*
X149733000Y-96012000D01*
X147447000Y-96012000D01*
X147447000Y-96032000D01*
X147193000Y-96032000D01*
X147193000Y-96012000D01*
X144907000Y-96012000D01*
X144907000Y-96032000D01*
X144653000Y-96032000D01*
X144653000Y-96012000D01*
X142367000Y-96012000D01*
X142367000Y-96032000D01*
X142113000Y-96032000D01*
X142113000Y-96012000D01*
X139827000Y-96012000D01*
X139827000Y-96032000D01*
X139573000Y-96032000D01*
X139573000Y-96012000D01*
X137287000Y-96012000D01*
X137287000Y-96032000D01*
X137033000Y-96032000D01*
X137033000Y-96012000D01*
X137013000Y-96012000D01*
X137013000Y-95758000D01*
X137033000Y-95758000D01*
X137033000Y-95738000D01*
X137287000Y-95738000D01*
X137287000Y-95758000D01*
M02*
