M48
;DRILL file {KiCad 4.0.6} date Mon Aug 28 17:00:49 2017
;FORMAT={2:4/ absolute / inch / keep zeros}
FMAT,2
INCH,TZ
T1C0.016
T2C0.031
T3C0.039
T4C0.047
%
G90
G05
M72
T1
X052725Y-049175
X053500Y-045175
X054050Y-046000
X054075Y-046375
X054225Y-045700
X054475Y-045350
X055100Y-041225
X055125Y-039400
X055250Y-050050
X055400Y-041050
X055425Y-047800
X055450Y-045225
X055500Y-045575
X055525Y-044025
X055575Y-047250
X055600Y-046500
X055650Y-049725
X055850Y-048775
X055950Y-046250
X055950Y-046600
X056050Y-039400
X056225Y-048775
X056475Y-045575
X056675Y-042875
X057175Y-041075
X057450Y-045700
X057575Y-047750
X057925Y-047675
X057975Y-042975
X057975Y-044875
X058125Y-049250
X058125Y-050075
X058150Y-039625
X058150Y-040450
X058250Y-047725
X058450Y-046625
X058525Y-046200
X058575Y-044950
X058775Y-045900
X059075Y-044875
X059100Y-045650
X060175Y-043000
X060300Y-046100
X060300Y-046900
X060325Y-043550
X060350Y-044900
X060375Y-043925
X060400Y-044575
X060450Y-044250
X060500Y-043275
X061625Y-043650
X061800Y-043375
X062300Y-039875
X062575Y-040100
X062600Y-041275
X062700Y-040900
X062800Y-045225
X062800Y-045600
X062800Y-046000
X062925Y-040100
X062975Y-044700
X063150Y-045225
X063200Y-044425
X063350Y-039750
X064775Y-047425
X065225Y-045275
X065300Y-043000
X065600Y-047425
X065625Y-045275
X065975Y-045275
X066375Y-045275
X066750Y-045275
X067875Y-044050
X068050Y-044500
X068175Y-049475
X068475Y-044975
X068675Y-039725
X068675Y-040450
X068922Y-041628
X069100Y-039900
T2
X064250Y-041250
X064250Y-042628
T3
X052000Y-039500
X052000Y-040500
X052000Y-041500
X052000Y-042500
X052000Y-043500
X052000Y-044500
X052000Y-045500
X052000Y-046500
X052000Y-047500
X052000Y-048500
X053000Y-039500
X053000Y-040500
X053000Y-041500
X053000Y-042500
X053000Y-043500
X053000Y-044500
X053000Y-045500
X053000Y-046500
X053000Y-047500
X053000Y-048500
X054000Y-037750
X054000Y-038750
X055000Y-037750
X055000Y-038750
X056000Y-037750
X056000Y-038750
X056500Y-050750
X056500Y-051750
X057000Y-037750
X057000Y-038750
X057500Y-050750
X057500Y-051750
X058000Y-037750
X058000Y-038750
X058500Y-050750
X058500Y-051750
X059000Y-037750
X059000Y-038750
X059500Y-050750
X059500Y-051750
X060000Y-037750
X060000Y-038750
X060500Y-050750
X060500Y-051750
X061000Y-037750
X061000Y-038750
X061500Y-050750
X061500Y-051750
X062000Y-037750
X062000Y-038750
X062500Y-050750
X062500Y-051750
X063000Y-037750
X063000Y-038750
X063000Y-047250
X063500Y-050750
X063500Y-051750
X064000Y-037750
X064000Y-038750
X064000Y-047250
X064500Y-050750
X064500Y-051750
X065000Y-037750
X065000Y-038750
X065500Y-050750
X065500Y-051750
X066000Y-037750
X066000Y-038750
X066500Y-050750
X066500Y-051750
X067000Y-037750
X067000Y-038750
X067500Y-050750
X067500Y-051750
X068000Y-037750
X068000Y-038750
X068500Y-050750
X068500Y-051750
X069000Y-037750
X069000Y-038750
X070000Y-037750
X070000Y-038750
T4
X067750Y-041372
X067750Y-042750
T0
M30
