G04 #@! TF.FileFunction,Copper,L1,Top,Signal*
%FSLAX46Y46*%
G04 Gerber Fmt 4.6, Leading zero omitted, Abs format (unit mm)*
G04 Created by KiCad (PCBNEW 4.0.6) date Mon Aug 28 16:48:00 2017*
%MOMM*%
%LPD*%
G01*
G04 APERTURE LIST*
%ADD10C,0.100000*%
%ADD11C,2.400000*%
%ADD12R,2.400000X2.400000*%
%ADD13R,3.000000X1.700000*%
%ADD14R,1.250000X1.500000*%
%ADD15R,1.200000X0.750000*%
%ADD16R,1.600000X1.600000*%
%ADD17C,1.600000*%
%ADD18R,1.700000X1.700000*%
%ADD19O,1.700000X1.700000*%
%ADD20R,1.500000X0.300000*%
%ADD21R,0.300000X1.500000*%
%ADD22R,0.500000X0.800000*%
%ADD23R,0.400000X0.800000*%
%ADD24C,0.600000*%
%ADD25C,0.325000*%
%ADD26C,0.250000*%
%ADD27C,0.400000*%
%ADD28C,0.500000*%
%ADD29C,0.254000*%
G04 APERTURE END LIST*
D10*
D11*
X172085000Y-108585000D03*
D12*
X172085000Y-105085000D03*
D13*
X177800000Y-101600000D03*
X177800000Y-104140000D03*
X177800000Y-106680000D03*
X177800000Y-109220000D03*
X177800000Y-111760000D03*
X177800000Y-114300000D03*
X177800000Y-116840000D03*
X177800000Y-119380000D03*
X177800000Y-121920000D03*
X177800000Y-124460000D03*
X177800000Y-127000000D03*
D14*
X158115000Y-116185000D03*
X158115000Y-113685000D03*
D15*
X148270000Y-104775000D03*
X146370000Y-104775000D03*
D16*
X163195000Y-104775000D03*
D17*
X163195000Y-108275000D03*
D18*
X132080000Y-100330000D03*
D19*
X134620000Y-100330000D03*
X132080000Y-102870000D03*
X134620000Y-102870000D03*
X132080000Y-105410000D03*
X134620000Y-105410000D03*
X132080000Y-107950000D03*
X134620000Y-107950000D03*
X132080000Y-110490000D03*
X134620000Y-110490000D03*
X132080000Y-113030000D03*
X134620000Y-113030000D03*
X132080000Y-115570000D03*
X134620000Y-115570000D03*
X132080000Y-118110000D03*
X134620000Y-118110000D03*
X132080000Y-120650000D03*
X134620000Y-120650000D03*
X132080000Y-123190000D03*
X134620000Y-123190000D03*
D18*
X177800000Y-95885000D03*
D19*
X177800000Y-98425000D03*
X175260000Y-95885000D03*
X175260000Y-98425000D03*
X172720000Y-95885000D03*
X172720000Y-98425000D03*
X170180000Y-95885000D03*
X170180000Y-98425000D03*
X167640000Y-95885000D03*
X167640000Y-98425000D03*
X165100000Y-95885000D03*
X165100000Y-98425000D03*
X162560000Y-95885000D03*
X162560000Y-98425000D03*
X160020000Y-95885000D03*
X160020000Y-98425000D03*
X157480000Y-95885000D03*
X157480000Y-98425000D03*
X154940000Y-95885000D03*
X154940000Y-98425000D03*
X152400000Y-95885000D03*
X152400000Y-98425000D03*
X149860000Y-95885000D03*
X149860000Y-98425000D03*
X147320000Y-95885000D03*
X147320000Y-98425000D03*
X144780000Y-95885000D03*
X144780000Y-98425000D03*
X142240000Y-95885000D03*
X142240000Y-98425000D03*
X139700000Y-95885000D03*
X139700000Y-98425000D03*
X137160000Y-95885000D03*
X137160000Y-98425000D03*
D18*
X162560000Y-120015000D03*
D19*
X160020000Y-120015000D03*
D20*
X139620000Y-109015000D03*
X139620000Y-109515000D03*
X139620000Y-110015000D03*
X139620000Y-110515000D03*
X139620000Y-111015000D03*
X139620000Y-111515000D03*
X139620000Y-112015000D03*
X139620000Y-112515000D03*
X139620000Y-113015000D03*
X139620000Y-113515000D03*
X139620000Y-114015000D03*
X139620000Y-114515000D03*
X139620000Y-115015000D03*
X139620000Y-115515000D03*
X139620000Y-116015000D03*
X139620000Y-116515000D03*
X139620000Y-117015000D03*
X139620000Y-117515000D03*
X139620000Y-118015000D03*
X139620000Y-118515000D03*
X139620000Y-119015000D03*
X139620000Y-119515000D03*
X139620000Y-120015000D03*
X139620000Y-120515000D03*
X139620000Y-121015000D03*
D21*
X141320000Y-122715000D03*
X141820000Y-122715000D03*
X142320000Y-122715000D03*
X142820000Y-122715000D03*
X143320000Y-122715000D03*
X143820000Y-122715000D03*
X144320000Y-122715000D03*
X144820000Y-122715000D03*
X145320000Y-122715000D03*
X145820000Y-122715000D03*
X146320000Y-122715000D03*
X146820000Y-122715000D03*
X147320000Y-122715000D03*
X147820000Y-122715000D03*
X148320000Y-122715000D03*
X148820000Y-122715000D03*
X149320000Y-122715000D03*
X149820000Y-122715000D03*
X150320000Y-122715000D03*
X150820000Y-122715000D03*
X151320000Y-122715000D03*
X151820000Y-122715000D03*
X152320000Y-122715000D03*
X152820000Y-122715000D03*
X153320000Y-122715000D03*
D20*
X155020000Y-121015000D03*
X155020000Y-120515000D03*
X155020000Y-120015000D03*
X155020000Y-119515000D03*
X155020000Y-119015000D03*
X155020000Y-118515000D03*
X155020000Y-118015000D03*
X155020000Y-117515000D03*
X155020000Y-117015000D03*
X155020000Y-116515000D03*
X155020000Y-116015000D03*
X155020000Y-115515000D03*
X155020000Y-115015000D03*
X155020000Y-114515000D03*
X155020000Y-114015000D03*
X155020000Y-113515000D03*
X155020000Y-113015000D03*
X155020000Y-112515000D03*
X155020000Y-112015000D03*
X155020000Y-111515000D03*
X155020000Y-111015000D03*
X155020000Y-110515000D03*
X155020000Y-110015000D03*
X155020000Y-109515000D03*
X155020000Y-109015000D03*
D21*
X153320000Y-107315000D03*
X152820000Y-107315000D03*
X152320000Y-107315000D03*
X151820000Y-107315000D03*
X151320000Y-107315000D03*
X150820000Y-107315000D03*
X150320000Y-107315000D03*
X149820000Y-107315000D03*
X149320000Y-107315000D03*
X148820000Y-107315000D03*
X148320000Y-107315000D03*
X147820000Y-107315000D03*
X147320000Y-107315000D03*
X146820000Y-107315000D03*
X146320000Y-107315000D03*
X145820000Y-107315000D03*
X145320000Y-107315000D03*
X144820000Y-107315000D03*
X144320000Y-107315000D03*
X143820000Y-107315000D03*
X143320000Y-107315000D03*
X142820000Y-107315000D03*
X142320000Y-107315000D03*
X141820000Y-107315000D03*
X141320000Y-107315000D03*
D18*
X173990000Y-128905000D03*
D19*
X173990000Y-131445000D03*
X171450000Y-128905000D03*
X171450000Y-131445000D03*
X168910000Y-128905000D03*
X168910000Y-131445000D03*
X166370000Y-128905000D03*
X166370000Y-131445000D03*
X163830000Y-128905000D03*
X163830000Y-131445000D03*
X161290000Y-128905000D03*
X161290000Y-131445000D03*
X158750000Y-128905000D03*
X158750000Y-131445000D03*
X156210000Y-128905000D03*
X156210000Y-131445000D03*
X153670000Y-128905000D03*
X153670000Y-131445000D03*
X151130000Y-128905000D03*
X151130000Y-131445000D03*
X148590000Y-128905000D03*
X148590000Y-131445000D03*
X146050000Y-128905000D03*
X146050000Y-131445000D03*
X143510000Y-128905000D03*
X143510000Y-131445000D03*
D22*
X139770000Y-103135000D03*
D23*
X141370000Y-103135000D03*
X140570000Y-103135000D03*
D22*
X142170000Y-103135000D03*
D23*
X140570000Y-101335000D03*
D22*
X139770000Y-101335000D03*
D23*
X141370000Y-101335000D03*
D22*
X142170000Y-101335000D03*
D24*
X140017500Y-100076000D03*
X147701000Y-100647500D03*
X147256500Y-113982500D03*
X140335000Y-127127000D03*
X143446500Y-115760500D03*
X142367000Y-100076000D03*
X147701000Y-102743000D03*
X147256500Y-109156500D03*
X147955000Y-121221500D03*
X140970000Y-115760500D03*
X174434500Y-100901500D03*
X174434500Y-102743000D03*
X165862000Y-109220000D03*
X175062000Y-105735000D03*
X147637500Y-127190500D03*
X164528500Y-120459500D03*
X166624000Y-120459500D03*
X133921500Y-124904500D03*
X147637500Y-125095000D03*
X145224500Y-104330500D03*
X147129500Y-121094500D03*
X140843000Y-114871500D03*
X141351000Y-126301500D03*
X173164500Y-125666500D03*
X138366500Y-115189000D03*
X137731500Y-116078000D03*
X137287000Y-116840000D03*
X137350500Y-117792500D03*
X135890000Y-114744500D03*
X142113000Y-117475000D03*
X141224000Y-118110000D03*
X172402500Y-111887000D03*
X172847000Y-113030000D03*
X173926500Y-114236500D03*
X169545000Y-114998500D03*
X168592500Y-114998500D03*
X167576500Y-114998500D03*
X166687500Y-114998500D03*
X165671500Y-114998500D03*
X158940500Y-101854000D03*
X159258000Y-103886000D03*
X159004000Y-104838500D03*
X158242000Y-101282500D03*
X160528000Y-112839500D03*
X153670000Y-109918500D03*
X159956500Y-113538000D03*
X153225500Y-110617000D03*
X160401000Y-114871500D03*
X153352500Y-111569500D03*
X159512000Y-114871500D03*
X153543000Y-112395000D03*
X159512000Y-115824000D03*
X153416000Y-113220500D03*
X159512000Y-116840000D03*
X153289000Y-114046000D03*
X175514000Y-101346000D03*
X148463000Y-118427500D03*
X148653500Y-117348000D03*
X149288500Y-116586000D03*
X160909000Y-100965000D03*
X156527500Y-110871000D03*
X150114000Y-115951000D03*
X159829500Y-101854000D03*
X156972000Y-110172500D03*
X142811500Y-123888500D03*
X150050500Y-113982500D03*
X141859000Y-123888500D03*
X148780500Y-114173000D03*
X140779500Y-121412000D03*
X145923000Y-116078000D03*
X141160500Y-120015000D03*
X141033500Y-111823500D03*
X142113000Y-118364000D03*
X152844500Y-109220000D03*
X140716000Y-104267000D03*
X143954500Y-108902500D03*
X153162000Y-117094000D03*
X153162000Y-119126000D03*
X139954000Y-104711500D03*
X146240500Y-121285000D03*
D25*
X140335000Y-127127000D02*
X139763500Y-127127000D01*
X139763500Y-127127000D02*
X136779000Y-124142500D01*
X136779000Y-124142500D02*
X136779000Y-122110500D01*
X136779000Y-122110500D02*
X135318500Y-120650000D01*
X135318500Y-120650000D02*
X134620000Y-120650000D01*
D26*
X140017500Y-100076000D02*
X140017500Y-100139500D01*
X140017500Y-100139500D02*
X140589000Y-100711000D01*
X140017500Y-100076000D02*
X139770000Y-100323500D01*
X139770000Y-100323500D02*
X139770000Y-101335000D01*
X147701000Y-100647500D02*
X147637500Y-100711000D01*
X147637500Y-100711000D02*
X143192500Y-100711000D01*
X143192500Y-100711000D02*
X142557500Y-100076000D01*
X142557500Y-100076000D02*
X142367000Y-100076000D01*
X147256500Y-113982500D02*
X146431000Y-114808000D01*
X146431000Y-114808000D02*
X144399000Y-114808000D01*
X144399000Y-114808000D02*
X143446500Y-115760500D01*
X140589000Y-100711000D02*
X141097000Y-100711000D01*
X141097000Y-100711000D02*
X141370000Y-100984000D01*
X141370000Y-100984000D02*
X141370000Y-101335000D01*
X140570000Y-101335000D02*
X140570000Y-100730000D01*
X140570000Y-100730000D02*
X140589000Y-100711000D01*
X148270000Y-104775000D02*
X148270000Y-103312000D01*
X148270000Y-103312000D02*
X147701000Y-102743000D01*
X147256500Y-109156500D02*
X147320000Y-109093000D01*
X147320000Y-109093000D02*
X147320000Y-107315000D01*
X154098000Y-115015000D02*
X147955000Y-121158000D01*
X147955000Y-121158000D02*
X147955000Y-121221500D01*
X155020000Y-115015000D02*
X154098000Y-115015000D01*
X147820000Y-122715000D02*
X147820000Y-121356500D01*
X147820000Y-121356500D02*
X147955000Y-121221500D01*
X147320000Y-107315000D02*
X147320000Y-105725000D01*
X147320000Y-105725000D02*
X148270000Y-104775000D01*
X139620000Y-115515000D02*
X140724500Y-115515000D01*
X140724500Y-115515000D02*
X140970000Y-115760500D01*
X155020000Y-115015000D02*
X156945000Y-115015000D01*
X156945000Y-115015000D02*
X158115000Y-116185000D01*
X146820000Y-106100500D02*
X146820000Y-107315000D01*
D25*
X146820000Y-105225000D02*
X146820000Y-106100500D01*
D26*
X156298000Y-114515000D02*
X155020000Y-114515000D01*
D25*
X157285000Y-114515000D02*
X156298000Y-114515000D01*
X146820000Y-105225000D02*
X146370000Y-104775000D01*
X157285000Y-114515000D02*
X158115000Y-113685000D01*
D27*
X176403000Y-104140000D02*
X175958500Y-104584500D01*
X175958500Y-104584500D02*
X175062000Y-105481000D01*
D28*
X174434500Y-103060500D02*
X175958500Y-104584500D01*
X174434500Y-102743000D02*
X174434500Y-103060500D01*
D25*
X171450000Y-99631500D02*
X171450000Y-97155000D01*
X171450000Y-97155000D02*
X170180000Y-95885000D01*
X172720000Y-100901500D02*
X171450000Y-99631500D01*
X174434500Y-100901500D02*
X172720000Y-100901500D01*
X174434500Y-100901500D02*
X174434500Y-99695000D01*
X174434500Y-99695000D02*
X173990000Y-99250500D01*
X173990000Y-97155000D02*
X175260000Y-95885000D01*
X173990000Y-99250500D02*
X173990000Y-97155000D01*
X177800000Y-104140000D02*
X175831500Y-104140000D01*
D27*
X177800000Y-104140000D02*
X176403000Y-104140000D01*
X175062000Y-105481000D02*
X175062000Y-105735000D01*
D25*
X147129500Y-121094500D02*
X147129500Y-120713500D01*
X147129500Y-120713500D02*
X148590000Y-119253000D01*
X148590000Y-119253000D02*
X152654000Y-115189000D01*
X134620000Y-98869500D02*
X137160000Y-96329500D01*
X137160000Y-96329500D02*
X137160000Y-95885000D01*
X134620000Y-100330000D02*
X134620000Y-98869500D01*
X147320000Y-130175000D02*
X147320000Y-127508000D01*
X147320000Y-127508000D02*
X147637500Y-127190500D01*
D28*
X165862000Y-109220000D02*
X164917000Y-108275000D01*
X164917000Y-108275000D02*
X163195000Y-108275000D01*
D26*
X142170000Y-101335000D02*
X142170000Y-100831500D01*
X142170000Y-100831500D02*
X140970000Y-99631500D01*
X140970000Y-99631500D02*
X140970000Y-97155000D01*
X140970000Y-97155000D02*
X139700000Y-95885000D01*
D28*
X147637500Y-125095000D02*
X147637500Y-127190500D01*
D25*
X166624000Y-120459500D02*
X164528500Y-120459500D01*
X133350000Y-121666000D02*
X133350000Y-124333000D01*
X133350000Y-124333000D02*
X133921500Y-124904500D01*
X132334000Y-120650000D02*
X133350000Y-121666000D01*
X132080000Y-120650000D02*
X132334000Y-120650000D01*
D26*
X146370000Y-104775000D02*
X145669000Y-104775000D01*
X145669000Y-104775000D02*
X145224500Y-104330500D01*
X153162000Y-115189000D02*
X153836000Y-114515000D01*
X153836000Y-114515000D02*
X155020000Y-114515000D01*
X152654000Y-115189000D02*
X153162000Y-115189000D01*
X161290000Y-131445000D02*
X163830000Y-131445000D01*
X158750000Y-131445000D02*
X161290000Y-131445000D01*
X156210000Y-131445000D02*
X158750000Y-131445000D01*
X153670000Y-131445000D02*
X156210000Y-131445000D01*
X151130000Y-131445000D02*
X153670000Y-131445000D01*
X148590000Y-131445000D02*
X151130000Y-131445000D01*
X144970500Y-130175000D02*
X147320000Y-130175000D01*
X147320000Y-130175000D02*
X148590000Y-131445000D01*
X143700500Y-131445000D02*
X144970500Y-130175000D01*
X143510000Y-131445000D02*
X143700500Y-131445000D01*
X147320000Y-122715000D02*
X147320000Y-121285000D01*
X147320000Y-121285000D02*
X147129500Y-121094500D01*
D28*
X134620000Y-105410000D02*
X134620000Y-102870000D01*
X134620000Y-107950000D02*
X134620000Y-105410000D01*
X134620000Y-110490000D02*
X134620000Y-107950000D01*
X134620000Y-113030000D02*
X134620000Y-110490000D01*
D26*
X139620000Y-115015000D02*
X140699500Y-115015000D01*
X140699500Y-115015000D02*
X140843000Y-114871500D01*
D25*
X173164500Y-125666500D02*
X174688500Y-125666500D01*
X176022000Y-127000000D02*
X177800000Y-127000000D01*
X174688500Y-125666500D02*
X176022000Y-127000000D01*
D28*
X141351000Y-126301500D02*
X140398500Y-126301500D01*
X140398500Y-126301500D02*
X137795000Y-123698000D01*
X137795000Y-123698000D02*
X137795000Y-120967500D01*
X137795000Y-120967500D02*
X134937500Y-118110000D01*
X134937500Y-118110000D02*
X134620000Y-118110000D01*
D25*
X176403000Y-127000000D02*
X177800000Y-127000000D01*
D26*
X132080000Y-100330000D02*
X132397500Y-100330000D01*
X132397500Y-100330000D02*
X133667500Y-101600000D01*
X133667500Y-101600000D02*
X135255000Y-101600000D01*
X135255000Y-101600000D02*
X136398000Y-102743000D01*
X136398000Y-102743000D02*
X136398000Y-110807500D01*
X136398000Y-110807500D02*
X138105500Y-112515000D01*
X138105500Y-112515000D02*
X139620000Y-112515000D01*
X138621000Y-116015000D02*
X138366500Y-115760500D01*
X138366500Y-115760500D02*
X138366500Y-115189000D01*
X139620000Y-116015000D02*
X138621000Y-116015000D01*
X137731500Y-116205000D02*
X138041500Y-116515000D01*
X138041500Y-116515000D02*
X139620000Y-116515000D01*
X137731500Y-116078000D02*
X137731500Y-116205000D01*
X137287000Y-116840000D02*
X137462000Y-117015000D01*
X137462000Y-117015000D02*
X139620000Y-117015000D01*
X137350500Y-117792500D02*
X138239500Y-117792500D01*
X138239500Y-117792500D02*
X138517000Y-117515000D01*
X138517000Y-117515000D02*
X139620000Y-117515000D01*
X135890000Y-114744500D02*
X136119500Y-114515000D01*
X136119500Y-114515000D02*
X139620000Y-114515000D01*
X132080000Y-115570000D02*
X132461000Y-115570000D01*
X132461000Y-115570000D02*
X133731000Y-114300000D01*
X133731000Y-114300000D02*
X135445500Y-114300000D01*
X135445500Y-114300000D02*
X136730500Y-113015000D01*
X136730500Y-113015000D02*
X139620000Y-113015000D01*
X139620000Y-118515000D02*
X137184000Y-118515000D01*
X137184000Y-118515000D02*
X134620000Y-115951000D01*
X134620000Y-115951000D02*
X134620000Y-115570000D01*
X142113000Y-117475000D02*
X142176500Y-117411500D01*
X142176500Y-117411500D02*
X142176500Y-114490500D01*
X142176500Y-114490500D02*
X141201000Y-113515000D01*
X141201000Y-113515000D02*
X139620000Y-113515000D01*
X141224000Y-118110000D02*
X141097000Y-117983000D01*
X141097000Y-117983000D02*
X141097000Y-117475000D01*
X141097000Y-117475000D02*
X141668500Y-116903500D01*
X141668500Y-116903500D02*
X141668500Y-114681000D01*
X141668500Y-114681000D02*
X141002500Y-114015000D01*
X141002500Y-114015000D02*
X139620000Y-114015000D01*
X172402500Y-111887000D02*
X170624500Y-111887000D01*
X170624500Y-111887000D02*
X165290500Y-106553000D01*
X165290500Y-106553000D02*
X159639000Y-106553000D01*
X159639000Y-106553000D02*
X158623000Y-105537000D01*
X158623000Y-105537000D02*
X155892500Y-105537000D01*
X155892500Y-105537000D02*
X154495500Y-104140000D01*
X154495500Y-104140000D02*
X152146000Y-104140000D01*
X152146000Y-104140000D02*
X150820000Y-105466000D01*
X150820000Y-105466000D02*
X150820000Y-107315000D01*
X172847000Y-113030000D02*
X170942000Y-113030000D01*
X170942000Y-113030000D02*
X164973000Y-107061000D01*
X164973000Y-107061000D02*
X159448500Y-107061000D01*
X159448500Y-107061000D02*
X158432500Y-106045000D01*
X158432500Y-106045000D02*
X155575000Y-106045000D01*
X155575000Y-106045000D02*
X154178000Y-104648000D01*
X154178000Y-104648000D02*
X152400000Y-104648000D01*
X152400000Y-104648000D02*
X151320000Y-105728000D01*
X151320000Y-105728000D02*
X151320000Y-107315000D01*
X151820000Y-107315000D02*
X151820000Y-105990000D01*
X151820000Y-105990000D02*
X152654000Y-105156000D01*
X152654000Y-105156000D02*
X153987500Y-105156000D01*
X153987500Y-105156000D02*
X155384500Y-106553000D01*
X155384500Y-106553000D02*
X158051500Y-106553000D01*
X158051500Y-106553000D02*
X160972500Y-109474000D01*
X160972500Y-109474000D02*
X164846000Y-109474000D01*
X164846000Y-109474000D02*
X169608500Y-114236500D01*
X169608500Y-114236500D02*
X173926500Y-114236500D01*
X164528500Y-109982000D02*
X160528000Y-109982000D01*
X169545000Y-114998500D02*
X164528500Y-109982000D01*
X160528000Y-109982000D02*
X157607000Y-107061000D01*
X152781000Y-105727500D02*
X152320000Y-106188500D01*
X157607000Y-107061000D02*
X155130500Y-107061000D01*
X155130500Y-107061000D02*
X153797000Y-105727500D01*
X152320000Y-106188500D02*
X152320000Y-107315000D01*
X153797000Y-105727500D02*
X152781000Y-105727500D01*
X152820000Y-106387000D02*
X152820000Y-107315000D01*
X168592500Y-114998500D02*
X164147500Y-110553500D01*
X164147500Y-110553500D02*
X160401000Y-110553500D01*
X160401000Y-110553500D02*
X157416500Y-107569000D01*
X157416500Y-107569000D02*
X154940000Y-107569000D01*
X154940000Y-107569000D02*
X153606500Y-106235500D01*
X153606500Y-106235500D02*
X152971500Y-106235500D01*
X152971500Y-106235500D02*
X152820000Y-106387000D01*
X167576500Y-114998500D02*
X167576500Y-114935000D01*
X167576500Y-114935000D02*
X163703000Y-111061500D01*
X163703000Y-111061500D02*
X160210500Y-111061500D01*
X160210500Y-111061500D02*
X157226000Y-108077000D01*
X154495500Y-108077000D02*
X153733500Y-107315000D01*
X157226000Y-108077000D02*
X154495500Y-108077000D01*
X153733500Y-107315000D02*
X153320000Y-107315000D01*
X166687500Y-114998500D02*
X163385500Y-111696500D01*
X163385500Y-111696500D02*
X160083500Y-111696500D01*
X160083500Y-111696500D02*
X157402000Y-109015000D01*
X157402000Y-109015000D02*
X155020000Y-109015000D01*
X165671500Y-114998500D02*
X165671500Y-114871500D01*
X165671500Y-114871500D02*
X163004500Y-112204500D01*
X163004500Y-112204500D02*
X159893000Y-112204500D01*
X159893000Y-112204500D02*
X157203500Y-109515000D01*
X157203500Y-109515000D02*
X156613500Y-109515000D01*
X156613500Y-109515000D02*
X155020000Y-109515000D01*
X158940500Y-101854000D02*
X158877000Y-101917500D01*
X158877000Y-101917500D02*
X146367500Y-101917500D01*
X146367500Y-101917500D02*
X143319500Y-104965500D01*
X143319500Y-104965500D02*
X143319500Y-106044000D01*
X143319500Y-106044000D02*
X143320000Y-106044500D01*
X143320000Y-106044500D02*
X143320000Y-107315000D01*
X159258000Y-103886000D02*
X159385000Y-103759000D01*
X159385000Y-103759000D02*
X161607500Y-103759000D01*
X167830500Y-106870500D02*
X175768000Y-106870500D01*
X161607500Y-103759000D02*
X162115500Y-103251000D01*
X164211000Y-103251000D02*
X167830500Y-106870500D01*
X162115500Y-103251000D02*
X164211000Y-103251000D01*
D25*
X175768000Y-106870500D02*
X175958500Y-106680000D01*
X175958500Y-106680000D02*
X177800000Y-106680000D01*
D26*
X159004000Y-104838500D02*
X159258000Y-104838500D01*
X159258000Y-104838500D02*
X160464500Y-106045000D01*
X160464500Y-106045000D02*
X166052500Y-106045000D01*
X166052500Y-106045000D02*
X170878500Y-110871000D01*
X170878500Y-110871000D02*
X174117000Y-110871000D01*
X174117000Y-110871000D02*
X175768000Y-109220000D01*
D25*
X175768000Y-109220000D02*
X177800000Y-109220000D01*
D26*
X158242000Y-101282500D02*
X146177000Y-101282500D01*
X146177000Y-101282500D02*
X142820000Y-104639500D01*
X142820000Y-104639500D02*
X142820000Y-107315000D01*
X160528000Y-112839500D02*
X160528000Y-112903000D01*
X160528000Y-112903000D02*
X163258500Y-115633500D01*
X163258500Y-115633500D02*
X173672500Y-115633500D01*
X174752000Y-114554000D02*
X174752000Y-113601500D01*
X173672500Y-115633500D02*
X174752000Y-114554000D01*
D25*
X174752000Y-113601500D02*
X176593500Y-111760000D01*
D26*
X176593500Y-111760000D02*
X177800000Y-111760000D01*
X177101500Y-112458500D02*
X177800000Y-111760000D01*
X142320000Y-107315000D02*
X142320000Y-108347500D01*
X142320000Y-108347500D02*
X144589500Y-110617000D01*
X144589500Y-110617000D02*
X152209500Y-110617000D01*
X152209500Y-110617000D02*
X152908000Y-109918500D01*
X152908000Y-109918500D02*
X153670000Y-109918500D01*
X159956500Y-113538000D02*
X160147000Y-113538000D01*
X160147000Y-113538000D02*
X162750500Y-116141500D01*
X162750500Y-116141500D02*
X174244000Y-116141500D01*
D25*
X174244000Y-116141500D02*
X176085500Y-114300000D01*
X176085500Y-114300000D02*
X177800000Y-114300000D01*
D26*
X141820000Y-107315000D02*
X141820000Y-108546000D01*
X141820000Y-108546000D02*
X144399000Y-111125000D01*
X144399000Y-111125000D02*
X152717500Y-111125000D01*
X152717500Y-111125000D02*
X153225500Y-110617000D01*
D25*
X174688500Y-116649500D02*
X177609500Y-116649500D01*
D26*
X162179000Y-116649500D02*
X174688500Y-116649500D01*
X160401000Y-114871500D02*
X162179000Y-116649500D01*
X177609500Y-116649500D02*
X177800000Y-116840000D01*
X141320000Y-107315000D02*
X141320000Y-108744500D01*
X141320000Y-108744500D02*
X144272000Y-111696500D01*
X144272000Y-111696500D02*
X153225500Y-111696500D01*
X153225500Y-111696500D02*
X153352500Y-111569500D01*
X159512000Y-114871500D02*
X161861500Y-117221000D01*
X161861500Y-117221000D02*
X174244000Y-117221000D01*
D25*
X174244000Y-117221000D02*
X176403000Y-119380000D01*
D26*
X176403000Y-119380000D02*
X177800000Y-119380000D01*
X139620000Y-109015000D02*
X140892000Y-109015000D01*
X140892000Y-109015000D02*
X144081500Y-112204500D01*
X144081500Y-112204500D02*
X153352500Y-112204500D01*
X153352500Y-112204500D02*
X153543000Y-112395000D01*
X159512000Y-115824000D02*
X161544000Y-117856000D01*
X161544000Y-117856000D02*
X172783500Y-117856000D01*
D25*
X172783500Y-117856000D02*
X176847500Y-121920000D01*
D26*
X176847500Y-121920000D02*
X177800000Y-121920000D01*
X139620000Y-109515000D02*
X140693500Y-109515000D01*
X140693500Y-109515000D02*
X143891000Y-112712500D01*
X143891000Y-112712500D02*
X152908000Y-112712500D01*
X152908000Y-112712500D02*
X153416000Y-113220500D01*
X159512000Y-116840000D02*
X161036000Y-118364000D01*
X161036000Y-118364000D02*
X170243500Y-118364000D01*
D25*
X170243500Y-118364000D02*
X176339500Y-124460000D01*
D26*
X176339500Y-124460000D02*
X177800000Y-124460000D01*
X139620000Y-110015000D02*
X140495000Y-110015000D01*
X152463500Y-113220500D02*
X153289000Y-114046000D01*
X140495000Y-110015000D02*
X143700500Y-113220500D01*
X143700500Y-113220500D02*
X152463500Y-113220500D01*
X150320000Y-107315000D02*
X150320000Y-105267500D01*
X150320000Y-105267500D02*
X152527000Y-103060500D01*
X152527000Y-103060500D02*
X161417000Y-103060500D01*
X162433000Y-102044500D02*
X175831500Y-102044500D01*
X161417000Y-103060500D02*
X162433000Y-102044500D01*
D25*
X175831500Y-102044500D02*
X176276000Y-101600000D01*
D26*
X176276000Y-101600000D02*
X177800000Y-101600000D01*
X175514000Y-101346000D02*
X175323500Y-101536500D01*
X175323500Y-101536500D02*
X162242500Y-101536500D01*
X162242500Y-101536500D02*
X161226500Y-102552500D01*
X161226500Y-102552500D02*
X152336500Y-102552500D01*
X152336500Y-102552500D02*
X149820000Y-105069000D01*
X149820000Y-105069000D02*
X149820000Y-107315000D01*
X148463000Y-118427500D02*
X148209000Y-118427500D01*
X148209000Y-118427500D02*
X146240500Y-120396000D01*
X144820000Y-122715000D02*
X144820000Y-121816500D01*
X144820000Y-121816500D02*
X146240500Y-120396000D01*
X148653500Y-117348000D02*
X148590000Y-117348000D01*
X148590000Y-117348000D02*
X146113500Y-119824500D01*
X144320000Y-122715000D02*
X144320000Y-121618000D01*
X144320000Y-121618000D02*
X146113500Y-119824500D01*
X143820000Y-121292500D02*
X143820000Y-122715000D01*
X149288500Y-116586000D02*
X149161500Y-116459000D01*
X149161500Y-116459000D02*
X148653500Y-116459000D01*
X148653500Y-116459000D02*
X143820000Y-121292500D01*
X160909000Y-100965000D02*
X161099500Y-100774500D01*
X161099500Y-100774500D02*
X162369500Y-100774500D01*
X162369500Y-100774500D02*
X164719000Y-98425000D01*
X164719000Y-98425000D02*
X165100000Y-98425000D01*
X156527500Y-110871000D02*
X156171500Y-110515000D01*
X156171500Y-110515000D02*
X155020000Y-110515000D01*
X150114000Y-115951000D02*
X148463000Y-115951000D01*
X148463000Y-115951000D02*
X143320000Y-121094000D01*
X143320000Y-121094000D02*
X143320000Y-121539500D01*
X143320000Y-121539500D02*
X143320000Y-122715000D01*
X159829500Y-101854000D02*
X160020000Y-101663500D01*
X160020000Y-101663500D02*
X160020000Y-98425000D01*
X156972000Y-110172500D02*
X156814500Y-110015000D01*
X156814500Y-110015000D02*
X155020000Y-110015000D01*
X142820000Y-122715000D02*
X142820000Y-123880000D01*
X142820000Y-123880000D02*
X142811500Y-123888500D01*
X150050500Y-113982500D02*
X148907500Y-115125500D01*
X148907500Y-115125500D02*
X148590000Y-115125500D01*
X148590000Y-115125500D02*
X142320000Y-121395500D01*
X142320000Y-121395500D02*
X142320000Y-122715000D01*
X141820000Y-122715000D02*
X141820000Y-123849500D01*
X141820000Y-123849500D02*
X141859000Y-123888500D01*
X148780500Y-114173000D02*
X141668500Y-121285000D01*
X141668500Y-121285000D02*
X141668500Y-121475500D01*
X141668500Y-121475500D02*
X141320000Y-121824000D01*
X141320000Y-121824000D02*
X141320000Y-122715000D01*
X140779500Y-121412000D02*
X140382500Y-121015000D01*
X140382500Y-121015000D02*
X139620000Y-121015000D01*
X145923000Y-116078000D02*
X143764000Y-118237000D01*
X143764000Y-118237000D02*
X143764000Y-118300500D01*
X143764000Y-118300500D02*
X141414500Y-120650000D01*
X141414500Y-120650000D02*
X140843000Y-120650000D01*
X140843000Y-120650000D02*
X140708000Y-120515000D01*
X140708000Y-120515000D02*
X139620000Y-120515000D01*
X139620000Y-120015000D02*
X141160500Y-120015000D01*
X141033500Y-111823500D02*
X142811500Y-113601500D01*
X142811500Y-113601500D02*
X142811500Y-118554500D01*
X142811500Y-118554500D02*
X142430500Y-118935500D01*
X140771500Y-119515000D02*
X139620000Y-119515000D01*
X142430500Y-118935500D02*
X142367000Y-118935500D01*
X142367000Y-118935500D02*
X141922500Y-119380000D01*
X141922500Y-119380000D02*
X140906500Y-119380000D01*
X140906500Y-119380000D02*
X140771500Y-119515000D01*
X139628000Y-119507000D02*
X139620000Y-119515000D01*
X140605000Y-119015000D02*
X139620000Y-119015000D01*
X140748000Y-118872000D02*
X140605000Y-119015000D01*
X142113000Y-118364000D02*
X141605000Y-118872000D01*
X141605000Y-118872000D02*
X140748000Y-118872000D01*
X173990000Y-128905000D02*
X173990000Y-128270000D01*
X173990000Y-128270000D02*
X167005000Y-121285000D01*
X167005000Y-121285000D02*
X158369000Y-121285000D01*
X158369000Y-121285000D02*
X156599000Y-119515000D01*
X156599000Y-119515000D02*
X155020000Y-119515000D01*
X165417500Y-122301000D02*
X171450000Y-128333500D01*
X171450000Y-128333500D02*
X171450000Y-128905000D01*
X157734000Y-122301000D02*
X165417500Y-122301000D01*
X155948000Y-120515000D02*
X157734000Y-122301000D01*
X155020000Y-120515000D02*
X155948000Y-120515000D01*
X168910000Y-128905000D02*
X168910000Y-128270000D01*
X168910000Y-128270000D02*
X164147500Y-123507500D01*
X164147500Y-123507500D02*
X153479500Y-123507500D01*
X153479500Y-123507500D02*
X153320000Y-123348000D01*
X153320000Y-123348000D02*
X153320000Y-122715000D01*
X152320000Y-122715000D02*
X152320000Y-123935500D01*
X152320000Y-123935500D02*
X153035000Y-124650500D01*
X153035000Y-124650500D02*
X163131500Y-124650500D01*
X163131500Y-124650500D02*
X166370000Y-127889000D01*
X166370000Y-127889000D02*
X166370000Y-128905000D01*
X151320000Y-122715000D02*
X151320000Y-124396000D01*
X151320000Y-124396000D02*
X152590500Y-125666500D01*
X152590500Y-125666500D02*
X160591500Y-125666500D01*
X160591500Y-125666500D02*
X163830000Y-128905000D01*
X150820000Y-122715000D02*
X150820000Y-124658000D01*
X150820000Y-124658000D02*
X152336500Y-126174500D01*
X152336500Y-126174500D02*
X158559500Y-126174500D01*
X158559500Y-126174500D02*
X161290000Y-128905000D01*
X150320000Y-122715000D02*
X150320000Y-124856500D01*
X150320000Y-124856500D02*
X152209500Y-126746000D01*
X152209500Y-126746000D02*
X156591000Y-126746000D01*
X156591000Y-126746000D02*
X158750000Y-128905000D01*
X149820000Y-122715000D02*
X149820000Y-125118500D01*
X149820000Y-125118500D02*
X152146000Y-127444500D01*
X152146000Y-127444500D02*
X154749500Y-127444500D01*
X154749500Y-127444500D02*
X156210000Y-128905000D01*
X149320000Y-122715000D02*
X149320000Y-125317000D01*
X149320000Y-125317000D02*
X152908000Y-128905000D01*
X152908000Y-128905000D02*
X153670000Y-128905000D01*
X151130000Y-128905000D02*
X151130000Y-128079500D01*
X151130000Y-128079500D02*
X148820000Y-125769500D01*
X148820000Y-125769500D02*
X148820000Y-122715000D01*
X148320000Y-122715000D02*
X148320000Y-128635000D01*
X148320000Y-128635000D02*
X148590000Y-128905000D01*
X146820000Y-122715000D02*
X146820000Y-128135000D01*
X146820000Y-128135000D02*
X146050000Y-128905000D01*
X143510000Y-128905000D02*
X143637000Y-128905000D01*
X143637000Y-128905000D02*
X146320000Y-126222000D01*
X146320000Y-126222000D02*
X146320000Y-122715000D01*
X172656500Y-128079500D02*
X172656500Y-130111500D01*
X172656500Y-130111500D02*
X173990000Y-131445000D01*
X166370000Y-121793000D02*
X172656500Y-128079500D01*
X157988000Y-121793000D02*
X166370000Y-121793000D01*
X156210000Y-120015000D02*
X157988000Y-121793000D01*
X155020000Y-120015000D02*
X156210000Y-120015000D01*
X171450000Y-131445000D02*
X171450000Y-131381500D01*
X171450000Y-131381500D02*
X170116500Y-130048000D01*
X170116500Y-130048000D02*
X170116500Y-128079500D01*
X170116500Y-128079500D02*
X164846000Y-122809000D01*
X164846000Y-122809000D02*
X157289500Y-122809000D01*
X157289500Y-122809000D02*
X155495500Y-121015000D01*
X155495500Y-121015000D02*
X155020000Y-121015000D01*
X152820000Y-122715000D02*
X152820000Y-123673500D01*
X152820000Y-123673500D02*
X153225500Y-124079000D01*
X153225500Y-124079000D02*
X163639500Y-124079000D01*
X163639500Y-124079000D02*
X167640000Y-128079500D01*
X167640000Y-128079500D02*
X167640000Y-130175000D01*
X167640000Y-130175000D02*
X168910000Y-131445000D01*
X151820000Y-122715000D02*
X151820000Y-124197500D01*
X151820000Y-124197500D02*
X152781000Y-125158500D01*
X152781000Y-125158500D02*
X162623500Y-125158500D01*
X162623500Y-125158500D02*
X165100000Y-127635000D01*
X165100000Y-127635000D02*
X165100000Y-130175000D01*
X165100000Y-130175000D02*
X166370000Y-131445000D01*
X140716000Y-104267000D02*
X140589000Y-104140000D01*
X140589000Y-104140000D02*
X140589000Y-103154000D01*
X140589000Y-103154000D02*
X140570000Y-103135000D01*
X152844500Y-109220000D02*
X152082500Y-109982000D01*
X152082500Y-109982000D02*
X145034000Y-109982000D01*
X145034000Y-109982000D02*
X143954500Y-108902500D01*
X153162000Y-119126000D02*
X153162000Y-117094000D01*
X160020000Y-120015000D02*
X159702500Y-120015000D01*
X159702500Y-120015000D02*
X156908500Y-117221000D01*
X156908500Y-117221000D02*
X156908500Y-117030500D01*
X156908500Y-117030500D02*
X155893000Y-116015000D01*
X155893000Y-116015000D02*
X155020000Y-116015000D01*
X139770000Y-103135000D02*
X139770000Y-104527500D01*
X139770000Y-104527500D02*
X139954000Y-104711500D01*
X145820000Y-122715000D02*
X145820000Y-121705500D01*
X145820000Y-121705500D02*
X146240500Y-121285000D01*
X139620000Y-112015000D02*
X138431000Y-112015000D01*
X138431000Y-112015000D02*
X137795000Y-111379000D01*
X137795000Y-111379000D02*
X137795000Y-108077000D01*
X137795000Y-108077000D02*
X141370000Y-104502000D01*
X141370000Y-104502000D02*
X141370000Y-103135000D01*
X138303000Y-108458000D02*
X142170000Y-104591000D01*
X142170000Y-104591000D02*
X142170000Y-103135000D01*
X138303000Y-111188500D02*
X138303000Y-108458000D01*
X138629500Y-111515000D02*
X138303000Y-111188500D01*
X139620000Y-111515000D02*
X138629500Y-111515000D01*
D29*
G36*
X138870000Y-121812440D02*
X139933287Y-121812440D01*
X139986383Y-121940943D01*
X140249173Y-122204192D01*
X140522560Y-122317713D01*
X140522560Y-123465000D01*
X140566838Y-123700317D01*
X140705910Y-123916441D01*
X140918110Y-124061431D01*
X140923848Y-124062593D01*
X140923838Y-124073667D01*
X141065883Y-124417443D01*
X141328673Y-124680692D01*
X141672201Y-124823338D01*
X142044167Y-124823662D01*
X142335543Y-124703268D01*
X142624701Y-124823338D01*
X142996667Y-124823662D01*
X143340443Y-124681617D01*
X143603692Y-124418827D01*
X143730916Y-124112440D01*
X143970000Y-124112440D01*
X144073671Y-124092933D01*
X144170000Y-124112440D01*
X144470000Y-124112440D01*
X144573671Y-124092933D01*
X144670000Y-124112440D01*
X144970000Y-124112440D01*
X145073671Y-124092933D01*
X145170000Y-124112440D01*
X145470000Y-124112440D01*
X145560000Y-124095505D01*
X145560000Y-125907198D01*
X143982337Y-127484861D01*
X143510000Y-127390907D01*
X142941715Y-127503946D01*
X142459946Y-127825853D01*
X142138039Y-128307622D01*
X142025000Y-128875907D01*
X142025000Y-128934093D01*
X142138039Y-129502378D01*
X142459946Y-129984147D01*
X142743101Y-130173345D01*
X142743076Y-130173355D01*
X142314817Y-130563642D01*
X142068514Y-131088108D01*
X142189181Y-131318000D01*
X143383000Y-131318000D01*
X143383000Y-131298000D01*
X143637000Y-131298000D01*
X143637000Y-131318000D01*
X143657000Y-131318000D01*
X143657000Y-131572000D01*
X143637000Y-131572000D01*
X143637000Y-131592000D01*
X143383000Y-131592000D01*
X143383000Y-131572000D01*
X142189181Y-131572000D01*
X142068514Y-131801892D01*
X142314817Y-132326358D01*
X142658974Y-132640000D01*
X142534092Y-132640000D01*
X141680000Y-131785908D01*
X141680000Y-130175000D01*
X141625954Y-129903295D01*
X141472046Y-129672954D01*
X139713683Y-127914591D01*
X139763500Y-127924500D01*
X139817456Y-127924500D01*
X140148201Y-128061838D01*
X140520167Y-128062162D01*
X140863943Y-127920117D01*
X141127192Y-127657327D01*
X141269838Y-127313799D01*
X141269905Y-127236430D01*
X141536167Y-127236662D01*
X141879943Y-127094617D01*
X142143192Y-126831827D01*
X142285838Y-126488299D01*
X142286162Y-126116333D01*
X142144117Y-125772557D01*
X141881327Y-125509308D01*
X141537799Y-125366662D01*
X141165833Y-125366338D01*
X141044431Y-125416500D01*
X140765079Y-125416500D01*
X138680000Y-123331420D01*
X138680000Y-121773964D01*
X138870000Y-121812440D01*
X138870000Y-121812440D01*
G37*
X138870000Y-121812440D02*
X139933287Y-121812440D01*
X139986383Y-121940943D01*
X140249173Y-122204192D01*
X140522560Y-122317713D01*
X140522560Y-123465000D01*
X140566838Y-123700317D01*
X140705910Y-123916441D01*
X140918110Y-124061431D01*
X140923848Y-124062593D01*
X140923838Y-124073667D01*
X141065883Y-124417443D01*
X141328673Y-124680692D01*
X141672201Y-124823338D01*
X142044167Y-124823662D01*
X142335543Y-124703268D01*
X142624701Y-124823338D01*
X142996667Y-124823662D01*
X143340443Y-124681617D01*
X143603692Y-124418827D01*
X143730916Y-124112440D01*
X143970000Y-124112440D01*
X144073671Y-124092933D01*
X144170000Y-124112440D01*
X144470000Y-124112440D01*
X144573671Y-124092933D01*
X144670000Y-124112440D01*
X144970000Y-124112440D01*
X145073671Y-124092933D01*
X145170000Y-124112440D01*
X145470000Y-124112440D01*
X145560000Y-124095505D01*
X145560000Y-125907198D01*
X143982337Y-127484861D01*
X143510000Y-127390907D01*
X142941715Y-127503946D01*
X142459946Y-127825853D01*
X142138039Y-128307622D01*
X142025000Y-128875907D01*
X142025000Y-128934093D01*
X142138039Y-129502378D01*
X142459946Y-129984147D01*
X142743101Y-130173345D01*
X142743076Y-130173355D01*
X142314817Y-130563642D01*
X142068514Y-131088108D01*
X142189181Y-131318000D01*
X143383000Y-131318000D01*
X143383000Y-131298000D01*
X143637000Y-131298000D01*
X143637000Y-131318000D01*
X143657000Y-131318000D01*
X143657000Y-131572000D01*
X143637000Y-131572000D01*
X143637000Y-131592000D01*
X143383000Y-131592000D01*
X143383000Y-131572000D01*
X142189181Y-131572000D01*
X142068514Y-131801892D01*
X142314817Y-132326358D01*
X142658974Y-132640000D01*
X142534092Y-132640000D01*
X141680000Y-131785908D01*
X141680000Y-130175000D01*
X141625954Y-129903295D01*
X141472046Y-129672954D01*
X139713683Y-127914591D01*
X139763500Y-127924500D01*
X139817456Y-127924500D01*
X140148201Y-128061838D01*
X140520167Y-128062162D01*
X140863943Y-127920117D01*
X141127192Y-127657327D01*
X141269838Y-127313799D01*
X141269905Y-127236430D01*
X141536167Y-127236662D01*
X141879943Y-127094617D01*
X142143192Y-126831827D01*
X142285838Y-126488299D01*
X142286162Y-126116333D01*
X142144117Y-125772557D01*
X141881327Y-125509308D01*
X141537799Y-125366662D01*
X141165833Y-125366338D01*
X141044431Y-125416500D01*
X140765079Y-125416500D01*
X138680000Y-123331420D01*
X138680000Y-121773964D01*
X138870000Y-121812440D01*
G36*
X148717000Y-131318000D02*
X151003000Y-131318000D01*
X151003000Y-131298000D01*
X151257000Y-131298000D01*
X151257000Y-131318000D01*
X153543000Y-131318000D01*
X153543000Y-131298000D01*
X153797000Y-131298000D01*
X153797000Y-131318000D01*
X156083000Y-131318000D01*
X156083000Y-131298000D01*
X156337000Y-131298000D01*
X156337000Y-131318000D01*
X158623000Y-131318000D01*
X158623000Y-131298000D01*
X158877000Y-131298000D01*
X158877000Y-131318000D01*
X161163000Y-131318000D01*
X161163000Y-131298000D01*
X161417000Y-131298000D01*
X161417000Y-131318000D01*
X163703000Y-131318000D01*
X163703000Y-131298000D01*
X163957000Y-131298000D01*
X163957000Y-131318000D01*
X163977000Y-131318000D01*
X163977000Y-131572000D01*
X163957000Y-131572000D01*
X163957000Y-131592000D01*
X163703000Y-131592000D01*
X163703000Y-131572000D01*
X161417000Y-131572000D01*
X161417000Y-131592000D01*
X161163000Y-131592000D01*
X161163000Y-131572000D01*
X158877000Y-131572000D01*
X158877000Y-131592000D01*
X158623000Y-131592000D01*
X158623000Y-131572000D01*
X156337000Y-131572000D01*
X156337000Y-131592000D01*
X156083000Y-131592000D01*
X156083000Y-131572000D01*
X153797000Y-131572000D01*
X153797000Y-131592000D01*
X153543000Y-131592000D01*
X153543000Y-131572000D01*
X151257000Y-131572000D01*
X151257000Y-131592000D01*
X151003000Y-131592000D01*
X151003000Y-131572000D01*
X148717000Y-131572000D01*
X148717000Y-131592000D01*
X148463000Y-131592000D01*
X148463000Y-131572000D01*
X148443000Y-131572000D01*
X148443000Y-131318000D01*
X148463000Y-131318000D01*
X148463000Y-131298000D01*
X148717000Y-131298000D01*
X148717000Y-131318000D01*
X148717000Y-131318000D01*
G37*
X148717000Y-131318000D02*
X151003000Y-131318000D01*
X151003000Y-131298000D01*
X151257000Y-131298000D01*
X151257000Y-131318000D01*
X153543000Y-131318000D01*
X153543000Y-131298000D01*
X153797000Y-131298000D01*
X153797000Y-131318000D01*
X156083000Y-131318000D01*
X156083000Y-131298000D01*
X156337000Y-131298000D01*
X156337000Y-131318000D01*
X158623000Y-131318000D01*
X158623000Y-131298000D01*
X158877000Y-131298000D01*
X158877000Y-131318000D01*
X161163000Y-131318000D01*
X161163000Y-131298000D01*
X161417000Y-131298000D01*
X161417000Y-131318000D01*
X163703000Y-131318000D01*
X163703000Y-131298000D01*
X163957000Y-131298000D01*
X163957000Y-131318000D01*
X163977000Y-131318000D01*
X163977000Y-131572000D01*
X163957000Y-131572000D01*
X163957000Y-131592000D01*
X163703000Y-131592000D01*
X163703000Y-131572000D01*
X161417000Y-131572000D01*
X161417000Y-131592000D01*
X161163000Y-131592000D01*
X161163000Y-131572000D01*
X158877000Y-131572000D01*
X158877000Y-131592000D01*
X158623000Y-131592000D01*
X158623000Y-131572000D01*
X156337000Y-131572000D01*
X156337000Y-131592000D01*
X156083000Y-131592000D01*
X156083000Y-131572000D01*
X153797000Y-131572000D01*
X153797000Y-131592000D01*
X153543000Y-131592000D01*
X153543000Y-131572000D01*
X151257000Y-131572000D01*
X151257000Y-131592000D01*
X151003000Y-131592000D01*
X151003000Y-131572000D01*
X148717000Y-131572000D01*
X148717000Y-131592000D01*
X148463000Y-131592000D01*
X148463000Y-131572000D01*
X148443000Y-131572000D01*
X148443000Y-131318000D01*
X148463000Y-131318000D01*
X148463000Y-131298000D01*
X148717000Y-131298000D01*
X148717000Y-131318000D01*
G36*
X144999946Y-129984147D02*
X145285578Y-130175000D01*
X144999946Y-130365853D01*
X144772298Y-130706553D01*
X144705183Y-130563642D01*
X144276924Y-130173355D01*
X144276899Y-130173345D01*
X144560054Y-129984147D01*
X144780000Y-129654974D01*
X144999946Y-129984147D01*
X144999946Y-129984147D01*
G37*
X144999946Y-129984147D02*
X145285578Y-130175000D01*
X144999946Y-130365853D01*
X144772298Y-130706553D01*
X144705183Y-130563642D01*
X144276924Y-130173355D01*
X144276899Y-130173345D01*
X144560054Y-129984147D01*
X144780000Y-129654974D01*
X144999946Y-129984147D01*
G36*
X147539946Y-129984147D02*
X147823101Y-130173345D01*
X147823076Y-130173355D01*
X147394817Y-130563642D01*
X147327702Y-130706553D01*
X147100054Y-130365853D01*
X146814422Y-130175000D01*
X147100054Y-129984147D01*
X147320000Y-129654974D01*
X147539946Y-129984147D01*
X147539946Y-129984147D01*
G37*
X147539946Y-129984147D02*
X147823101Y-130173345D01*
X147823076Y-130173355D01*
X147394817Y-130563642D01*
X147327702Y-130706553D01*
X147100054Y-130365853D01*
X146814422Y-130175000D01*
X147100054Y-129984147D01*
X147320000Y-129654974D01*
X147539946Y-129984147D01*
G36*
X175652560Y-124900896D02*
X175652560Y-125310000D01*
X175696838Y-125545317D01*
X175699879Y-125550043D01*
X175252418Y-125102582D01*
X174993690Y-124929706D01*
X174688500Y-124869000D01*
X173682044Y-124869000D01*
X173351299Y-124731662D01*
X172979333Y-124731338D01*
X172635557Y-124873383D01*
X172372308Y-125136173D01*
X172242819Y-125448017D01*
X167542401Y-120747599D01*
X167295839Y-120582852D01*
X167005000Y-120525000D01*
X164057440Y-120525000D01*
X164057440Y-119165000D01*
X164049725Y-119124000D01*
X169875664Y-119124000D01*
X175652560Y-124900896D01*
X175652560Y-124900896D01*
G37*
X175652560Y-124900896D02*
X175652560Y-125310000D01*
X175696838Y-125545317D01*
X175699879Y-125550043D01*
X175252418Y-125102582D01*
X174993690Y-124929706D01*
X174688500Y-124869000D01*
X173682044Y-124869000D01*
X173351299Y-124731662D01*
X172979333Y-124731338D01*
X172635557Y-124873383D01*
X172372308Y-125136173D01*
X172242819Y-125448017D01*
X167542401Y-120747599D01*
X167295839Y-120582852D01*
X167005000Y-120525000D01*
X164057440Y-120525000D01*
X164057440Y-119165000D01*
X164049725Y-119124000D01*
X169875664Y-119124000D01*
X175652560Y-124900896D01*
G36*
X135981500Y-124142500D02*
X136042206Y-124447690D01*
X136215082Y-124706418D01*
X136529574Y-125020910D01*
X136525000Y-125020000D01*
X131739092Y-125020000D01*
X130885000Y-124165908D01*
X130885000Y-124066667D01*
X131000853Y-124240054D01*
X131482622Y-124561961D01*
X132050907Y-124675000D01*
X132109093Y-124675000D01*
X132677378Y-124561961D01*
X133159147Y-124240054D01*
X133350000Y-123954422D01*
X133540853Y-124240054D01*
X134022622Y-124561961D01*
X134590907Y-124675000D01*
X134649093Y-124675000D01*
X135217378Y-124561961D01*
X135699147Y-124240054D01*
X135981500Y-123817482D01*
X135981500Y-124142500D01*
X135981500Y-124142500D01*
G37*
X135981500Y-124142500D02*
X136042206Y-124447690D01*
X136215082Y-124706418D01*
X136529574Y-125020910D01*
X136525000Y-125020000D01*
X131739092Y-125020000D01*
X130885000Y-124165908D01*
X130885000Y-124066667D01*
X131000853Y-124240054D01*
X131482622Y-124561961D01*
X132050907Y-124675000D01*
X132109093Y-124675000D01*
X132677378Y-124561961D01*
X133159147Y-124240054D01*
X133350000Y-123954422D01*
X133540853Y-124240054D01*
X134022622Y-124561961D01*
X134590907Y-124675000D01*
X134649093Y-124675000D01*
X135217378Y-124561961D01*
X135699147Y-124240054D01*
X135981500Y-123817482D01*
X135981500Y-124142500D01*
G36*
X133540853Y-121700054D02*
X133870026Y-121920000D01*
X133540853Y-122139946D01*
X133350000Y-122425578D01*
X133159147Y-122139946D01*
X132818447Y-121912298D01*
X132961358Y-121845183D01*
X133351645Y-121416924D01*
X133351655Y-121416899D01*
X133540853Y-121700054D01*
X133540853Y-121700054D01*
G37*
X133540853Y-121700054D02*
X133870026Y-121920000D01*
X133540853Y-122139946D01*
X133350000Y-122425578D01*
X133159147Y-122139946D01*
X132818447Y-121912298D01*
X132961358Y-121845183D01*
X133351645Y-121416924D01*
X133351655Y-121416899D01*
X133540853Y-121700054D01*
G36*
X147739205Y-120298993D02*
X147426057Y-120428383D01*
X147162808Y-120691173D01*
X147084615Y-120879482D01*
X147033617Y-120756057D01*
X146994465Y-120716837D01*
X148348901Y-119362401D01*
X148648167Y-119362662D01*
X148694807Y-119343391D01*
X147739205Y-120298993D01*
X147739205Y-120298993D01*
G37*
X147739205Y-120298993D02*
X147426057Y-120428383D01*
X147162808Y-120691173D01*
X147084615Y-120879482D01*
X147033617Y-120756057D01*
X146994465Y-120716837D01*
X148348901Y-119362401D01*
X148648167Y-119362662D01*
X148694807Y-119343391D01*
X147739205Y-120298993D01*
G36*
X132207000Y-120523000D02*
X132227000Y-120523000D01*
X132227000Y-120777000D01*
X132207000Y-120777000D01*
X132207000Y-120797000D01*
X131953000Y-120797000D01*
X131953000Y-120777000D01*
X131933000Y-120777000D01*
X131933000Y-120523000D01*
X131953000Y-120523000D01*
X131953000Y-120503000D01*
X132207000Y-120503000D01*
X132207000Y-120523000D01*
X132207000Y-120523000D01*
G37*
X132207000Y-120523000D02*
X132227000Y-120523000D01*
X132227000Y-120777000D01*
X132207000Y-120777000D01*
X132207000Y-120797000D01*
X131953000Y-120797000D01*
X131953000Y-120777000D01*
X131933000Y-120777000D01*
X131933000Y-120523000D01*
X131953000Y-120523000D01*
X131953000Y-120503000D01*
X132207000Y-120503000D01*
X132207000Y-120523000D01*
G36*
X152353878Y-114185680D02*
X152353838Y-114231167D01*
X152495883Y-114574943D01*
X152758673Y-114838192D01*
X153070517Y-114967681D01*
X149379332Y-118658866D01*
X149397838Y-118614299D01*
X149398162Y-118242333D01*
X149305559Y-118018216D01*
X149445692Y-117878327D01*
X149588338Y-117534799D01*
X149588391Y-117473759D01*
X149817443Y-117379117D01*
X150080692Y-117116327D01*
X150176310Y-116886055D01*
X150299167Y-116886162D01*
X150642943Y-116744117D01*
X150906192Y-116481327D01*
X151048838Y-116137799D01*
X151049162Y-115765833D01*
X150907117Y-115422057D01*
X150644327Y-115158808D01*
X150300799Y-115016162D01*
X150091822Y-115015980D01*
X150190180Y-114917622D01*
X150235667Y-114917662D01*
X150579443Y-114775617D01*
X150842692Y-114512827D01*
X150985338Y-114169299D01*
X150985502Y-113980500D01*
X152148698Y-113980500D01*
X152353878Y-114185680D01*
X152353878Y-114185680D01*
G37*
X152353878Y-114185680D02*
X152353838Y-114231167D01*
X152495883Y-114574943D01*
X152758673Y-114838192D01*
X153070517Y-114967681D01*
X149379332Y-118658866D01*
X149397838Y-118614299D01*
X149398162Y-118242333D01*
X149305559Y-118018216D01*
X149445692Y-117878327D01*
X149588338Y-117534799D01*
X149588391Y-117473759D01*
X149817443Y-117379117D01*
X150080692Y-117116327D01*
X150176310Y-116886055D01*
X150299167Y-116886162D01*
X150642943Y-116744117D01*
X150906192Y-116481327D01*
X151048838Y-116137799D01*
X151049162Y-115765833D01*
X150907117Y-115422057D01*
X150644327Y-115158808D01*
X150300799Y-115016162D01*
X150091822Y-115015980D01*
X150190180Y-114917622D01*
X150235667Y-114917662D01*
X150579443Y-114775617D01*
X150842692Y-114512827D01*
X150985338Y-114169299D01*
X150985502Y-113980500D01*
X152148698Y-113980500D01*
X152353878Y-114185680D01*
G36*
X158947206Y-112333508D02*
X158866310Y-112300000D01*
X158400750Y-112300000D01*
X158242000Y-112458750D01*
X158242000Y-113558000D01*
X158262000Y-113558000D01*
X158262000Y-113812000D01*
X158242000Y-113812000D01*
X158242000Y-113832000D01*
X157988000Y-113832000D01*
X157988000Y-113812000D01*
X157013750Y-113812000D01*
X156855000Y-113970750D01*
X156855000Y-114255000D01*
X156405000Y-114255000D01*
X156405000Y-114238690D01*
X156403333Y-114234665D01*
X156417440Y-114165000D01*
X156417440Y-113865000D01*
X156397933Y-113761329D01*
X156417440Y-113665000D01*
X156417440Y-113365000D01*
X156397933Y-113261329D01*
X156417440Y-113165000D01*
X156417440Y-112865000D01*
X156406845Y-112808691D01*
X156855000Y-112808691D01*
X156855000Y-113399250D01*
X157013750Y-113558000D01*
X157988000Y-113558000D01*
X157988000Y-112458750D01*
X157829250Y-112300000D01*
X157363690Y-112300000D01*
X157130301Y-112396673D01*
X156951673Y-112575302D01*
X156855000Y-112808691D01*
X156406845Y-112808691D01*
X156397933Y-112761329D01*
X156417440Y-112665000D01*
X156417440Y-112365000D01*
X156397933Y-112261329D01*
X156417440Y-112165000D01*
X156417440Y-111865000D01*
X156406319Y-111805895D01*
X156712667Y-111806162D01*
X157056443Y-111664117D01*
X157319692Y-111401327D01*
X157462338Y-111057799D01*
X157462404Y-110981541D01*
X157500943Y-110965617D01*
X157540163Y-110926465D01*
X158947206Y-112333508D01*
X158947206Y-112333508D01*
G37*
X158947206Y-112333508D02*
X158866310Y-112300000D01*
X158400750Y-112300000D01*
X158242000Y-112458750D01*
X158242000Y-113558000D01*
X158262000Y-113558000D01*
X158262000Y-113812000D01*
X158242000Y-113812000D01*
X158242000Y-113832000D01*
X157988000Y-113832000D01*
X157988000Y-113812000D01*
X157013750Y-113812000D01*
X156855000Y-113970750D01*
X156855000Y-114255000D01*
X156405000Y-114255000D01*
X156405000Y-114238690D01*
X156403333Y-114234665D01*
X156417440Y-114165000D01*
X156417440Y-113865000D01*
X156397933Y-113761329D01*
X156417440Y-113665000D01*
X156417440Y-113365000D01*
X156397933Y-113261329D01*
X156417440Y-113165000D01*
X156417440Y-112865000D01*
X156406845Y-112808691D01*
X156855000Y-112808691D01*
X156855000Y-113399250D01*
X157013750Y-113558000D01*
X157988000Y-113558000D01*
X157988000Y-112458750D01*
X157829250Y-112300000D01*
X157363690Y-112300000D01*
X157130301Y-112396673D01*
X156951673Y-112575302D01*
X156855000Y-112808691D01*
X156406845Y-112808691D01*
X156397933Y-112761329D01*
X156417440Y-112665000D01*
X156417440Y-112365000D01*
X156397933Y-112261329D01*
X156417440Y-112165000D01*
X156417440Y-111865000D01*
X156406319Y-111805895D01*
X156712667Y-111806162D01*
X157056443Y-111664117D01*
X157319692Y-111401327D01*
X157462338Y-111057799D01*
X157462404Y-110981541D01*
X157500943Y-110965617D01*
X157540163Y-110926465D01*
X158947206Y-112333508D01*
G36*
X170313698Y-113476500D02*
X169923302Y-113476500D01*
X165383401Y-108936599D01*
X165136839Y-108771852D01*
X164846000Y-108714000D01*
X164562089Y-108714000D01*
X164641965Y-108491777D01*
X164614778Y-107921546D01*
X164573130Y-107821000D01*
X164658198Y-107821000D01*
X170313698Y-113476500D01*
X170313698Y-113476500D01*
G37*
X170313698Y-113476500D02*
X169923302Y-113476500D01*
X165383401Y-108936599D01*
X165136839Y-108771852D01*
X164846000Y-108714000D01*
X164562089Y-108714000D01*
X164641965Y-108491777D01*
X164614778Y-107921546D01*
X164573130Y-107821000D01*
X164658198Y-107821000D01*
X170313698Y-113476500D01*
G36*
X134747000Y-102743000D02*
X134767000Y-102743000D01*
X134767000Y-102997000D01*
X134747000Y-102997000D01*
X134747000Y-105283000D01*
X134767000Y-105283000D01*
X134767000Y-105537000D01*
X134747000Y-105537000D01*
X134747000Y-107823000D01*
X134767000Y-107823000D01*
X134767000Y-108077000D01*
X134747000Y-108077000D01*
X134747000Y-110363000D01*
X134767000Y-110363000D01*
X134767000Y-110617000D01*
X134747000Y-110617000D01*
X134747000Y-112903000D01*
X134767000Y-112903000D01*
X134767000Y-113157000D01*
X134747000Y-113157000D01*
X134747000Y-113177000D01*
X134493000Y-113177000D01*
X134493000Y-113157000D01*
X134473000Y-113157000D01*
X134473000Y-112903000D01*
X134493000Y-112903000D01*
X134493000Y-110617000D01*
X134473000Y-110617000D01*
X134473000Y-110363000D01*
X134493000Y-110363000D01*
X134493000Y-108077000D01*
X134473000Y-108077000D01*
X134473000Y-107823000D01*
X134493000Y-107823000D01*
X134493000Y-105537000D01*
X134473000Y-105537000D01*
X134473000Y-105283000D01*
X134493000Y-105283000D01*
X134493000Y-102997000D01*
X134473000Y-102997000D01*
X134473000Y-102743000D01*
X134493000Y-102743000D01*
X134493000Y-102723000D01*
X134747000Y-102723000D01*
X134747000Y-102743000D01*
X134747000Y-102743000D01*
G37*
X134747000Y-102743000D02*
X134767000Y-102743000D01*
X134767000Y-102997000D01*
X134747000Y-102997000D01*
X134747000Y-105283000D01*
X134767000Y-105283000D01*
X134767000Y-105537000D01*
X134747000Y-105537000D01*
X134747000Y-107823000D01*
X134767000Y-107823000D01*
X134767000Y-108077000D01*
X134747000Y-108077000D01*
X134747000Y-110363000D01*
X134767000Y-110363000D01*
X134767000Y-110617000D01*
X134747000Y-110617000D01*
X134747000Y-112903000D01*
X134767000Y-112903000D01*
X134767000Y-113157000D01*
X134747000Y-113157000D01*
X134747000Y-113177000D01*
X134493000Y-113177000D01*
X134493000Y-113157000D01*
X134473000Y-113157000D01*
X134473000Y-112903000D01*
X134493000Y-112903000D01*
X134493000Y-110617000D01*
X134473000Y-110617000D01*
X134473000Y-110363000D01*
X134493000Y-110363000D01*
X134493000Y-108077000D01*
X134473000Y-108077000D01*
X134473000Y-107823000D01*
X134493000Y-107823000D01*
X134493000Y-105537000D01*
X134473000Y-105537000D01*
X134473000Y-105283000D01*
X134493000Y-105283000D01*
X134493000Y-102997000D01*
X134473000Y-102997000D01*
X134473000Y-102743000D01*
X134493000Y-102743000D01*
X134493000Y-102723000D01*
X134747000Y-102723000D01*
X134747000Y-102743000D01*
G36*
X175675048Y-107649511D02*
X175696838Y-107765317D01*
X175817015Y-107952077D01*
X175703569Y-108118110D01*
X175652560Y-108370000D01*
X175652560Y-108445462D01*
X175462810Y-108483206D01*
X175204082Y-108656082D01*
X175097290Y-108815908D01*
X173802198Y-110111000D01*
X173104604Y-110111000D01*
X173202570Y-109882175D01*
X172085000Y-108764605D01*
X172070858Y-108778748D01*
X171891253Y-108599143D01*
X171905395Y-108585000D01*
X171891253Y-108570858D01*
X172070858Y-108391253D01*
X172085000Y-108405395D01*
X172099143Y-108391253D01*
X172278748Y-108570858D01*
X172264605Y-108585000D01*
X173382175Y-109702570D01*
X173669788Y-109579435D01*
X173929707Y-108897266D01*
X173908786Y-108167557D01*
X173686330Y-107630500D01*
X175579475Y-107630500D01*
X175675048Y-107649511D01*
X175675048Y-107649511D01*
G37*
X175675048Y-107649511D02*
X175696838Y-107765317D01*
X175817015Y-107952077D01*
X175703569Y-108118110D01*
X175652560Y-108370000D01*
X175652560Y-108445462D01*
X175462810Y-108483206D01*
X175204082Y-108656082D01*
X175097290Y-108815908D01*
X173802198Y-110111000D01*
X173104604Y-110111000D01*
X173202570Y-109882175D01*
X172085000Y-108764605D01*
X172070858Y-108778748D01*
X171891253Y-108599143D01*
X171905395Y-108585000D01*
X171891253Y-108570858D01*
X172070858Y-108391253D01*
X172085000Y-108405395D01*
X172099143Y-108391253D01*
X172278748Y-108570858D01*
X172264605Y-108585000D01*
X173382175Y-109702570D01*
X173669788Y-109579435D01*
X173929707Y-108897266D01*
X173908786Y-108167557D01*
X173686330Y-107630500D01*
X175579475Y-107630500D01*
X175675048Y-107649511D01*
G36*
X163388748Y-108260858D02*
X163374605Y-108275000D01*
X163388748Y-108289142D01*
X163209143Y-108468748D01*
X163195000Y-108454605D01*
X163180858Y-108468748D01*
X163001252Y-108289142D01*
X163015395Y-108275000D01*
X163001252Y-108260858D01*
X163180858Y-108081253D01*
X163195000Y-108095395D01*
X163209143Y-108081253D01*
X163388748Y-108260858D01*
X163388748Y-108260858D01*
G37*
X163388748Y-108260858D02*
X163374605Y-108275000D01*
X163388748Y-108289142D01*
X163209143Y-108468748D01*
X163195000Y-108454605D01*
X163180858Y-108468748D01*
X163001252Y-108289142D01*
X163015395Y-108275000D01*
X163001252Y-108260858D01*
X163180858Y-108081253D01*
X163195000Y-108095395D01*
X163209143Y-108081253D01*
X163388748Y-108260858D01*
G36*
X136393076Y-97156645D02*
X136393101Y-97156655D01*
X136109946Y-97345853D01*
X135788039Y-97827622D01*
X135675000Y-98395907D01*
X135675000Y-98454093D01*
X135788039Y-99022378D01*
X136109946Y-99504147D01*
X136591715Y-99826054D01*
X137160000Y-99939093D01*
X137728285Y-99826054D01*
X138210054Y-99504147D01*
X138430000Y-99174974D01*
X138649946Y-99504147D01*
X139113842Y-99814112D01*
X139082662Y-99889201D01*
X139082556Y-100010655D01*
X139067852Y-100032661D01*
X139010000Y-100323500D01*
X139010000Y-100556614D01*
X138923569Y-100683110D01*
X138872560Y-100935000D01*
X138872560Y-101735000D01*
X138916838Y-101970317D01*
X139055910Y-102186441D01*
X139125711Y-102234134D01*
X139068559Y-102270910D01*
X138923569Y-102483110D01*
X138872560Y-102735000D01*
X138872560Y-103535000D01*
X138916838Y-103770317D01*
X139010000Y-103915095D01*
X139010000Y-104527500D01*
X139019120Y-104573347D01*
X139018838Y-104896667D01*
X139160883Y-105240443D01*
X139358646Y-105438552D01*
X137257599Y-107539599D01*
X137158000Y-107688660D01*
X137158000Y-102743000D01*
X137100148Y-102452161D01*
X136935401Y-102205599D01*
X135860691Y-101130889D01*
X135891645Y-101096924D01*
X136061476Y-100686890D01*
X135940155Y-100457000D01*
X134747000Y-100457000D01*
X134747000Y-100477000D01*
X134493000Y-100477000D01*
X134493000Y-100457000D01*
X134473000Y-100457000D01*
X134473000Y-100203000D01*
X134493000Y-100203000D01*
X134493000Y-99009181D01*
X134747000Y-99009181D01*
X134747000Y-100203000D01*
X135940155Y-100203000D01*
X136061476Y-99973110D01*
X135891645Y-99563076D01*
X135501358Y-99134817D01*
X134976892Y-98888514D01*
X134747000Y-99009181D01*
X134493000Y-99009181D01*
X134263108Y-98888514D01*
X133738642Y-99134817D01*
X133551192Y-99340504D01*
X133533162Y-99244683D01*
X133394090Y-99028559D01*
X133181890Y-98883569D01*
X132930000Y-98832560D01*
X131406532Y-98832560D01*
X131739092Y-98500000D01*
X134620000Y-98500000D01*
X134891705Y-98445954D01*
X135122046Y-98292046D01*
X135757046Y-97657046D01*
X135910954Y-97426705D01*
X135965001Y-97155000D01*
X135965000Y-97154995D01*
X135965000Y-96766525D01*
X136393076Y-97156645D01*
X136393076Y-97156645D01*
G37*
X136393076Y-97156645D02*
X136393101Y-97156655D01*
X136109946Y-97345853D01*
X135788039Y-97827622D01*
X135675000Y-98395907D01*
X135675000Y-98454093D01*
X135788039Y-99022378D01*
X136109946Y-99504147D01*
X136591715Y-99826054D01*
X137160000Y-99939093D01*
X137728285Y-99826054D01*
X138210054Y-99504147D01*
X138430000Y-99174974D01*
X138649946Y-99504147D01*
X139113842Y-99814112D01*
X139082662Y-99889201D01*
X139082556Y-100010655D01*
X139067852Y-100032661D01*
X139010000Y-100323500D01*
X139010000Y-100556614D01*
X138923569Y-100683110D01*
X138872560Y-100935000D01*
X138872560Y-101735000D01*
X138916838Y-101970317D01*
X139055910Y-102186441D01*
X139125711Y-102234134D01*
X139068559Y-102270910D01*
X138923569Y-102483110D01*
X138872560Y-102735000D01*
X138872560Y-103535000D01*
X138916838Y-103770317D01*
X139010000Y-103915095D01*
X139010000Y-104527500D01*
X139019120Y-104573347D01*
X139018838Y-104896667D01*
X139160883Y-105240443D01*
X139358646Y-105438552D01*
X137257599Y-107539599D01*
X137158000Y-107688660D01*
X137158000Y-102743000D01*
X137100148Y-102452161D01*
X136935401Y-102205599D01*
X135860691Y-101130889D01*
X135891645Y-101096924D01*
X136061476Y-100686890D01*
X135940155Y-100457000D01*
X134747000Y-100457000D01*
X134747000Y-100477000D01*
X134493000Y-100477000D01*
X134493000Y-100457000D01*
X134473000Y-100457000D01*
X134473000Y-100203000D01*
X134493000Y-100203000D01*
X134493000Y-99009181D01*
X134747000Y-99009181D01*
X134747000Y-100203000D01*
X135940155Y-100203000D01*
X136061476Y-99973110D01*
X135891645Y-99563076D01*
X135501358Y-99134817D01*
X134976892Y-98888514D01*
X134747000Y-99009181D01*
X134493000Y-99009181D01*
X134263108Y-98888514D01*
X133738642Y-99134817D01*
X133551192Y-99340504D01*
X133533162Y-99244683D01*
X133394090Y-99028559D01*
X133181890Y-98883569D01*
X132930000Y-98832560D01*
X131406532Y-98832560D01*
X131739092Y-98500000D01*
X134620000Y-98500000D01*
X134891705Y-98445954D01*
X135122046Y-98292046D01*
X135757046Y-97657046D01*
X135910954Y-97426705D01*
X135965001Y-97155000D01*
X135965000Y-97154995D01*
X135965000Y-96766525D01*
X136393076Y-97156645D01*
G36*
X175792694Y-102834281D02*
X175818143Y-102873831D01*
X175761673Y-102930301D01*
X175665000Y-103163690D01*
X175665000Y-103854250D01*
X175823750Y-104013000D01*
X177673000Y-104013000D01*
X177673000Y-103993000D01*
X177927000Y-103993000D01*
X177927000Y-104013000D01*
X177947000Y-104013000D01*
X177947000Y-104267000D01*
X177927000Y-104267000D01*
X177927000Y-104287000D01*
X177673000Y-104287000D01*
X177673000Y-104267000D01*
X175823750Y-104267000D01*
X175665000Y-104425750D01*
X175665000Y-105116310D01*
X175761673Y-105349699D01*
X175819871Y-105407897D01*
X175703569Y-105578110D01*
X175652560Y-105830000D01*
X175652560Y-105943707D01*
X175402936Y-106110500D01*
X173932440Y-106110500D01*
X173932440Y-103885000D01*
X173888162Y-103649683D01*
X173749090Y-103433559D01*
X173536890Y-103288569D01*
X173285000Y-103237560D01*
X170885000Y-103237560D01*
X170649683Y-103281838D01*
X170433559Y-103420910D01*
X170288569Y-103633110D01*
X170237560Y-103885000D01*
X170237560Y-106110500D01*
X168145302Y-106110500D01*
X164839302Y-102804500D01*
X175642975Y-102804500D01*
X175792694Y-102834281D01*
X175792694Y-102834281D01*
G37*
X175792694Y-102834281D02*
X175818143Y-102873831D01*
X175761673Y-102930301D01*
X175665000Y-103163690D01*
X175665000Y-103854250D01*
X175823750Y-104013000D01*
X177673000Y-104013000D01*
X177673000Y-103993000D01*
X177927000Y-103993000D01*
X177927000Y-104013000D01*
X177947000Y-104013000D01*
X177947000Y-104267000D01*
X177927000Y-104267000D01*
X177927000Y-104287000D01*
X177673000Y-104287000D01*
X177673000Y-104267000D01*
X175823750Y-104267000D01*
X175665000Y-104425750D01*
X175665000Y-105116310D01*
X175761673Y-105349699D01*
X175819871Y-105407897D01*
X175703569Y-105578110D01*
X175652560Y-105830000D01*
X175652560Y-105943707D01*
X175402936Y-106110500D01*
X173932440Y-106110500D01*
X173932440Y-103885000D01*
X173888162Y-103649683D01*
X173749090Y-103433559D01*
X173536890Y-103288569D01*
X173285000Y-103237560D01*
X170885000Y-103237560D01*
X170649683Y-103281838D01*
X170433559Y-103420910D01*
X170288569Y-103633110D01*
X170237560Y-103885000D01*
X170237560Y-106110500D01*
X168145302Y-106110500D01*
X164839302Y-102804500D01*
X175642975Y-102804500D01*
X175792694Y-102834281D01*
G36*
X146765838Y-102928167D02*
X146907883Y-103271943D01*
X147170673Y-103535192D01*
X147510000Y-103676094D01*
X147510000Y-103782666D01*
X147434683Y-103796838D01*
X147331354Y-103863329D01*
X147329698Y-103861673D01*
X147096309Y-103765000D01*
X146655750Y-103765000D01*
X146497000Y-103923750D01*
X146497000Y-104648000D01*
X146517000Y-104648000D01*
X146517000Y-104902000D01*
X146497000Y-104902000D01*
X146497000Y-105626250D01*
X146565931Y-105695181D01*
X146560000Y-105725000D01*
X146560000Y-105930000D01*
X146543690Y-105930000D01*
X146539665Y-105931667D01*
X146470000Y-105917560D01*
X146170000Y-105917560D01*
X146066329Y-105937067D01*
X145970000Y-105917560D01*
X145670000Y-105917560D01*
X145566329Y-105937067D01*
X145470000Y-105917560D01*
X145170000Y-105917560D01*
X145066329Y-105937067D01*
X144970000Y-105917560D01*
X144670000Y-105917560D01*
X144566329Y-105937067D01*
X144470000Y-105917560D01*
X144170000Y-105917560D01*
X144079500Y-105934589D01*
X144079500Y-105280302D01*
X144299052Y-105060750D01*
X145135000Y-105060750D01*
X145135000Y-105276310D01*
X145231673Y-105509699D01*
X145410302Y-105688327D01*
X145643691Y-105785000D01*
X146084250Y-105785000D01*
X146243000Y-105626250D01*
X146243000Y-104902000D01*
X145293750Y-104902000D01*
X145135000Y-105060750D01*
X144299052Y-105060750D01*
X145169569Y-104190233D01*
X145135000Y-104273690D01*
X145135000Y-104489250D01*
X145293750Y-104648000D01*
X146243000Y-104648000D01*
X146243000Y-103923750D01*
X146084250Y-103765000D01*
X145643691Y-103765000D01*
X145560232Y-103799570D01*
X146682302Y-102677500D01*
X146766056Y-102677500D01*
X146765838Y-102928167D01*
X146765838Y-102928167D01*
G37*
X146765838Y-102928167D02*
X146907883Y-103271943D01*
X147170673Y-103535192D01*
X147510000Y-103676094D01*
X147510000Y-103782666D01*
X147434683Y-103796838D01*
X147331354Y-103863329D01*
X147329698Y-103861673D01*
X147096309Y-103765000D01*
X146655750Y-103765000D01*
X146497000Y-103923750D01*
X146497000Y-104648000D01*
X146517000Y-104648000D01*
X146517000Y-104902000D01*
X146497000Y-104902000D01*
X146497000Y-105626250D01*
X146565931Y-105695181D01*
X146560000Y-105725000D01*
X146560000Y-105930000D01*
X146543690Y-105930000D01*
X146539665Y-105931667D01*
X146470000Y-105917560D01*
X146170000Y-105917560D01*
X146066329Y-105937067D01*
X145970000Y-105917560D01*
X145670000Y-105917560D01*
X145566329Y-105937067D01*
X145470000Y-105917560D01*
X145170000Y-105917560D01*
X145066329Y-105937067D01*
X144970000Y-105917560D01*
X144670000Y-105917560D01*
X144566329Y-105937067D01*
X144470000Y-105917560D01*
X144170000Y-105917560D01*
X144079500Y-105934589D01*
X144079500Y-105280302D01*
X144299052Y-105060750D01*
X145135000Y-105060750D01*
X145135000Y-105276310D01*
X145231673Y-105509699D01*
X145410302Y-105688327D01*
X145643691Y-105785000D01*
X146084250Y-105785000D01*
X146243000Y-105626250D01*
X146243000Y-104902000D01*
X145293750Y-104902000D01*
X145135000Y-105060750D01*
X144299052Y-105060750D01*
X145169569Y-104190233D01*
X145135000Y-104273690D01*
X145135000Y-104489250D01*
X145293750Y-104648000D01*
X146243000Y-104648000D01*
X146243000Y-103923750D01*
X146084250Y-103765000D01*
X145643691Y-103765000D01*
X145560232Y-103799570D01*
X146682302Y-102677500D01*
X146766056Y-102677500D01*
X146765838Y-102928167D01*
G36*
X176749946Y-99504147D02*
X177231715Y-99826054D01*
X177800000Y-99939093D01*
X178368285Y-99826054D01*
X178850054Y-99504147D01*
X178995000Y-99287219D01*
X178995000Y-100102560D01*
X176300000Y-100102560D01*
X176064683Y-100146838D01*
X175848559Y-100285910D01*
X175749236Y-100431275D01*
X175700799Y-100411162D01*
X175328833Y-100410838D01*
X174985057Y-100552883D01*
X174761049Y-100776500D01*
X163442302Y-100776500D01*
X164448410Y-99770392D01*
X164531715Y-99826054D01*
X165100000Y-99939093D01*
X165668285Y-99826054D01*
X166150054Y-99504147D01*
X166370000Y-99174974D01*
X166589946Y-99504147D01*
X167071715Y-99826054D01*
X167640000Y-99939093D01*
X168208285Y-99826054D01*
X168690054Y-99504147D01*
X168910000Y-99174974D01*
X169129946Y-99504147D01*
X169611715Y-99826054D01*
X170180000Y-99939093D01*
X170748285Y-99826054D01*
X171230054Y-99504147D01*
X171450000Y-99174974D01*
X171669946Y-99504147D01*
X172151715Y-99826054D01*
X172720000Y-99939093D01*
X173288285Y-99826054D01*
X173770054Y-99504147D01*
X173990000Y-99174974D01*
X174209946Y-99504147D01*
X174691715Y-99826054D01*
X175260000Y-99939093D01*
X175828285Y-99826054D01*
X176310054Y-99504147D01*
X176530000Y-99174974D01*
X176749946Y-99504147D01*
X176749946Y-99504147D01*
G37*
X176749946Y-99504147D02*
X177231715Y-99826054D01*
X177800000Y-99939093D01*
X178368285Y-99826054D01*
X178850054Y-99504147D01*
X178995000Y-99287219D01*
X178995000Y-100102560D01*
X176300000Y-100102560D01*
X176064683Y-100146838D01*
X175848559Y-100285910D01*
X175749236Y-100431275D01*
X175700799Y-100411162D01*
X175328833Y-100410838D01*
X174985057Y-100552883D01*
X174761049Y-100776500D01*
X163442302Y-100776500D01*
X164448410Y-99770392D01*
X164531715Y-99826054D01*
X165100000Y-99939093D01*
X165668285Y-99826054D01*
X166150054Y-99504147D01*
X166370000Y-99174974D01*
X166589946Y-99504147D01*
X167071715Y-99826054D01*
X167640000Y-99939093D01*
X168208285Y-99826054D01*
X168690054Y-99504147D01*
X168910000Y-99174974D01*
X169129946Y-99504147D01*
X169611715Y-99826054D01*
X170180000Y-99939093D01*
X170748285Y-99826054D01*
X171230054Y-99504147D01*
X171450000Y-99174974D01*
X171669946Y-99504147D01*
X172151715Y-99826054D01*
X172720000Y-99939093D01*
X173288285Y-99826054D01*
X173770054Y-99504147D01*
X173990000Y-99174974D01*
X174209946Y-99504147D01*
X174691715Y-99826054D01*
X175260000Y-99939093D01*
X175828285Y-99826054D01*
X176310054Y-99504147D01*
X176530000Y-99174974D01*
X176749946Y-99504147D01*
G36*
X141189946Y-99504147D02*
X141504717Y-99714470D01*
X141432162Y-99889201D01*
X141432032Y-100038381D01*
X141387839Y-100008852D01*
X141097000Y-99951000D01*
X140952610Y-99951000D01*
X140952662Y-99890833D01*
X140810617Y-99547057D01*
X140757162Y-99493509D01*
X140970000Y-99174974D01*
X141189946Y-99504147D01*
X141189946Y-99504147D01*
G37*
X141189946Y-99504147D02*
X141504717Y-99714470D01*
X141432162Y-99889201D01*
X141432032Y-100038381D01*
X141387839Y-100008852D01*
X141097000Y-99951000D01*
X140952610Y-99951000D01*
X140952662Y-99890833D01*
X140810617Y-99547057D01*
X140757162Y-99493509D01*
X140970000Y-99174974D01*
X141189946Y-99504147D01*
G36*
X141044817Y-96766358D02*
X141473076Y-97156645D01*
X141473101Y-97156655D01*
X141189946Y-97345853D01*
X140970000Y-97675026D01*
X140750054Y-97345853D01*
X140466899Y-97156655D01*
X140466924Y-97156645D01*
X140895183Y-96766358D01*
X140970000Y-96607046D01*
X141044817Y-96766358D01*
X141044817Y-96766358D01*
G37*
X141044817Y-96766358D02*
X141473076Y-97156645D01*
X141473101Y-97156655D01*
X141189946Y-97345853D01*
X140970000Y-97675026D01*
X140750054Y-97345853D01*
X140466899Y-97156655D01*
X140466924Y-97156645D01*
X140895183Y-96766358D01*
X140970000Y-96607046D01*
X141044817Y-96766358D01*
G36*
X174064817Y-96766358D02*
X174493076Y-97156645D01*
X174493101Y-97156655D01*
X174209946Y-97345853D01*
X173990000Y-97675026D01*
X173770054Y-97345853D01*
X173486899Y-97156655D01*
X173486924Y-97156645D01*
X173915183Y-96766358D01*
X173990000Y-96607046D01*
X174064817Y-96766358D01*
X174064817Y-96766358D01*
G37*
X174064817Y-96766358D02*
X174493076Y-97156645D01*
X174493101Y-97156655D01*
X174209946Y-97345853D01*
X173990000Y-97675026D01*
X173770054Y-97345853D01*
X173486899Y-97156655D01*
X173486924Y-97156645D01*
X173915183Y-96766358D01*
X173990000Y-96607046D01*
X174064817Y-96766358D01*
G36*
X171524817Y-96766358D02*
X171953076Y-97156645D01*
X171953101Y-97156655D01*
X171669946Y-97345853D01*
X171450000Y-97675026D01*
X171230054Y-97345853D01*
X170946899Y-97156655D01*
X170946924Y-97156645D01*
X171375183Y-96766358D01*
X171450000Y-96607046D01*
X171524817Y-96766358D01*
X171524817Y-96766358D01*
G37*
X171524817Y-96766358D02*
X171953076Y-97156645D01*
X171953101Y-97156655D01*
X171669946Y-97345853D01*
X171450000Y-97675026D01*
X171230054Y-97345853D01*
X170946899Y-97156655D01*
X170946924Y-97156645D01*
X171375183Y-96766358D01*
X171450000Y-96607046D01*
X171524817Y-96766358D01*
G36*
X137287000Y-95758000D02*
X139573000Y-95758000D01*
X139573000Y-95738000D01*
X139827000Y-95738000D01*
X139827000Y-95758000D01*
X142113000Y-95758000D01*
X142113000Y-95738000D01*
X142367000Y-95738000D01*
X142367000Y-95758000D01*
X144653000Y-95758000D01*
X144653000Y-95738000D01*
X144907000Y-95738000D01*
X144907000Y-95758000D01*
X147193000Y-95758000D01*
X147193000Y-95738000D01*
X147447000Y-95738000D01*
X147447000Y-95758000D01*
X149733000Y-95758000D01*
X149733000Y-95738000D01*
X149987000Y-95738000D01*
X149987000Y-95758000D01*
X152273000Y-95758000D01*
X152273000Y-95738000D01*
X152527000Y-95738000D01*
X152527000Y-95758000D01*
X154813000Y-95758000D01*
X154813000Y-95738000D01*
X155067000Y-95738000D01*
X155067000Y-95758000D01*
X157353000Y-95758000D01*
X157353000Y-95738000D01*
X157607000Y-95738000D01*
X157607000Y-95758000D01*
X159893000Y-95758000D01*
X159893000Y-95738000D01*
X160147000Y-95738000D01*
X160147000Y-95758000D01*
X162433000Y-95758000D01*
X162433000Y-95738000D01*
X162687000Y-95738000D01*
X162687000Y-95758000D01*
X164973000Y-95758000D01*
X164973000Y-95738000D01*
X165227000Y-95738000D01*
X165227000Y-95758000D01*
X167513000Y-95758000D01*
X167513000Y-95738000D01*
X167767000Y-95738000D01*
X167767000Y-95758000D01*
X170053000Y-95758000D01*
X170053000Y-95738000D01*
X170307000Y-95738000D01*
X170307000Y-95758000D01*
X172593000Y-95758000D01*
X172593000Y-95738000D01*
X172847000Y-95738000D01*
X172847000Y-95758000D01*
X175133000Y-95758000D01*
X175133000Y-95738000D01*
X175387000Y-95738000D01*
X175387000Y-95758000D01*
X177673000Y-95758000D01*
X177673000Y-95738000D01*
X177927000Y-95738000D01*
X177927000Y-95758000D01*
X177947000Y-95758000D01*
X177947000Y-96012000D01*
X177927000Y-96012000D01*
X177927000Y-96032000D01*
X177673000Y-96032000D01*
X177673000Y-96012000D01*
X175387000Y-96012000D01*
X175387000Y-96032000D01*
X175133000Y-96032000D01*
X175133000Y-96012000D01*
X172847000Y-96012000D01*
X172847000Y-96032000D01*
X172593000Y-96032000D01*
X172593000Y-96012000D01*
X170307000Y-96012000D01*
X170307000Y-96032000D01*
X170053000Y-96032000D01*
X170053000Y-96012000D01*
X167767000Y-96012000D01*
X167767000Y-96032000D01*
X167513000Y-96032000D01*
X167513000Y-96012000D01*
X165227000Y-96012000D01*
X165227000Y-96032000D01*
X164973000Y-96032000D01*
X164973000Y-96012000D01*
X162687000Y-96012000D01*
X162687000Y-96032000D01*
X162433000Y-96032000D01*
X162433000Y-96012000D01*
X160147000Y-96012000D01*
X160147000Y-96032000D01*
X159893000Y-96032000D01*
X159893000Y-96012000D01*
X157607000Y-96012000D01*
X157607000Y-96032000D01*
X157353000Y-96032000D01*
X157353000Y-96012000D01*
X155067000Y-96012000D01*
X155067000Y-96032000D01*
X154813000Y-96032000D01*
X154813000Y-96012000D01*
X152527000Y-96012000D01*
X152527000Y-96032000D01*
X152273000Y-96032000D01*
X152273000Y-96012000D01*
X149987000Y-96012000D01*
X149987000Y-96032000D01*
X149733000Y-96032000D01*
X149733000Y-96012000D01*
X147447000Y-96012000D01*
X147447000Y-96032000D01*
X147193000Y-96032000D01*
X147193000Y-96012000D01*
X144907000Y-96012000D01*
X144907000Y-96032000D01*
X144653000Y-96032000D01*
X144653000Y-96012000D01*
X142367000Y-96012000D01*
X142367000Y-96032000D01*
X142113000Y-96032000D01*
X142113000Y-96012000D01*
X139827000Y-96012000D01*
X139827000Y-96032000D01*
X139573000Y-96032000D01*
X139573000Y-96012000D01*
X137287000Y-96012000D01*
X137287000Y-96032000D01*
X137033000Y-96032000D01*
X137033000Y-96012000D01*
X137013000Y-96012000D01*
X137013000Y-95758000D01*
X137033000Y-95758000D01*
X137033000Y-95738000D01*
X137287000Y-95738000D01*
X137287000Y-95758000D01*
X137287000Y-95758000D01*
G37*
X137287000Y-95758000D02*
X139573000Y-95758000D01*
X139573000Y-95738000D01*
X139827000Y-95738000D01*
X139827000Y-95758000D01*
X142113000Y-95758000D01*
X142113000Y-95738000D01*
X142367000Y-95738000D01*
X142367000Y-95758000D01*
X144653000Y-95758000D01*
X144653000Y-95738000D01*
X144907000Y-95738000D01*
X144907000Y-95758000D01*
X147193000Y-95758000D01*
X147193000Y-95738000D01*
X147447000Y-95738000D01*
X147447000Y-95758000D01*
X149733000Y-95758000D01*
X149733000Y-95738000D01*
X149987000Y-95738000D01*
X149987000Y-95758000D01*
X152273000Y-95758000D01*
X152273000Y-95738000D01*
X152527000Y-95738000D01*
X152527000Y-95758000D01*
X154813000Y-95758000D01*
X154813000Y-95738000D01*
X155067000Y-95738000D01*
X155067000Y-95758000D01*
X157353000Y-95758000D01*
X157353000Y-95738000D01*
X157607000Y-95738000D01*
X157607000Y-95758000D01*
X159893000Y-95758000D01*
X159893000Y-95738000D01*
X160147000Y-95738000D01*
X160147000Y-95758000D01*
X162433000Y-95758000D01*
X162433000Y-95738000D01*
X162687000Y-95738000D01*
X162687000Y-95758000D01*
X164973000Y-95758000D01*
X164973000Y-95738000D01*
X165227000Y-95738000D01*
X165227000Y-95758000D01*
X167513000Y-95758000D01*
X167513000Y-95738000D01*
X167767000Y-95738000D01*
X167767000Y-95758000D01*
X170053000Y-95758000D01*
X170053000Y-95738000D01*
X170307000Y-95738000D01*
X170307000Y-95758000D01*
X172593000Y-95758000D01*
X172593000Y-95738000D01*
X172847000Y-95738000D01*
X172847000Y-95758000D01*
X175133000Y-95758000D01*
X175133000Y-95738000D01*
X175387000Y-95738000D01*
X175387000Y-95758000D01*
X177673000Y-95758000D01*
X177673000Y-95738000D01*
X177927000Y-95738000D01*
X177927000Y-95758000D01*
X177947000Y-95758000D01*
X177947000Y-96012000D01*
X177927000Y-96012000D01*
X177927000Y-96032000D01*
X177673000Y-96032000D01*
X177673000Y-96012000D01*
X175387000Y-96012000D01*
X175387000Y-96032000D01*
X175133000Y-96032000D01*
X175133000Y-96012000D01*
X172847000Y-96012000D01*
X172847000Y-96032000D01*
X172593000Y-96032000D01*
X172593000Y-96012000D01*
X170307000Y-96012000D01*
X170307000Y-96032000D01*
X170053000Y-96032000D01*
X170053000Y-96012000D01*
X167767000Y-96012000D01*
X167767000Y-96032000D01*
X167513000Y-96032000D01*
X167513000Y-96012000D01*
X165227000Y-96012000D01*
X165227000Y-96032000D01*
X164973000Y-96032000D01*
X164973000Y-96012000D01*
X162687000Y-96012000D01*
X162687000Y-96032000D01*
X162433000Y-96032000D01*
X162433000Y-96012000D01*
X160147000Y-96012000D01*
X160147000Y-96032000D01*
X159893000Y-96032000D01*
X159893000Y-96012000D01*
X157607000Y-96012000D01*
X157607000Y-96032000D01*
X157353000Y-96032000D01*
X157353000Y-96012000D01*
X155067000Y-96012000D01*
X155067000Y-96032000D01*
X154813000Y-96032000D01*
X154813000Y-96012000D01*
X152527000Y-96012000D01*
X152527000Y-96032000D01*
X152273000Y-96032000D01*
X152273000Y-96012000D01*
X149987000Y-96012000D01*
X149987000Y-96032000D01*
X149733000Y-96032000D01*
X149733000Y-96012000D01*
X147447000Y-96012000D01*
X147447000Y-96032000D01*
X147193000Y-96032000D01*
X147193000Y-96012000D01*
X144907000Y-96012000D01*
X144907000Y-96032000D01*
X144653000Y-96032000D01*
X144653000Y-96012000D01*
X142367000Y-96012000D01*
X142367000Y-96032000D01*
X142113000Y-96032000D01*
X142113000Y-96012000D01*
X139827000Y-96012000D01*
X139827000Y-96032000D01*
X139573000Y-96032000D01*
X139573000Y-96012000D01*
X137287000Y-96012000D01*
X137287000Y-96032000D01*
X137033000Y-96032000D01*
X137033000Y-96012000D01*
X137013000Y-96012000D01*
X137013000Y-95758000D01*
X137033000Y-95758000D01*
X137033000Y-95738000D01*
X137287000Y-95738000D01*
X137287000Y-95758000D01*
M02*
