G04 #@! TF.FileFunction,Soldermask,Bot*
%FSLAX46Y46*%
G04 Gerber Fmt 4.6, Leading zero omitted, Abs format (unit mm)*
G04 Created by KiCad (PCBNEW 4.0.6) date Mon Aug 28 16:48:00 2017*
%MOMM*%
%LPD*%
G01*
G04 APERTURE LIST*
%ADD10C,0.100000*%
%ADD11C,0.250000*%
%ADD12C,2.800000*%
%ADD13R,2.800000X2.800000*%
%ADD14R,3.400000X2.100000*%
%ADD15R,1.650000X1.900000*%
%ADD16R,1.600000X1.150000*%
%ADD17R,2.000000X2.000000*%
%ADD18C,2.000000*%
%ADD19R,2.100000X2.100000*%
%ADD20O,2.100000X2.100000*%
%ADD21R,0.900000X1.200000*%
%ADD22R,0.800000X1.200000*%
G04 APERTURE END LIST*
D10*
D11*
X160233810Y-123222619D02*
X160233810Y-124113095D01*
X160186191Y-124217857D01*
X160138572Y-124270238D01*
X160043334Y-124322619D01*
X159852857Y-124322619D01*
X159757619Y-124270238D01*
X159710000Y-124217857D01*
X159662381Y-124113095D01*
X159662381Y-123222619D01*
X158614762Y-124322619D02*
X158948096Y-123798810D01*
X159186191Y-124322619D02*
X159186191Y-123222619D01*
X158805238Y-123222619D01*
X158710000Y-123275000D01*
X158662381Y-123327381D01*
X158614762Y-123432143D01*
X158614762Y-123589286D01*
X158662381Y-123694048D01*
X158710000Y-123746429D01*
X158805238Y-123798810D01*
X159186191Y-123798810D01*
X156900476Y-124322619D02*
X157471905Y-124322619D01*
X157186191Y-124322619D02*
X157186191Y-123222619D01*
X157281429Y-123379762D01*
X157376667Y-123484524D01*
X157471905Y-123536905D01*
X156567143Y-123222619D02*
X155900476Y-123222619D01*
X156329048Y-124322619D01*
X155329048Y-123222619D02*
X155233809Y-123222619D01*
X155138571Y-123275000D01*
X155090952Y-123327381D01*
X155043333Y-123432143D01*
X154995714Y-123641667D01*
X154995714Y-123903571D01*
X155043333Y-124113095D01*
X155090952Y-124217857D01*
X155138571Y-124270238D01*
X155233809Y-124322619D01*
X155329048Y-124322619D01*
X155424286Y-124270238D01*
X155471905Y-124217857D01*
X155519524Y-124113095D01*
X155567143Y-123903571D01*
X155567143Y-123641667D01*
X155519524Y-123432143D01*
X155471905Y-123327381D01*
X155424286Y-123275000D01*
X155329048Y-123222619D01*
X154424286Y-123694048D02*
X154519524Y-123641667D01*
X154567143Y-123589286D01*
X154614762Y-123484524D01*
X154614762Y-123432143D01*
X154567143Y-123327381D01*
X154519524Y-123275000D01*
X154424286Y-123222619D01*
X154233809Y-123222619D01*
X154138571Y-123275000D01*
X154090952Y-123327381D01*
X154043333Y-123432143D01*
X154043333Y-123484524D01*
X154090952Y-123589286D01*
X154138571Y-123641667D01*
X154233809Y-123694048D01*
X154424286Y-123694048D01*
X154519524Y-123746429D01*
X154567143Y-123798810D01*
X154614762Y-123903571D01*
X154614762Y-124113095D01*
X154567143Y-124217857D01*
X154519524Y-124270238D01*
X154424286Y-124322619D01*
X154233809Y-124322619D01*
X154138571Y-124270238D01*
X154090952Y-124217857D01*
X154043333Y-124113095D01*
X154043333Y-123903571D01*
X154090952Y-123798810D01*
X154138571Y-123746429D01*
X154233809Y-123694048D01*
X153662381Y-123327381D02*
X153614762Y-123275000D01*
X153519524Y-123222619D01*
X153281428Y-123222619D01*
X153186190Y-123275000D01*
X153138571Y-123327381D01*
X153090952Y-123432143D01*
X153090952Y-123536905D01*
X153138571Y-123694048D01*
X153710000Y-124322619D01*
X153090952Y-124322619D01*
X152519524Y-123694048D02*
X152614762Y-123641667D01*
X152662381Y-123589286D01*
X152710000Y-123484524D01*
X152710000Y-123432143D01*
X152662381Y-123327381D01*
X152614762Y-123275000D01*
X152519524Y-123222619D01*
X152329047Y-123222619D01*
X152233809Y-123275000D01*
X152186190Y-123327381D01*
X152138571Y-123432143D01*
X152138571Y-123484524D01*
X152186190Y-123589286D01*
X152233809Y-123641667D01*
X152329047Y-123694048D01*
X152519524Y-123694048D01*
X152614762Y-123746429D01*
X152662381Y-123798810D01*
X152710000Y-123903571D01*
X152710000Y-124113095D01*
X152662381Y-124217857D01*
X152614762Y-124270238D01*
X152519524Y-124322619D01*
X152329047Y-124322619D01*
X152233809Y-124270238D01*
X152186190Y-124217857D01*
X152138571Y-124113095D01*
X152138571Y-123903571D01*
X152186190Y-123798810D01*
X152233809Y-123746429D01*
X152329047Y-123694048D01*
D12*
X172085000Y-108585000D03*
D13*
X172085000Y-105085000D03*
D14*
X177800000Y-101600000D03*
X177800000Y-104140000D03*
X177800000Y-106680000D03*
X177800000Y-109220000D03*
X177800000Y-111760000D03*
X177800000Y-114300000D03*
X177800000Y-116840000D03*
X177800000Y-119380000D03*
X177800000Y-121920000D03*
X177800000Y-124460000D03*
X177800000Y-127000000D03*
D15*
X142240000Y-116205000D03*
X142240000Y-113705000D03*
D16*
X148585000Y-120015000D03*
X146685000Y-120015000D03*
D17*
X163195000Y-104775000D03*
D18*
X163195000Y-108275000D03*
D19*
X132080000Y-100330000D03*
D20*
X134620000Y-100330000D03*
X132080000Y-102870000D03*
X134620000Y-102870000D03*
X132080000Y-105410000D03*
X134620000Y-105410000D03*
X132080000Y-107950000D03*
X134620000Y-107950000D03*
X132080000Y-110490000D03*
X134620000Y-110490000D03*
X132080000Y-113030000D03*
X134620000Y-113030000D03*
X132080000Y-115570000D03*
X134620000Y-115570000D03*
X132080000Y-118110000D03*
X134620000Y-118110000D03*
X132080000Y-120650000D03*
X134620000Y-120650000D03*
X132080000Y-123190000D03*
X134620000Y-123190000D03*
D19*
X177800000Y-95885000D03*
D20*
X177800000Y-98425000D03*
X175260000Y-95885000D03*
X175260000Y-98425000D03*
X172720000Y-95885000D03*
X172720000Y-98425000D03*
X170180000Y-95885000D03*
X170180000Y-98425000D03*
X167640000Y-95885000D03*
X167640000Y-98425000D03*
X165100000Y-95885000D03*
X165100000Y-98425000D03*
X162560000Y-95885000D03*
X162560000Y-98425000D03*
X160020000Y-95885000D03*
X160020000Y-98425000D03*
X157480000Y-95885000D03*
X157480000Y-98425000D03*
X154940000Y-95885000D03*
X154940000Y-98425000D03*
X152400000Y-95885000D03*
X152400000Y-98425000D03*
X149860000Y-95885000D03*
X149860000Y-98425000D03*
X147320000Y-95885000D03*
X147320000Y-98425000D03*
X144780000Y-95885000D03*
X144780000Y-98425000D03*
X142240000Y-95885000D03*
X142240000Y-98425000D03*
X139700000Y-95885000D03*
X139700000Y-98425000D03*
X137160000Y-95885000D03*
X137160000Y-98425000D03*
D19*
X162560000Y-120015000D03*
D20*
X160020000Y-120015000D03*
D19*
X173990000Y-128905000D03*
D20*
X173990000Y-131445000D03*
X171450000Y-128905000D03*
X171450000Y-131445000D03*
X168910000Y-128905000D03*
X168910000Y-131445000D03*
X166370000Y-128905000D03*
X166370000Y-131445000D03*
X163830000Y-128905000D03*
X163830000Y-131445000D03*
X161290000Y-128905000D03*
X161290000Y-131445000D03*
X158750000Y-128905000D03*
X158750000Y-131445000D03*
X156210000Y-128905000D03*
X156210000Y-131445000D03*
X153670000Y-128905000D03*
X153670000Y-131445000D03*
X151130000Y-128905000D03*
X151130000Y-131445000D03*
X148590000Y-128905000D03*
X148590000Y-131445000D03*
X146050000Y-128905000D03*
X146050000Y-131445000D03*
X143510000Y-128905000D03*
X143510000Y-131445000D03*
D21*
X169475000Y-124725000D03*
D22*
X167875000Y-124725000D03*
X168675000Y-124725000D03*
D21*
X167075000Y-124725000D03*
D22*
X168675000Y-122925000D03*
D21*
X169475000Y-122925000D03*
D22*
X167875000Y-122925000D03*
D21*
X167075000Y-122925000D03*
D15*
X168148000Y-105747500D03*
X168148000Y-108247500D03*
M02*
